<svg width="154" height="110" viewBox="0 0 154 110" fill="none" xmlns="http://www.w3.org/2000/svg">
<path d="M126.771 80.1709V90.4772H116.398V86.1168H105.526V87.7024H100.738V86.1168H90.2656V90.4772H79.8926V80.1709H90.2656V84.5313H100.738V82.9457H105.526V84.5313H116.398V80.1709H126.771Z" fill="#E52713"/>
<path d="M147.617 58.171V68.4773H137.144V64.1169H116.398V68.4773H106.025V64.1169H88.1713V72.3422H69.9187V64.1169H49.1726V65.7025H44.385V64.1169H27.6286V68.4773H17.1558V58.171H27.6286V62.5314H44.385V60.9458H49.1726V62.5314H69.9187V54.207H88.1713V62.5314H106.025V58.171H116.398V62.5314H137.144V58.171H147.617Z" fill="#E52713"/>
<path d="M154 35.1802V45.4865H143.627V41.1262H129.663V42.7118H124.776V41.1262H110.014V47.964H94.6541V41.1262H81.4883V42.7118H76.7008V41.1262H64.0337V51.7298H40.9935V41.1262H30.82V45.4865H20.4469V41.1262H10.3731V45.4865H0V35.1802H10.3731V39.5406H20.4469V35.1802H30.82V39.5406H40.9935V28.8379H64.0337V39.5406H76.7008V37.955H81.4883V39.5406H94.6541V32.7028H110.014V39.5406H124.776V37.955H129.663V39.5406H143.627V35.1802H154Z" fill="#E52713"/>
<path d="M134.85 15.856V26.1623H124.477V21.8019H105.127V23.3875H100.34V21.8019H78.1971V26.1623H67.824V21.8019H32.815V26.1623H22.4419V15.856H32.815V20.2163H67.824V15.856H78.1971V20.2163H100.34V18.6307H105.127V20.2163H124.477V15.856H134.85Z" fill="#E52713"/>
<path d="M105.028 0V10.3063H94.6548V5.94594H81.9877V7.63063H77.2002V5.94594H64.6328V10.3063H54.2598V0H64.6328V4.36036H77.2002V2.77477H81.9877V4.36036H94.6548V0H105.028Z" fill="#E52713"/>
<path d="M117.794 99.6938H107.421V110H117.794V99.6938Z" fill="#E52713"/>
</svg>
