<svg width="258" height="73" viewBox="0 0 258 73" fill="none" xmlns="http://www.w3.org/2000/svg">
<g clip-path="url(#clip0_607_450)">
<path d="M111.62 14.0401C111.62 10.1648 114.65 7 118.865 7C121.433 7 123.672 8.29177 124.858 10.3586L123.607 11.069C122.75 9.45435 120.906 8.35635 118.865 8.35635C115.374 8.35635 113.003 10.8753 113.003 14.0401C113.003 17.2049 115.374 19.7239 118.865 19.7239C120.906 19.7239 122.75 18.6258 123.607 17.0111L124.858 17.657C123.738 19.6593 121.433 21.0156 118.865 21.0156C114.65 21.0156 111.62 17.9154 111.62 14.0401Z" fill="#F9F8F8"/>
<path d="M137.041 19.5302V20.8219H128.941V7.25842H136.975V8.55018H130.389V13.3297H136.514V14.6215H130.389V19.5302H137.041Z" fill="#F9F8F8"/>
<path d="M151.464 7.25842V20.8219H150.279L142.573 9.77736V20.8219H141.19V7.25842H142.376L150.081 18.303V7.25842H151.464Z" fill="#F9F8F8"/>
<path d="M165.096 8.48512H160.816V20.7569H159.433V8.48512H155.152V7.19336H165.031V8.48512H165.096Z" fill="#F9F8F8"/>
<path d="M176.951 19.5302V20.8219H168.85V7.25842H176.885V8.55018H170.299V13.3297H176.424V14.6215H170.299V19.5302H176.951Z" fill="#F9F8F8"/>
<path d="M186.303 15.3966H182.417V20.8219H181.034V7.25842H186.566C188.871 7.25842 190.715 9.06689 190.715 11.3275C190.715 13.1359 189.464 14.7506 187.751 15.2028L191.111 20.8219H189.529L186.303 15.3966ZM182.483 14.1047H186.632C188.147 14.1047 189.398 12.8776 189.398 11.3275C189.398 9.77736 188.147 8.55018 186.632 8.55018H182.483V14.1047Z" fill="#F9F8F8"/>
<path d="M203.03 8.48512V13.4584H209.155V14.7502H203.03V20.7569H201.647V7.19336H209.418V8.48512H203.03Z" fill="#F9F8F8"/>
<path d="M212.777 14.0401C212.777 10.1648 215.872 7 219.956 7C224.039 7 227.068 10.1648 227.068 14.0401C227.068 17.9154 223.973 21.0802 219.89 21.0802C215.807 21.0802 212.777 17.9154 212.777 14.0401ZM225.685 14.0401C225.685 10.8753 223.182 8.35635 219.89 8.35635C216.597 8.35635 214.094 10.8753 214.094 14.0401C214.094 17.2049 216.597 19.7239 219.89 19.7239C223.182 19.7239 225.685 17.2049 225.685 14.0401Z" fill="#F9F8F8"/>
<path d="M236.486 15.3966H232.6V20.8219H231.217V7.25842H236.749C239.054 7.25842 240.898 9.06689 240.898 11.3275C240.898 13.1359 239.647 14.7506 237.934 15.2028L241.293 20.8219H239.713L236.486 15.3966ZM232.6 14.1047H236.749C238.264 14.1047 239.515 12.8776 239.515 11.3275C239.515 9.77736 238.264 8.55018 236.749 8.55018H232.6V14.1047Z" fill="#F9F8F8"/>
<path d="M120.314 39.4232H113.728L112.411 42.7818H110.962L116.296 29.2183H117.745L123.08 42.7818H121.631L120.314 39.4232ZM119.853 38.1315L117.087 30.8976L114.321 38.1315H119.853Z" fill="#F9F8F8"/>
<path d="M131.905 37.3564H128.019V42.7818H126.636V29.2183H132.168C134.473 29.2183 136.317 31.0267 136.317 33.2874C136.317 35.0958 135.066 36.7105 133.353 37.1626L136.712 42.7818H135.132L131.905 37.3564ZM128.019 36.0646H132.168C133.683 36.0646 134.934 34.8375 134.934 33.2874C134.934 31.7372 133.683 30.5101 132.168 30.5101H128.019V36.0646Z" fill="#F9F8F8"/>
<path d="M148.896 30.4453H144.615V42.7171H143.232V30.4453H138.951V29.1536H148.83V30.4453H148.896Z" fill="#F9F8F8"/>
<path d="M154.032 29.2183V42.7818H152.649V29.2183H154.032Z" fill="#F9F8F8"/>
<path d="M160.355 30.4453V35.4186H166.48V36.7104H160.355V42.7171H158.972V29.1536H166.743V30.4453H160.355Z" fill="#F9F8F8"/>
<path d="M172.275 29.2183V42.7818H170.892V29.2183H172.275Z" fill="#F9F8F8"/>
<path d="M176.424 35.9999C176.424 32.1247 179.454 28.9598 183.668 28.9598C186.237 28.9598 188.476 30.2516 189.661 32.3184L188.41 33.0289C187.554 31.4142 185.71 30.3162 183.668 30.3162C180.178 30.3162 177.807 32.8351 177.807 35.9999C177.807 39.1647 180.178 41.6837 183.668 41.6837C185.71 41.6837 187.554 40.5857 188.41 38.971L189.661 39.6169C188.542 41.6191 186.237 42.9754 183.668 42.9754C179.454 42.9754 176.424 39.8752 176.424 35.9999Z" fill="#F9F8F8"/>
<path d="M195.127 29.2183V42.7818H193.744V29.2183H195.127Z" fill="#F9F8F8"/>
<path d="M207.969 39.4232H201.384L200.066 42.7818H198.617L203.952 29.2183H205.401L210.735 42.7818H209.287L207.969 39.4232ZM207.442 38.1315L204.676 30.8976L201.911 38.1315H207.442Z" fill="#F9F8F8"/>
<path d="M221.997 41.49V42.7818H214.292V29.2183H215.675V41.49H221.997Z" fill="#F9F8F8"/>
<path d="M113.794 51.1781V64.7416H112.411V51.1781H113.794Z" fill="#F9F8F8"/>
<path d="M129.007 51.1781V64.7416H127.821L120.116 53.697V64.7416H118.733V51.1781H119.918L127.624 62.2227V51.1781H129.007Z" fill="#F9F8F8"/>
<path d="M142.639 52.4055H138.359V64.6773H136.976V52.4055H132.695V51.1138H142.573V52.4055H142.639Z" fill="#F9F8F8"/>
<path d="M154.494 63.4498V64.7416H146.393V51.1781H154.428V52.4699H147.842V57.2494H153.967V58.5411H147.842V63.4498H154.494Z" fill="#F9F8F8"/>
<path d="M166.348 63.4498V64.7416H158.642V51.1781H160.026V63.4498H166.348Z" fill="#F9F8F8"/>
<path d="M177.807 63.4497V64.7415H170.102V51.178H171.485V63.4497H177.807Z" fill="#F9F8F8"/>
<path d="M182.944 51.1781V64.7416H181.561V51.1781H182.944Z" fill="#F9F8F8"/>
<path d="M201.121 58.9932C201.121 62.2226 198.618 64.9999 194.337 64.9999C190.056 64.9999 187.092 61.8351 187.092 57.9598C187.092 54.0845 190.122 50.9197 194.337 50.9197C196.905 50.9197 199.144 52.276 200.33 54.2783L199.079 54.9887C198.222 53.3741 196.379 52.276 194.337 52.276C190.846 52.276 188.476 54.795 188.476 57.9598C188.476 61.1246 190.846 63.6436 194.337 63.6436C197.564 63.6436 199.408 61.8351 199.671 59.5745H194.206V58.2827H201.121V58.9932Z" fill="#F9F8F8"/>
<path d="M213.37 63.4497V64.7415H205.27V51.178H213.238V52.4697H206.653V57.2493H212.777V58.541H206.653V63.4497H213.37Z" fill="#F9F8F8"/>
<path d="M227.793 51.1781V64.7416H226.607L218.902 53.697V64.7416H217.519V51.1781H218.704L226.409 62.2227V51.1781H227.793Z" fill="#F9F8F8"/>
<path d="M231.941 57.9598C231.941 54.0845 234.971 50.9197 239.186 50.9197C241.754 50.9197 243.993 52.2114 245.179 54.2783L243.927 54.9887C243.071 53.3741 241.228 52.276 239.186 52.276C235.695 52.276 233.324 54.795 233.324 57.9598C233.324 61.1246 235.695 63.6436 239.186 63.6436C241.228 63.6436 243.071 62.5455 243.927 60.9309L245.179 61.5767C244.059 63.579 241.754 64.9353 239.186 64.9353C234.905 64.9353 231.941 61.8351 231.941 57.9598Z" fill="#F9F8F8"/>
<path d="M257.296 63.4498V64.7416H249.196V51.1781H257.231V52.4699H250.645V57.2494H256.77V58.5411H250.645V63.4498H257.296Z" fill="#F9F8F8"/>
</g>
<g clip-path="url(#clip1_607_450)">
<path d="M84.4652 53.2043V60.044H77.5948V57.1503H70.3939V58.2025H67.2226V57.1503H60.2863V60.044H53.4159V53.2043H60.2863V56.0981H67.2226V55.0458H70.3939V56.0981H77.5948V53.2043H84.4652Z" fill="#E52713"/>
<path d="M98.2723 38.6044V45.444H91.3356V42.5503H77.5948V45.444H70.7243V42.5503H58.8992V48.0089H46.8098V42.5503H33.0688V43.6026H29.8978V42.5503H18.7994V45.444H11.8629V38.6044H18.7994V41.4981H29.8978V40.4459H33.0688V41.4981H46.8098V35.9738H58.8992V41.4981H70.7243V38.6044H77.5948V41.4981H91.3356V38.6044H98.2723Z" fill="#E52713"/>
<path d="M102.5 23.3469V30.1866H95.6296V27.2929H86.3807V28.3452H83.1438V27.2929H73.3664V31.8307H63.193V27.2929H54.4728V28.3452H51.3018V27.2929H42.9119V34.3298H27.6515V27.2929H20.9132V30.1866H14.0428V27.2929H7.37049V30.1866H0.5V23.3469H7.37049V26.2406H14.0428V23.3469H20.9132V26.2406H27.6515V19.1379H42.9119V26.2406H51.3018V25.1884H54.4728V26.2406H63.193V21.7028H73.3664V26.2406H83.1438V25.1884H86.3807V26.2406H95.6296V23.3469H102.5Z" fill="#E52713"/>
<path d="M89.8163 10.5226V17.3622H82.9458V14.4685H70.1296V15.5208H66.959V14.4685H52.2929V17.3622H45.4224V14.4685H22.2346V17.3622H15.3641V10.5226H22.2346V13.4162H45.4224V10.5226H52.2929V13.4162H66.959V12.364H70.1296V13.4162H82.9458V10.5226H89.8163Z" fill="#E52713"/>
<path d="M70.064 0V6.83964H63.1934V3.94594H54.8035V5.06396H51.6326V3.94594H43.3087V6.83964H36.4383V0H43.3087V2.89369H51.6326V1.84144H54.8035V2.89369H63.1934V0H70.064Z" fill="#E52713"/>
<path d="M78.5194 66.1604H71.649V73H78.5194V66.1604Z" fill="#E52713"/>
</g>
<defs>
<clipPath id="clip0_607_450">
<rect width="147" height="58" fill="white" transform="translate(110.5 7)"/>
</clipPath>
<clipPath id="clip1_607_450">
<rect width="102" height="73" fill="white" transform="translate(0.5)"/>
</clipPath>
</defs>
</svg>
