<svg width="12" height="12" viewBox="0 0 12 12" fill="none" xmlns="http://www.w3.org/2000/svg">
<path d="M5.49609 0.0880622C5.82188 -0.0293541 6.17812 -0.0293541 6.50391 0.0880622L11.0039 1.70763C11.5805 1.92256 12 2.49225 12 3.13232V8.86696C12 9.50703 11.5805 10.0762 11.0039 10.2912L6.50391 11.9114C6.17812 12.0295 5.82188 12.0295 5.49609 11.9114L0.995391 10.2912C0.398438 10.0762 0 9.50703 0 8.86696V3.13232C0 2.49225 0.398438 1.92256 0.995391 1.70763L5.49609 0.0880622ZM6 1.51159L1.92984 2.97643L6 4.4408L10.0711 2.97643L6 1.51159ZM6.75 10.218L10.5 8.86696V4.42663L6.75 5.77762V10.218Z" fill="#1B998B"/>
</svg>
