<svg width="16" height="16" viewBox="0 0 16 16" fill="none" xmlns="http://www.w3.org/2000/svg">
<path d="M15.8971 2.57437C15.8249 2.23719 15.5554 2 15.2469 2H12.4459C12.4527 1.61094 12.4489 1.25937 12.4416 0.968125C12.4293 0.425937 12.0375 0 11.554 0H4.45151C3.96801 0 3.57621 0.425937 3.56231 0.968125C3.53175 1.25937 3.5512 1.61094 3.55953 2H0.757453C0.449013 2 0.181615 2.23719 0.108673 2.57437C0.0861098 2.68062 -0.436571 5.225 1.03005 7.68437C2.07041 9.42875 3.82546 10.6541 6.24018 11.3531C6.75981 11.5033 7.11299 12.0425 7.11299 12.6459C7.11354 13.3906 6.57169 14 5.90757 14H5.77975C5.0431 14 4.44623 14.6716 4.44623 15.5C4.44623 15.7761 4.64527 16 4.86582 16H11.0652C11.3107 16 11.4848 15.7761 11.4848 15.5C11.4848 14.6716 10.8879 14 10.1513 14H10.0222C9.35921 14 8.81735 13.3906 8.81735 12.6453C8.81735 12.0419 9.17053 11.5025 9.69016 11.3525C12.1065 10.6544 13.861 9.42906 14.9003 7.68375C16.4418 5.225 15.9194 2.68062 15.8971 2.57437ZM2.15099 6.86875C1.37461 5.58125 1.30625 4.24062 1.34432 3.5H3.57815C3.72706 5.36312 4.14362 7.59688 5.18065 9.40938C3.81796 8.8 2.80372 7.95 2.15099 6.86875ZM13.8548 6.86875C13.2034 7.95 12.1892 8.79844 10.8259 9.40687C11.8624 7.59687 12.2792 5.3625 12.4265 3.5H14.6603C14.6745 4.24062 14.63 5.58438 13.8548 6.86875Z" fill="#343434"/>
</svg>
