<svg width="30" height="30" viewBox="0 0 30 30" fill="none" xmlns="http://www.w3.org/2000/svg">
<path d="M26.2439 0H3.70431C1.68161 0 0 1.91853 0 4.28571V25.7143C0 28.0815 1.68167 30 3.70378 30H26.2434C28.3183 30 30 28.0815 30 25.7143V4.28571C30.0005 1.91853 28.3688 0 26.2439 0ZM6.52176 4.28571C8.07782 4.28571 9.33922 5.72478 9.33922 7.5C9.33922 9.27522 8.13006 10.7143 6.52176 10.7143C4.91347 10.7143 3.70431 9.27522 3.70431 7.5C3.70431 5.72478 5.01795 4.28571 6.52176 4.28571ZM26.1852 25.1518C26.0209 25.5 25.7039 25.7143 25.3576 25.7143H4.81427C4.46086 25.7143 4.13749 25.488 3.97725 25.1283C3.81701 24.7689 3.84724 24.3375 4.05555 24.0114L8.16434 17.5828C8.34137 17.3036 8.62311 17.1429 8.92247 17.1429C9.22182 17.1429 9.50451 17.3063 9.68142 17.5831L11.5867 20.5637L17.0631 11.2489C17.2398 10.8951 17.5333 10.7143 17.8444 10.7143C18.1555 10.7143 18.4519 10.8932 18.6257 11.1914L26.1389 24.0485C26.332 24.375 26.3496 24.7969 26.1852 25.1518Z" fill="#343434"/>
</svg>
