<svg width="292" height="58" viewBox="0 0 292 58" fill="none" xmlns="http://www.w3.org/2000/svg">
<path d="M103.097 28.995C103.097 44.9896 89.503 57.9519 72.7345 57.9519C69.5872 57.9519 66.5449 57.4907 63.6853 56.6406C59.9458 55.5391 56.521 53.7597 53.5633 51.457L59.0185 42.6835C61.9154 45.1135 65.5026 47.103 69.5162 47.6055C70.3927 47.726 71.8885 47.9153 72.7988 47.9153C83.8954 47.9153 92.8228 39.5823 92.8228 28.9984C92.8228 18.4145 83.8345 9.8475 72.7379 9.8475C71.7734 9.8475 70.8157 9.91634 69.885 10.0437C65.9154 10.5806 61.7157 12.6492 58.8459 15.0723L53.2621 6.25756C56.2503 4.01342 60.3688 2.29246 64.1083 1.23578C66.8461 0.468232 69.7429 0.0517578 72.7379 0.0517578C89.5064 0.0517578 103.101 13.0106 103.101 28.9984L103.097 28.995Z" fill="white"/>
<path d="M80.1867 21.4639V34.2059L66.2237 34.1749V32.1476L57.2861 32.2165C57.2861 32.2165 57.276 32.4884 57.276 32.4918C55.8851 47.1889 43.8273 58 29.0149 58C13.265 58 0.5 45.017 0.5 28.9983C0.5 12.9795 13.265 0 29.0149 0C38.6868 0 47.2352 4.89787 52.3859 12.391C53.6955 14.2875 54.7818 16.3492 55.6143 18.5417H44.1759C42.4432 15.9499 40.0878 13.8262 37.3264 12.391C34.8322 11.0968 32.0065 10.3671 29.0149 10.3671C18.8963 10.3671 10.6965 18.7103 10.6965 28.9983C10.6965 39.2862 18.8963 47.6295 29.0149 47.6295C38.1893 47.6295 45.7901 41.1104 47.1235 32.1545H38.8662V34.1612H24.9911V21.426H38.8662V23.6667H57.0424V23.6736H66.2237V21.4329L80.1867 21.4639Z" fill="#5E5E5E"/>
<path d="M115.72 44.2841C112.295 40.942 110.583 36.1852 110.583 30.0138C110.583 23.5258 112.343 18.5109 115.865 14.9691C119.388 11.4274 124.495 9.65479 131.185 9.65479C135.609 9.65479 139.463 10.2124 142.749 11.3276V19.5676C139.774 18.4524 136.153 17.8948 131.889 17.8948C127.625 17.8948 124.854 18.8688 122.996 20.8204C121.138 22.772 120.207 25.8353 120.207 30.0138C120.207 33.7965 121.077 36.5914 122.82 38.4018C124.559 40.2123 127.172 41.1175 130.658 41.1175C132.928 41.1175 135.04 40.8008 136.996 40.1641V32.8809H128.837V26.8507H144.922V45.8949C143.396 46.8896 141.439 47.7053 139.05 48.3421C136.661 48.9789 133.845 49.299 130.597 49.299C124.099 49.299 119.138 47.6262 115.717 44.2841H115.72Z" fill="white"/>
<path d="M150.064 34.8876C150.064 30.1102 151.364 26.4617 153.97 23.9319C156.572 21.4055 160.494 20.1389 165.74 20.1389C170.985 20.1389 174.965 21.3918 177.567 23.9009C180.17 26.4101 181.473 30.0723 181.473 34.8876C181.473 44.7178 176.227 49.6363 165.74 49.6363C155.252 49.6363 150.068 44.7212 150.068 34.8876H150.064ZM170.433 40.4394C171.374 39.3242 171.841 37.4759 171.841 34.8876C171.841 32.2993 171.361 30.4509 170.403 29.3358C169.442 28.2206 167.889 27.663 165.736 27.663C163.584 27.663 162.037 28.2309 161.1 29.3633C160.159 30.4991 159.692 32.3406 159.692 34.8876C159.692 37.4346 160.163 39.3277 161.1 40.4394C162.041 41.5546 163.584 42.1122 165.736 42.1122C167.889 42.1122 169.493 41.5546 170.433 40.4394Z" fill="white"/>
<path d="M185.369 20.4039H194.175L194.469 22.8511C195.681 21.9769 197.16 21.2506 198.899 20.6724C200.642 20.0976 202.429 19.8085 204.27 19.8085C207.83 19.8085 210.442 20.6862 212.107 22.4347C213.772 24.1866 214.601 26.892 214.601 30.5542V48.7035H205.15V31.3286C205.15 29.7384 204.808 28.6026 204.121 27.9245C203.437 27.2465 202.253 26.9092 200.571 26.9092C199.552 26.9092 198.517 27.1467 197.461 27.6251C196.405 28.1035 195.522 28.699 194.818 29.4149V48.7001H185.366V20.4039H185.369Z" fill="white"/>
<path d="M224.7 27.5079H220.592L221.414 20.4037H234.152V48.7033H224.7V27.5079ZM223.935 8.70117H234.21V15.9258H223.935V8.70117Z" fill="white"/>
<path d="M244.395 46.6729C242.73 44.921 241.901 42.4325 241.901 39.2108V27.6872H238.145V20.4041H241.901V14.4943L251.353 11.9266V20.4041H258.105L257.692 27.6872H251.353V38.5534C251.353 39.9061 251.665 40.8526 252.291 41.3896C252.917 41.9265 253.935 42.195 255.343 42.195C256.477 42.195 257.634 41.9953 258.805 41.5995V48.1082C256.964 48.9033 254.676 49.3026 251.939 49.3026C248.571 49.3026 246.057 48.4283 244.395 46.6764V46.6729Z" fill="white"/>
<path d="M260.098 34.5537C260.098 29.7763 261.398 26.1279 264 23.5981C266.603 21.0717 270.525 19.8051 275.77 19.8051C281.016 19.8051 284.996 21.0579 287.598 23.5671C290.2 26.0763 291.5 29.7385 291.5 34.5537C291.5 44.3839 286.255 49.3024 275.767 49.3024C265.28 49.3024 260.095 44.3873 260.095 34.5537H260.098ZM280.468 40.1056C281.405 38.9904 281.875 37.1421 281.875 34.5537C281.875 31.9654 281.395 30.1171 280.437 29.0019C279.476 27.8867 277.923 27.3291 275.77 27.3291C273.618 27.3291 272.072 27.897 271.134 29.0294C270.197 30.1653 269.726 32.0067 269.726 34.5537C269.726 37.1008 270.197 38.9938 271.134 40.1056C272.072 41.2208 273.618 41.7783 275.77 41.7783C277.923 41.7783 279.527 41.2208 280.468 40.1056Z" fill="white"/>
</svg>
