<svg width="181" height="35" viewBox="0 0 181 35" fill="none" xmlns="http://www.w3.org/2000/svg">
<g clip-path="url(#clip0_607_101)">
<path d="M63.8141 17.497C63.8141 27.1489 55.3588 34.971 44.929 34.971C42.9715 34.971 41.0792 34.6927 39.3005 34.1797C36.9746 33.515 34.8445 32.4412 33.0048 31.0517L36.3979 25.7573C38.1997 27.2237 40.4309 28.4242 42.9273 28.7275C43.4724 28.8002 44.4028 28.9144 44.969 28.9144C51.871 28.9144 57.4237 23.8859 57.4237 17.4991C57.4237 11.1122 51.8331 5.94247 44.9311 5.94247C44.3312 5.94247 43.7355 5.98401 43.1567 6.06086C40.6876 6.38488 38.0755 7.63317 36.2905 9.0954L32.8174 3.77613C34.6761 2.42191 37.2377 1.3834 39.5636 0.745748C41.2665 0.28257 43.0683 0.03125 44.9311 0.03125C55.3609 0.03125 63.8162 7.85126 63.8162 17.4991L63.8141 17.497Z" fill="#5E5E5E"/>
<path d="M49.564 12.9523V20.6415L40.8792 20.6228V19.3994L35.3202 19.441C35.3202 19.441 35.3138 19.6051 35.3138 19.6071C34.4487 28.4761 26.949 35 17.7359 35C7.93967 35 0 27.1655 0 17.499C0 7.83247 7.93967 0 17.7359 0C23.7516 0 29.0686 2.95561 32.2723 7.4773C33.0869 8.62174 33.7625 9.86588 34.2803 11.189H27.1658C26.0881 9.62495 24.6231 8.34342 22.9055 7.4773C21.3542 6.69634 19.5966 6.25601 17.7359 6.25601C11.4422 6.25601 6.34205 11.2907 6.34205 17.499C6.34205 23.7072 11.4422 28.7419 17.7359 28.7419C23.4422 28.7419 28.1698 24.808 28.9992 19.4036H23.8632V20.6145H15.2331V12.9295H23.8632V14.2816H35.1686V14.2858H40.8792V12.9337L49.564 12.9523Z" fill="#1B998B"/>
<path d="M71.6654 26.7232C69.5352 24.7064 68.4702 21.8359 68.4702 18.1118C68.4702 14.1966 69.5647 11.1704 71.7559 9.0331C73.9471 6.89584 77.1234 5.82617 81.2848 5.82617C84.0359 5.82617 86.4333 6.16265 88.4772 6.83561V11.808C86.627 11.1351 84.3747 10.7986 81.7226 10.7986C79.0704 10.7986 77.3465 11.3864 76.1909 12.5641C75.0353 13.7417 74.4565 15.5903 74.4565 18.1118C74.4565 20.3944 74.9974 22.081 76.0815 23.1735C77.1634 24.266 78.7883 24.8123 80.9564 24.8123C82.3688 24.8123 83.6822 24.6212 84.8989 24.2369V19.842H79.824V16.203H89.8285V27.6952C88.8792 28.2955 87.6626 28.7877 86.1765 29.172C84.6905 29.5562 82.9392 29.7494 80.9185 29.7494C76.8771 29.7494 73.7913 28.7399 71.6633 26.7232H71.6654Z" fill="#5E5E5E"/>
<path d="M92.2766 20.8512C92.2766 17.9683 93.0848 15.7667 94.7056 14.2401C96.3243 12.7155 98.7638 11.9512 102.026 11.9512C105.289 11.9512 107.764 12.7072 109.383 14.2214C111.002 15.7355 111.812 17.9455 111.812 20.8512C111.812 26.7832 108.549 29.7513 102.026 29.7513C95.5034 29.7513 92.2787 26.7853 92.2787 20.8512H92.2766ZM104.946 24.2015C105.531 23.5285 105.822 22.4132 105.822 20.8512C105.822 19.2893 105.523 18.1739 104.927 17.501C104.329 16.828 103.363 16.4916 102.024 16.4916C100.686 16.4916 99.7237 16.8343 99.1406 17.5176C98.5555 18.203 98.265 19.3142 98.265 20.8512C98.265 22.3882 98.5576 23.5306 99.1406 24.2015C99.7258 24.8744 100.686 25.2109 102.024 25.2109C103.363 25.2109 104.361 24.8744 104.946 24.2015Z" fill="#5E5E5E"/>
<path d="M114.986 12.3127H120.463L120.646 13.7895C121.4 13.2619 122.32 12.8236 123.402 12.4747C124.486 12.1278 125.597 11.9534 126.742 11.9534C128.956 11.9534 130.581 12.483 131.617 13.5381C132.653 14.5953 133.168 16.2279 133.168 18.4378V29.39H127.289V18.9052C127.289 17.9456 127.077 17.2602 126.649 16.851C126.224 16.4418 125.488 16.2383 124.441 16.2383C123.808 16.2383 123.164 16.3816 122.507 16.6703C121.85 16.959 121.301 17.3183 120.863 17.7504V29.3879H114.984V12.3127H114.986Z" fill="#5E5E5E"/>
<path d="M139.449 16.5996H136.894L137.405 12.3126H145.328V29.39H139.449V16.5996ZM138.974 5.25073H145.364V9.61041H138.974V5.25073Z" fill="#5E5E5E"/>
<path d="M151.7 28.1646C150.664 27.1074 150.149 25.6057 150.149 23.6616V16.7077H147.812V12.3127H150.149V8.74648L156.027 7.19702V12.3127H160.227L159.97 16.7077H156.027V23.2649C156.027 24.0812 156.221 24.6524 156.611 24.9764C157 25.3004 157.634 25.4624 158.509 25.4624C159.214 25.4624 159.934 25.3419 160.662 25.1031V29.0307C159.517 29.5105 158.094 29.7515 156.392 29.7515C154.297 29.7515 152.733 29.2239 151.7 28.1667V28.1646Z" fill="#5E5E5E"/>
<path d="M161.467 20.8512C161.467 17.9683 162.275 15.7667 163.894 14.2401C165.512 12.7155 167.952 11.9512 171.214 11.9512C174.477 11.9512 176.952 12.7072 178.571 14.2214C180.19 15.7355 180.998 17.9455 180.998 20.8512C180.998 26.7832 177.735 29.7513 171.212 29.7513C164.689 29.7513 161.464 26.7853 161.464 20.8512H161.467ZM174.136 24.2015C174.719 23.5285 175.012 22.4132 175.012 20.8512C175.012 19.2893 174.713 18.1739 174.117 17.501C173.519 16.828 172.553 16.4916 171.214 16.4916C169.876 16.4916 168.914 16.8343 168.331 17.5176C167.748 18.203 167.455 19.3142 167.455 20.8512C167.455 22.3882 167.748 23.5306 168.331 24.2015C168.914 24.8744 169.876 25.2109 171.214 25.2109C172.553 25.2109 173.551 24.8744 174.136 24.2015Z" fill="#5E5E5E"/>
</g>
<defs>
<clipPath id="clip0_607_101">
<rect width="181" height="35" fill="white"/>
</clipPath>
</defs>
</svg>
