<svg width="22" height="22" viewBox="0 0 22 22" fill="none" xmlns="http://www.w3.org/2000/svg">
<path fill-rule="evenodd" clip-rule="evenodd" d="M21.5197 0.480251C22.1601 1.12058 22.1601 2.15877 21.5197 2.79911L12.1594 12.1594L2.79911 21.5197C2.15877 22.1601 1.12058 22.1601 0.480251 21.5197C-0.160083 20.8794 -0.160083 19.8412 0.480251 19.2009L19.2009 0.480251C19.8412 -0.160083 20.8794 -0.160083 21.5197 0.480251Z" fill="#188F82"/>
<path fill-rule="evenodd" clip-rule="evenodd" d="M0.480251 0.480251C1.12058 -0.160084 2.15877 -0.160084 2.79911 0.480251L21.5197 19.2009C22.1601 19.8412 22.1601 20.8794 21.5197 21.5197C20.8794 22.1601 19.8412 22.1601 19.2009 21.5197L0.480251 2.79911C-0.160084 2.15877 -0.160084 1.12058 0.480251 0.480251Z" fill="#188F82"/>
</svg>
