<svg width="36" height="36" viewBox="0 0 36 36" fill="none" xmlns="http://www.w3.org/2000/svg">
<path d="M25.5547 0H10.4632C3.90795 0 0 3.906 0 10.458V25.524C0 32.094 3.90795 36 10.4632 36H25.5367C32.092 36 35.9999 32.094 35.9999 25.542V10.458C36.0179 3.906 32.11 0 25.5547 0ZM27.0135 27.45H9.00449C8.26612 27.45 7.65381 26.838 7.65381 26.1C7.65381 25.362 8.26612 24.75 9.00449 24.75H27.0135C27.7518 24.75 28.3641 25.362 28.3641 26.1C28.3641 26.838 27.7518 27.45 27.0135 27.45ZM27.0135 19.35H9.00449C8.26612 19.35 7.65381 18.738 7.65381 18C7.65381 17.262 8.26612 16.65 9.00449 16.65H27.0135C27.7518 16.65 28.3641 17.262 28.3641 18C28.3641 18.738 27.7518 19.35 27.0135 19.35ZM27.0135 11.25H9.00449C8.26612 11.25 7.65381 10.638 7.65381 9.9C7.65381 9.162 8.26612 8.55 9.00449 8.55H27.0135C27.7518 8.55 28.3641 9.162 28.3641 9.9C28.3641 10.638 27.7518 11.25 27.0135 11.25Z" fill="#1B998B"/>
</svg>
