<svg width="33" height="33" viewBox="0 0 33 33" fill="none" xmlns="http://www.w3.org/2000/svg">
<path d="M1.39729 27.0172C0.82276 27.5917 0.5 28.3709 0.5 29.1834C0.5 29.9959 0.82276 30.7751 1.39729 31.3497C1.97181 31.9242 2.75104 32.2469 3.56354 32.2469C4.37604 32.2469 5.15526 31.9242 5.72978 31.3497C9.33002 27.7494 12.8998 24.1492 16.5 20.61L27.2702 31.3497C27.5547 31.6341 27.8924 31.8598 28.2641 32.0138C28.6358 32.1677 29.0342 32.2469 29.4365 32.2469C29.8388 32.2469 30.2371 32.1677 30.6088 32.0138C30.9805 31.8598 31.3182 31.6341 31.6027 31.3497C31.8872 31.0652 32.1128 30.7275 32.2668 30.3558C32.4208 29.9841 32.5 29.5857 32.5 29.1834C32.5 28.7811 32.4208 28.3827 32.2668 28.011C32.1128 27.6394 31.8872 27.3016 31.6027 27.0172C28.0025 23.4779 24.4022 19.8472 20.863 16.2469C23.3649 13.6841 25.8667 11.2127 28.3686 8.71085C29.467 7.61247 30.5043 6.51409 31.6027 5.47673C32.1772 4.9022 32.5 4.12298 32.5 3.31048C32.5 2.49798 32.1772 1.71876 31.6027 1.14423C31.0282 0.569709 30.249 0.246948 29.4365 0.246948C28.624 0.246948 27.8447 0.569709 27.2702 1.14423L16.5 11.9328L5.72978 1.14423C5.15526 0.569709 4.37604 0.246948 3.56354 0.246948C2.75104 0.246948 1.97181 0.569709 1.39729 1.14423C0.82276 1.71876 0.5 2.49798 0.5 3.31048C0.5 4.12298 0.82276 4.9022 1.39729 5.47673L12.1858 16.2469L1.39729 27.0172Z" fill="#343434"/>
</svg>
