<svg width="200" height="242" viewBox="0 0 200 242" fill="none" xmlns="http://www.w3.org/2000/svg">
<path d="M96.8892 7.68254L95.568 7.46913C94.2468 7.25573 91.8246 8.32275 91.8246 8.32275L90.9437 8.74956L91.6044 9.17637C92.9256 10.03 94.2468 10.2434 95.1276 10.03C96.4488 9.60318 97.1094 8.32275 97.1094 8.32275L97.3296 7.89594L96.8892 7.68254ZM0 145.328C0.220203 146.182 6.16568 148.742 6.38588 151.303C6.38588 152.584 2.64243 211.27 2.64243 211.056C1.76162 241.573 20.2587 242 20.2587 242C44.7012 241.787 55.7113 196.758 55.9315 195.691C56.1517 194.624 57.4729 195.051 57.4729 195.051L57.6931 236.665L56.8123 238.799L54.8305 242C61.2164 239.866 67.6023 240.293 74.2083 241.787C75.0891 242 75.5295 242 75.7497 242L76.1902 241.36L75.97 240.293C76.1902 234.744 84.3377 222.367 84.3377 222.367C84.3377 222.367 101.073 222.794 103.716 222.58L108.34 239.012C106.138 240.506 105.697 241.787 106.138 242C109.881 240.293 117.148 239.439 121.332 240.079C121.772 240.079 129.479 242 130.14 241.787C129.479 241.146 128.378 240.293 128.158 239.226C127.938 238.372 128.158 237.518 128.158 237.518C127.277 224.074 133.883 174.564 133.883 174.138C134.544 168.589 136.085 173.497 136.085 173.497C136.085 173.497 149.518 236.025 150.398 240.293V240.506L150.839 241.573H153.702L154.142 240.293C157.005 230.69 173.3 175.631 173.3 175.631C174.621 171.577 175.942 174.778 175.942 174.778C178.144 177.125 179.685 238.159 179.465 238.159C175.942 240.079 176.603 241.573 176.603 241.573C184.53 237.732 199.504 241.573 199.724 241.36L193.338 235.598C191.797 229.836 186.512 151.09 186.732 148.742C185.851 147.675 190.035 145.328 190.255 145.328C182.328 146.822 175.061 145.968 171.538 145.328C169.556 144.901 173.74 147.035 173.3 148.529C172.419 157.705 156.124 205.081 156.344 204.868C152.821 201.667 145.114 150.877 145.114 150.023C144.893 147.675 148.857 145.968 148.196 145.115C139.609 148.742 127.497 145.115 127.497 145.115C126.176 145.755 130.14 147.249 130.14 150.663C129.92 154.078 123.534 224.287 122.433 230.476C121.992 232.397 121.772 234.744 120.891 236.665L120.231 235.598C112.744 221.94 108.56 189.929 109 188.436C109.221 187.155 112.083 186.302 112.083 186.302L95.3478 186.088C95.1276 190.143 74.4285 232.824 69.5841 236.878C69.5841 236.878 70.2447 154.931 70.0245 150.663C70.0245 147.249 74.4285 144.901 74.4285 144.901H73.7679C71.3457 145.541 68.2629 145.968 64.7396 145.968C61.4366 145.968 58.3537 145.541 55.7113 144.901C54.6103 144.688 54.3901 144.901 54.3901 145.115L55.4911 146.608C61.4366 151.73 54.8305 184.168 54.6103 184.808C27.3051 262.7 16.295 216.818 16.295 216.818C13.4324 204.227 20.2587 152.37 20.4789 152.37C22.2405 148.742 27.9658 145.541 27.9658 145.115L27.5253 145.328C16.9556 150.236 0.220203 145.115 0 145.328ZM187.613 89.4162C183.869 89.6296 174.18 87.4956 165.592 63.8078C165.152 62.5273 164.491 61.8871 163.831 62.1005C162.95 62.3139 162.289 63.5944 162.289 65.7284C162.289 73.1975 163.17 97.9524 175.502 107.769C179.685 111.183 184.75 112.25 190.696 111.183C188.714 117.586 185.191 121.64 180.786 122.067C174.841 122.707 168.455 116.519 162.73 104.995C161.409 102.007 159.427 96.4585 157.445 90.4832C153.261 77.679 150.178 69.3563 147.976 68.5026C147.095 68.0758 146.435 68.5026 146.215 68.716C145.334 69.5697 144.233 71.9171 145.774 83.4409C147.095 91.3369 150.178 96.0317 152.821 97.9524C149.297 98.5926 143.132 98.5926 135.645 75.1182C134.764 72.5573 133.883 71.2769 132.782 71.4903C131.461 71.7037 131.021 73.6243 130.58 75.3316C130.14 78.746 131.901 85.5749 133.443 88.9894C128.378 84.7213 119.35 73.4109 122.653 63.3809C124.855 67.0088 125.956 68.2892 125.956 68.2892L126.176 68.5026L126.396 68.2892L131.021 65.0882L137.407 68.5026L137.847 68.716L138.067 68.2892L140.269 63.5944L146.655 65.9418L147.095 66.1552L147.316 65.7284L148.637 61.6737L154.142 64.448L154.582 64.6614V64.0212L155.904 57.8325L162.73 60.6067L163.39 60.8201V60.1799V52.7108H170.217H170.657V52.2839V47.8025L176.162 47.1623H176.603V46.7354L176.382 36.0653C176.382 35.8518 176.162 34.358 175.281 33.7178C175.061 33.5044 174.401 33.291 173.74 33.7178C172.639 34.1446 171.318 35.2116 171.098 36.2787C171.098 37.1323 171.538 37.9859 172.639 38.6261V42.8942C172.419 43.1076 171.538 44.1746 167.354 42.8942L166.694 42.6808V43.321C166.694 48.0159 165.813 48.4427 161.188 49.0829H160.968V49.2963C160.308 51.2169 159.647 52.7108 158.546 53.1376C157.665 53.5644 156.124 53.1376 153.702 51.8571L153.261 51.6437V52.2839C153.261 52.7108 153.041 53.351 153.041 53.7778C152.821 55.485 152.601 56.7654 151.72 57.1922C151.059 57.619 149.518 57.1922 147.536 55.9118L147.095 55.6984L146.875 56.1252C146.655 56.552 146.655 56.9788 146.435 57.1922C145.994 58.8995 145.334 60.6067 144.453 60.8201C143.572 61.0335 142.471 60.3933 140.71 58.6861L140.269 58.2593L140.049 58.6861C138.067 61.4603 136.306 62.7407 134.764 62.7407C133.663 62.7407 132.562 61.6737 131.461 59.9665L131.241 59.5397L130.8 59.9665C129.039 61.6737 127.938 62.3139 126.837 62.3139C125.956 62.1005 125.075 61.4603 123.974 59.7531C123.534 59.3263 122.873 58.8995 122.213 58.6861C121.992 58.6861 121.772 58.4727 121.552 58.2593C121.772 58.2593 122.433 58.2593 123.093 58.2593H123.314C128.378 58.2593 141.811 58.2593 151.279 52.0705C161.629 45.2416 172.199 37.5591 168.015 29.8765C168.015 28.8095 168.455 28.1693 169.556 27.1023C170.437 26.2487 170.877 24.328 170.877 22.8342C170.877 21.9806 170.657 20.7002 170.217 20.2734V20.4868L169.997 20.7002C169.336 21.3404 169.116 21.9806 168.675 22.6208C168.235 23.6878 167.574 24.7548 165.813 25.6085C165.152 24.5414 164.712 23.4744 164.491 22.8342C163.611 20.9136 163.17 19.8466 161.629 19.8466H161.188V20.2734C161.188 20.9136 161.409 21.7672 161.629 22.4074C162.069 23.6878 162.289 24.9683 162.069 26.0353C160.087 26.8889 157.665 29.6631 157.665 31.5838V32.224L158.326 32.0106C158.986 31.7972 159.647 31.5838 160.087 31.3704C160.528 31.157 160.968 30.9436 161.188 30.9436C161.188 30.9436 161.409 31.157 161.409 31.7972C161.409 32.224 161.409 32.6508 161.409 33.291C161.188 34.7848 161.188 36.2787 162.73 37.7725L163.17 38.1993L163.39 37.5591C164.271 33.9312 166.033 32.0106 166.473 32.224C166.473 32.224 166.473 32.4374 166.473 32.8642C166.473 35.425 165.813 39.0529 160.087 43.1076C156.124 45.8818 146.215 52.4974 136.746 53.9912L134.984 54.2046C128.158 55.2716 123.974 55.9118 121.112 51.8571C126.176 51.6437 152.601 49.7231 159.867 39.6931L160.087 39.4797L159.867 39.2663C158.106 37.1323 154.142 30.0899 156.124 24.5414C157.225 21.3404 160.087 18.9929 164.932 17.7125C169.336 16.6455 173.079 18.5661 175.281 20.2734C179.465 23.4744 182.328 29.0229 182.328 33.5044C182.328 37.9859 183.209 52.4974 189.374 55.9118C191.356 56.9788 193.558 56.7654 196.201 55.6984C195.76 58.0459 194.219 61.0335 191.356 61.8871C188.273 62.7407 184.53 60.8201 180.346 56.1252C179.906 55.6984 179.245 55.0582 178.584 55.485C177.924 55.6984 177.704 56.7654 177.704 58.8995C177.704 59.1129 178.144 77.2522 186.512 83.2275C189.154 84.9347 192.017 85.3615 195.54 84.5079C194.219 86.642 191.356 89.2028 187.613 89.4162ZM155.904 97.5256L155.683 97.0988L155.243 96.2451L155.023 95.8183L154.582 95.1781L154.362 94.7513L153.922 94.1111L153.702 93.6843L153.261 93.0441L153.041 92.6173L152.821 92.1905L152.601 91.7637L152.38 91.3369L152.16 90.91L151.94 90.4832L151.72 90.2698L151.5 89.843L151.279 89.6296L151.059 89.2028V88.9894L150.839 88.5626V88.3492L150.619 87.9224V87.709V87.2822V87.0688V86.8554V86.642V86.4286V86.2152V86.0018V85.7883V85.575V85.3615V85.1481V84.9347V84.7213C150.619 84.7213 150.619 84.7213 150.619 84.5079V84.2945V84.0811C151.279 84.7213 153.702 91.5503 155.904 98.3792V97.5256ZM131.681 111.397L131.901 111.61L132.122 111.397L132.342 111.183C135.425 108.409 138.948 104.781 142.031 105.422C143.792 105.848 145.114 107.342 146.215 110.116C143.572 110.116 138.287 110.97 138.287 113.531C138.287 114.171 138.508 114.598 138.728 115.025C139.388 115.665 140.489 115.451 141.811 115.451C142.251 115.451 142.691 115.451 143.352 115.451C145.334 115.451 151.5 115.451 151.5 119.933C151.5 124.414 149.297 125.268 148.196 125.481C148.417 124.201 147.976 122.707 146.875 121.213C145.774 119.933 143.132 118.439 137.627 118.866H136.966L137.186 119.506C137.407 119.933 137.627 120.36 137.847 120.787C138.067 121 138.067 121.213 138.287 121.64C140.049 124.841 142.912 130.39 141.15 132.951C140.489 134.018 138.728 134.658 136.306 134.444C137.847 129.536 135.865 126.335 133.663 124.414C131.681 122.494 129.039 120.146 126.396 120.36C125.295 120.36 124.415 121 123.534 122.067C122.873 123.134 122.873 124.201 123.534 125.055C124.415 126.122 125.956 126.762 127.497 126.762C126.617 127.829 125.516 128.469 124.194 128.683C122.433 128.896 120.671 128.042 118.91 126.548C117.808 125.481 117.368 123.774 117.808 122.067C118.689 118.866 121.992 116.519 126.837 115.238H127.277V114.811C127.277 110.97 125.736 107.556 121.772 104.141L121.552 103.928L121.332 104.141L121.772 103.928C121.112 104.568 120.451 105.208 119.57 105.208C118.029 104.995 116.267 102.22 114.285 97.5256C113.625 96.4585 117.148 84.5079 117.808 83.6543C118.029 83.0141 118.469 81.9471 118.91 81.9471C119.13 81.9471 119.57 81.9471 120.451 83.6543C120.891 84.2945 121.112 85.1481 121.552 85.7883C123.754 89.843 126.176 94.3245 125.516 99.0194C124.635 103.287 131.021 110.97 131.681 111.397ZM142.471 122.28C143.132 122.494 143.572 122.707 144.013 123.134C144.673 123.774 144.893 124.628 145.114 125.268C144.453 123.988 143.572 123.134 142.471 122.28ZM112.744 74.2645L112.303 73.8377L112.083 74.4779C111.643 76.3986 110.322 81.3069 109 83.2275C108.34 82.1605 107.899 81.0935 107.239 80.0265C106.138 77.8924 105.037 75.7584 103.936 74.9048L103.495 74.4779L103.275 74.9048C102.614 77.0388 102.174 78.746 101.954 80.2399C101.513 81.9471 101.293 83.0141 100.853 83.8677C97.9902 80.8801 96.0084 75.7584 96.0084 75.7584L95.3478 74.4779L94.9074 75.7584L92.7054 83.0141C91.8246 82.3739 89.6225 80.2399 89.6225 76.8254V75.1182L88.7417 76.612L85.8791 81.7337C84.7781 80.4533 81.6952 75.545 83.4568 65.7284C85.6589 69.3563 88.5215 72.1305 88.5215 72.3439L89.1821 72.9841L89.4023 72.1305L90.7235 66.3686C92.265 68.5026 94.2468 71.4903 94.2468 72.3439V73.4109L94.9074 72.7707C96.8892 70.8501 98.871 67.8624 99.3114 66.1552C100.633 67.649 102.614 70.2099 103.055 72.7707H103.936V72.9841C103.936 72.9841 104.156 72.5573 104.376 72.1305C106.138 69.3563 107.679 66.7954 108.34 65.0882C109.881 68.716 111.202 72.9841 111.202 73.1975L111.423 73.8377L111.863 73.6243C112.083 73.6243 115.386 71.4903 117.588 67.8624C117.588 74.478 116.707 76.612 114.285 78.9594C114.285 75.3316 112.744 74.2645 112.744 74.2645ZM110.322 91.1234L109 89.843L108.78 89.6296L108.56 89.843C108.56 89.843 107.019 91.5503 105.477 97.0988C103.716 94.9647 101.293 89.843 101.293 89.843L101.073 89.4162C101.073 89.2028 101.293 88.9894 101.293 88.9894L104.817 83.0141C105.918 85.5749 107.019 88.5626 107.019 88.5626L107.239 89.2028L107.679 88.5626C109 86.8554 111.202 84.5079 112.524 84.0811C112.083 87.9224 110.982 90.2698 110.322 91.1234ZM106.138 102.647C105.477 103.287 104.376 102.861 104.376 102.861L103.716 102.647V103.287C103.716 103.287 103.716 105.422 102.174 107.982C100.853 107.556 100.192 106.275 99.3114 104.568C99.0912 104.141 98.871 103.714 98.6508 103.287L98.2104 102.22L97.9902 103.287C97.1094 106.275 98.871 109.903 102.394 111.397C102.835 111.61 103.275 112.037 103.275 112.464C103.275 113.531 101.513 115.238 100.192 115.665C99.7519 115.878 99.3114 115.878 99.3114 115.878C89.1821 92.6173 89.4023 87.9224 90.0629 84.9347C92.4852 86.0018 94.2468 88.776 94.2468 88.9894L94.6872 89.843L94.9074 88.776C94.9074 88.776 95.568 86.2152 96.669 83.8677C97.9902 85.3615 100.412 88.9894 100.412 88.9894L100.633 89.4162L100.192 89.843L97.5498 95.8183C96.8892 95.1781 95.1276 93.4709 93.5862 91.3369L92.7054 91.7637C94.0266 97.5256 95.568 99.4462 97.5498 101.153L98.2104 101.794V100.727C98.2104 100.3 99.7519 97.0988 100.853 95.6049C101.513 97.739 103.716 100.086 103.936 100.3C104.376 100.727 104.596 100.94 105.037 101.153C105.477 101.58 105.918 102.007 105.918 102.22C106.358 102.434 106.138 102.647 106.138 102.647ZM105.477 123.134C105.697 123.988 105.697 124.841 105.257 125.481C103.936 127.189 100.192 127.829 99.3114 127.829C98.4306 127.829 91.8246 126.975 91.8246 123.774C91.8246 121.213 97.1094 120.36 99.3114 120.146C102.394 120.36 105.257 122.921 105.477 123.134ZM109 145.968C111.643 148.316 114.946 149.169 119.13 148.956C118.029 150.877 116.047 152.157 113.625 152.157C109.661 152.37 106.138 149.596 103.936 144.901L103.275 143.621L103.055 145.115C102.394 148.742 107.899 157.279 116.487 161.76C115.606 162.614 114.505 163.254 112.964 163.254C109.881 163.467 106.578 161.76 104.156 158.986L103.716 158.559L103.495 159.199C103.055 160.266 103.716 161.333 104.376 162.614C104.817 163.467 105.477 164.534 105.477 165.388C105.477 166.028 105.257 171.577 100.412 174.564C95.568 171.577 95.3478 166.028 95.3478 165.388C95.3478 164.534 95.7882 163.467 96.4488 162.614C97.1094 161.333 97.77 160.266 97.3296 159.199L97.1094 158.559L96.669 158.986C94.2468 161.76 90.9437 163.254 87.8609 163.254C86.3195 163.254 84.9983 162.614 84.3377 161.76C92.9256 157.279 98.2104 148.742 97.77 145.115L97.5498 143.621L96.8892 144.901C94.6872 149.596 91.1639 152.157 87.2003 152.157C84.7781 152.157 82.7962 150.877 81.9154 148.956C85.8791 149.383 89.1821 148.529 91.8246 146.395C97.5498 141.7 98.2104 132.737 98.4306 130.817H103.495C102.614 132.737 103.495 141.273 109 145.968ZM86.5397 97.0988C84.3377 102.007 82.576 104.781 81.2548 104.995C80.374 105.208 79.7134 104.568 79.0528 103.714L78.8326 103.501L78.6124 103.287L78.3922 103.501C74.6487 107.129 73.1073 110.33 73.1073 114.171V114.598H73.5477C78.3922 115.665 81.6952 118.226 82.576 121.427C83.0164 123.134 82.7962 124.841 81.6952 125.908C79.9336 127.616 78.172 128.256 76.4104 128.042C75.0891 127.829 73.9881 127.189 73.1073 126.122C74.6487 126.122 76.1902 125.481 77.071 124.414C77.7316 123.561 77.7316 122.494 77.071 121.427C76.1902 120.36 75.3093 119.72 74.2083 119.72C71.5659 119.506 68.9235 121.854 66.9416 123.774C64.9598 125.695 62.978 129.109 64.2992 133.804C61.877 133.804 60.3356 133.377 59.6749 132.31C57.6931 129.536 61.2164 123.134 62.978 120.146C63.1982 119.72 63.4184 119.293 63.6386 118.866L63.8588 118.226H63.1982C57.9133 117.799 55.2709 119.293 53.9497 120.573C52.8487 121.854 52.4083 123.561 52.6285 124.841C51.3073 124.628 49.1052 123.774 49.1052 119.293C49.1052 114.811 55.2709 114.811 57.2527 114.811C57.6931 114.811 58.1335 114.811 58.7941 114.811C59.8952 115.025 61.2164 115.025 61.877 114.384C62.3174 113.958 62.5376 113.531 62.5376 112.891C62.5376 110.33 57.4729 109.69 54.8305 109.476C55.9315 106.702 57.2527 105.208 59.0143 104.781C62.0972 104.141 65.8406 107.556 68.7033 110.543L68.9235 110.757L69.1437 110.97L69.3639 110.757C70.0245 110.116 76.4104 102.434 75.3093 97.739C74.6487 93.2575 77.071 88.5626 79.273 84.5079C79.7134 83.6543 80.1538 83.0141 80.374 82.3739C81.2548 80.6667 81.6952 80.6667 81.9154 80.6667C82.3558 80.6667 82.7962 81.7337 83.0164 82.3739V82.5873C83.6771 84.0811 87.2003 96.0317 86.5397 97.0988ZM55.2709 125.481C55.4911 124.628 55.7113 123.774 56.3719 123.134C56.8123 122.707 57.4729 122.494 57.9133 122.28C56.8123 123.134 55.9315 124.201 55.2709 125.481ZM43.6001 98.5926C45.8022 91.7637 48.0042 84.9347 48.885 84.2945C49.1052 84.2945 49.3254 84.5079 49.5456 84.9347C49.986 85.7884 50.4264 89.2028 43.6001 98.5926ZM66.7214 88.9894C68.2629 85.5749 70.0245 78.746 69.5841 75.3316C69.3639 73.6243 68.7033 71.4903 67.382 71.4903C66.281 71.4903 65.4002 72.5573 64.5194 75.1182C57.0325 98.5926 50.8668 98.5926 47.3436 97.9524C49.986 96.0317 53.0689 91.3369 54.3901 83.4409C56.1517 71.9171 55.0507 69.5697 53.9497 68.716C53.5093 68.5026 53.0689 68.2892 52.1881 68.5026C49.986 69.3563 46.9032 77.8924 42.7193 90.4832C40.7375 96.4585 38.9759 102.007 37.4345 104.995C31.7092 116.519 25.3233 122.494 19.3778 122.067C14.9738 121.64 11.4505 117.586 9.46872 111.183C15.4142 112.25 20.4789 110.97 24.6627 107.769C36.7739 98.1658 37.6547 73.1975 37.6547 65.7284C37.6547 63.5944 37.2143 62.3139 36.3335 62.1005C35.6729 61.8871 35.0122 62.5273 34.3516 63.8078C25.7637 87.4956 16.0748 89.6296 12.3314 89.4162C8.58791 89.2028 5.94547 86.8554 4.84446 84.5079C8.36771 85.3615 11.2303 85.1481 13.8728 83.2275C22.2405 77.2522 22.6809 59.1129 22.6809 58.8995C22.6809 56.7654 22.4607 55.9118 21.5799 55.6984C20.9193 55.485 20.2587 55.9118 19.8183 56.3386C15.6344 61.0335 11.891 62.9541 8.80811 62.1005C5.94548 61.2469 4.40406 58.0459 3.96365 55.9118C6.60608 57.1922 8.80811 57.1922 10.7899 56.1252C16.9556 52.7108 17.8364 37.9859 17.8364 33.7178C17.8364 29.0229 20.6991 23.6878 24.8829 20.4868C27.0849 18.7795 30.8284 16.8589 35.2324 17.9259C39.8567 19.2063 42.9395 21.5538 44.0406 24.7549C46.0224 30.5168 42.0587 37.3457 40.2971 39.4797L40.5173 39.6931C47.784 49.7231 74.4285 51.6437 79.273 51.8571C76.4104 55.9118 72.2265 55.2716 65.4002 54.2046L63.4184 53.9912C53.9497 52.4974 44.0406 45.8818 40.0769 43.1076C34.3516 39.0529 33.691 35.425 33.691 32.8642C33.691 32.4374 33.691 32.224 33.691 32.224C34.1314 32.224 35.8931 34.1446 36.7739 37.5591L36.9941 38.1993L37.4345 37.7725C38.9759 36.2787 38.9759 34.7848 38.7557 33.291C38.7557 32.8642 38.7557 32.4374 38.7557 31.7972C38.7557 31.157 38.7557 30.9436 38.9759 30.9436C39.1961 30.9436 39.6365 31.157 40.0769 31.3704C40.5173 31.5838 41.1779 31.7972 41.8385 32.0106L42.4991 32.224V31.5838C42.4991 29.6631 40.0769 26.8889 37.8749 26.0353C37.4345 24.9683 37.8749 23.6878 38.3153 22.4074C38.5355 21.5538 38.7557 20.9136 38.7557 20.2734V19.8466H38.3153C36.7739 19.8466 36.3335 20.9136 35.4526 22.8342C35.0122 23.6878 34.5718 24.5414 34.1314 25.6085C32.3698 24.7548 31.7092 23.6878 31.2688 22.6208C31.0486 21.9806 30.6082 21.3404 29.9476 20.7002L29.7274 20.4868L29.5072 20.7002C28.8466 21.3404 28.8466 22.6208 28.8466 23.4744C28.8466 24.9683 29.287 26.8889 30.1678 27.7425C31.2688 28.8095 31.7092 29.4497 31.7092 30.5168C27.3051 38.6261 40.5173 47.3757 48.4446 52.7108C57.9133 58.8995 71.3457 58.8995 76.4104 58.8995H76.6306C77.5114 58.8995 77.9518 58.8995 78.172 58.8995C77.9518 59.1129 77.7316 59.1129 77.5114 59.3263C76.8508 59.7531 76.4104 59.9665 75.7497 60.3933C74.6487 62.1005 73.9881 62.7407 72.8871 62.9541C72.0063 63.1675 70.6851 62.3139 68.9235 60.6067V60.1799L68.7033 60.6067C67.8225 62.3139 66.7214 63.1675 65.4002 63.3809C63.8588 63.3809 62.0972 62.1005 60.1154 59.3263L59.8952 58.8995L59.4548 59.3263C57.6931 61.0335 56.5921 61.6737 55.7113 61.4603C54.8305 61.2469 54.1699 59.5397 53.7295 57.8325C53.5093 57.4056 53.5093 56.9788 53.2891 56.552L53.0689 56.1252L52.6285 56.3386C50.6466 57.4056 49.1052 57.8324 48.4446 57.619C47.5638 57.1922 47.3436 55.9118 47.1234 54.2046C47.1234 53.7778 46.9032 53.351 46.9032 52.7108V52.0705L46.4628 52.2839C44.0406 53.5644 42.7193 53.7778 41.6183 53.5644C40.5173 53.1376 39.8567 51.6437 39.1961 49.7231V49.5097H38.9759C34.3516 48.8695 33.4708 48.4427 33.4708 43.7478V43.1076L32.8102 43.321C28.6264 44.6014 27.7456 43.5344 27.5253 43.321V39.0529C28.6264 38.1993 29.0668 37.5591 29.0668 36.7055C28.8466 35.425 27.7456 34.5714 26.4243 34.1446C25.7637 33.9312 25.3233 34.1446 24.8829 34.1446C24.0021 34.7848 23.7819 36.2787 23.7819 36.2787L23.5617 46.9489V47.3757H24.0021L29.5072 48.0159V52.4974V52.9242H29.9476H36.5537V60.3933V61.0335L37.2143 60.8201L44.0406 58.0458L45.3618 64.2346V64.8748L45.8022 64.6614L51.3072 61.8871L52.6285 65.9418L52.8487 66.3686L53.2891 66.1552L59.6749 63.8078L61.877 68.5026L62.0972 68.9295L62.5376 68.716L68.9235 65.3016L73.3275 68.5026L73.5477 68.716L73.7679 68.5026C73.7679 68.5026 75.0891 67.2222 77.071 63.5944C80.8144 73.1975 71.7861 84.7213 66.7214 88.9894ZM88.7417 52.7108C89.8427 55.485 90.9437 58.8995 90.9437 58.8995L91.3842 60.3933L91.8246 58.8995C91.8246 58.8995 93.1458 52.9242 94.9074 50.7901C96.8892 52.9242 99.9721 58.8995 100.192 58.8995L101.073 58.6861C101.073 58.6861 101.073 54.418 103.495 51.6437C104.156 52.284 104.596 52.9242 105.257 53.7778C106.798 55.6984 108.34 57.619 110.101 57.619H110.542V57.1922C110.542 53.5644 111.202 51.8571 111.643 51.2169L116.047 55.485C116.707 56.3386 115.166 64.6614 112.964 67.649C110.542 62.9541 108.34 59.7531 107.459 58.8995L107.239 58.6861L107.019 58.8995C106.578 59.3263 106.358 60.1799 106.138 61.4603C105.697 63.1675 105.037 65.515 103.716 66.7954C102.394 65.3016 101.513 63.8078 101.073 62.5273C100.412 61.2469 99.9721 60.3933 99.0912 59.5397L98.6508 59.1129L98.4306 59.5397C97.5498 61.0335 97.1094 62.5273 96.8892 63.8078C96.669 64.8748 96.2286 65.7284 95.7882 66.3686L90.7235 62.1005L89.6225 61.0335L88.7417 60.1799V61.2469C88.7417 64.6614 88.5215 66.3686 88.3013 67.0088C87.2003 65.9418 84.5579 63.1675 83.2366 58.4727C84.1175 57.619 87.2003 55.2716 88.7417 52.7108ZM86.3195 47.1623C86.3195 48.8695 86.3195 49.9365 85.8791 50.5767C85.6589 50.7901 85.4387 50.7901 84.9983 50.7901C84.9983 48.8695 85.6589 47.8025 86.0993 47.3757C86.0993 47.3757 86.3195 47.3757 86.3195 47.1623ZM91.1639 37.7725C94.0266 33.5044 97.9902 24.9683 90.9437 15.1517C89.4023 13.6578 88.5215 13.231 87.8609 13.231L87.4205 11.3104V10.8836H86.9801C86.3195 10.8836 83.2366 11.7372 81.475 12.3774C81.2548 11.7372 81.2548 10.6702 81.9154 9.81658C82.7962 8.74956 84.7781 8.53616 87.8609 8.96296C88.9619 8.96296 89.1821 8.10935 89.4023 7.25573C89.6225 6.61552 89.8427 5.7619 90.5033 4.90829C92.265 2.56085 94.6872 2.56085 97.77 3.20106C100.412 3.84127 105.257 5.76191 107.679 7.89594C111.423 11.097 112.083 14.9383 112.083 18.3527C110.542 17.7125 109.441 17.4991 108.78 17.9259C108.12 18.1393 107.679 18.9929 107.459 20.06C106.138 26.4621 107.239 33.291 110.542 39.0529C113.845 44.388 114.726 48.2293 114.946 50.5767C114.285 49.7231 113.625 48.8695 113.184 48.0159C112.303 46.522 111.643 45.2416 110.542 45.2416H110.322V45.0282C109.221 46.9489 108.12 49.2963 108.34 51.6437C105.918 50.7901 103.716 49.2963 103.716 44.6014L102.835 44.388L101.954 46.3086C101.073 48.8695 99.9721 51.4303 99.3114 52.7108C96.8892 47.8025 95.3478 46.522 94.6872 45.6684L94.2468 45.0282L94.0266 45.455C93.366 46.7355 92.7054 47.5891 92.265 48.4427C91.6044 49.5097 91.1639 50.3633 90.9437 51.2169C89.4023 48.8695 88.9619 48.2293 88.9619 48.2293C88.7417 48.0159 86.5397 44.1746 91.1639 37.7725ZM189.595 80.4533C186.071 78.3192 183.869 72.7707 183.869 65.9418C190.255 66.3686 194.879 65.3016 197.522 62.7407C200.825 59.3263 200.164 53.7778 199.284 49.9365L198.843 48.8695L198.182 49.5097C195.54 52.0705 193.118 52.9242 191.136 52.2839C186.512 50.3633 184.97 38.8395 184.97 34.9982C184.53 25.3951 180.786 18.1393 174.841 14.9383C169.997 12.164 163.831 12.164 158.106 14.9383C154.582 16.6455 152.38 19.2063 151.279 22.6208C149.738 27.9559 151.72 34.5714 154.142 38.6261C142.031 48.0159 121.332 45.8818 118.249 45.455C114.505 38.8395 112.524 31.7972 112.524 24.328V24.1146C112.524 23.261 112.744 22.6208 113.184 22.4074C114.505 21.7672 117.808 23.4744 118.91 24.1146L119.35 23.4744C119.35 23.4744 116.487 20.9136 112.303 9.60317C109.661 4.05467 102.174 1.70723 99.0912 0.853616C97.5498 0.213404 96.0084 0 94.6872 0H94.467C90.9437 0 88.5215 1.92063 86.7599 5.7619C86.5397 6.18871 84.9983 6.18871 83.8973 6.40212C82.1356 6.40212 80.1538 6.61552 79.273 7.68254C76.6306 10.4568 78.8326 16.6455 79.0528 16.8589L79.273 17.2857L79.7134 17.0723C79.7134 17.0723 84.3377 14.2981 87.8609 16.0053C90.2831 17.2857 91.6044 20.2734 91.8246 25.1817C91.8246 29.2363 88.3013 35.8519 81.2548 45.455C78.3922 45.8818 57.9133 48.2293 45.8022 38.6261C48.2244 34.5714 50.2062 27.9559 48.6648 22.6208C47.5638 19.2063 45.3618 16.6455 41.8385 14.9383C36.5537 12.3774 30.388 12.5908 25.1031 15.5785C18.2768 19.6332 14.3132 28.1693 14.3132 38.8395C14.3132 42.0406 12.5516 51.4303 8.1475 52.9242C6.16568 53.5644 3.74345 52.4974 1.10101 49.5097L0.660609 48.8695L0.440406 49.7231C-0.440405 54.2046 0.440407 60.1799 4.18385 63.8078C6.16568 65.7284 10.1293 67.649 16.295 66.1552C16.0748 72.9841 14.093 78.5326 10.5697 80.6667C8.1475 81.9471 5.28487 81.9471 2.20203 80.2399L1.32122 79.813L1.54142 80.6667C2.64243 87.0688 5.06466 91.1235 8.80811 92.4039C13.8728 94.1111 21.3597 90.91 30.6082 82.8007C28.186 93.0441 25.3233 104.568 18.497 107.982C15.194 109.69 11.4505 109.476 6.82629 107.556L6.16568 107.342L6.38588 107.982C7.7071 116.732 10.7899 122.707 15.4142 125.055C18.497 126.548 22.2405 126.335 26.4243 124.201C37.2143 118.439 43.1597 100.94 43.3799 100.3C43.3799 99.873 43.6001 99.6596 43.6001 99.2328L43.8204 99.4462C45.582 101.153 48.0042 102.007 50.6466 101.58C54.1699 101.153 57.2527 98.806 59.2345 95.3915C60.3356 93.0441 61.2164 90.91 62.0972 89.2028C62.7578 87.709 63.4184 86.4286 63.8588 85.3615C63.4184 88.3492 62.3174 91.1234 60.776 93.6843C60.1154 93.6843 60.1154 94.1111 60.3356 94.5379C61.2164 95.6049 68.0427 92.6173 69.3639 91.3369C69.5841 91.1235 70.0245 91.1235 70.4649 91.3369C71.3457 91.7637 72.2265 93.6843 71.3457 97.3122C70.0245 103.074 68.2629 104.781 66.5012 106.489C65.18 105.208 59.4547 100.513 54.8305 102.22C51.9678 103.287 50.2062 106.702 49.7658 112.25C46.4628 115.451 44.0406 120.787 45.8022 124.414C46.683 126.122 48.885 128.256 54.6103 127.616C54.6103 128.256 54.3901 128.683 54.3901 129.323C54.8305 133.377 56.1517 136.152 58.3537 137.432C60.776 138.926 64.2992 138.713 68.4831 137.005L68.9235 136.792L68.7033 136.365C67.6023 134.444 65.18 130.39 66.281 128.256C66.7214 127.616 67.382 126.975 68.4831 126.762C68.7033 126.975 68.9235 127.189 69.1437 127.616C70.6851 129.323 72.8871 131.884 76.1902 131.03C81.6952 129.75 84.5579 127.402 84.5579 124.201C84.5579 120.573 83.677 116.732 76.8508 113.317C77.071 110.757 78.6124 109.69 81.0346 108.409C83.4568 107.129 86.5397 105.422 88.9619 101.58L89.1821 101.153C89.1821 100.94 89.6225 100.727 89.8427 100.727C90.0629 100.727 90.2831 100.94 90.7235 101.367L91.1639 102.007C94.9074 107.342 96.0084 116.519 94.9074 117.372C94.6872 117.586 94.2468 117.799 93.8064 118.012C91.6044 119.293 87.6407 121.64 87.8609 124.414C88.0811 126.335 89.8427 127.829 93.5862 129.323C94.0266 129.75 94.2468 132.951 92.4852 137.219C90.7235 141.273 87.2003 146.395 77.071 145.328H76.4104L76.6306 145.968C78.6124 152.584 80.8144 155.785 88.0811 155.998C84.3377 158.772 80.1538 160.907 80.1538 160.907L79.9336 161.12V161.333C79.9336 161.333 81.0346 167.522 91.1639 167.735C91.3841 172.217 96.4488 176.272 99.9721 179.046L100.192 179.259L100.412 179.046C103.716 176.272 108.78 172.217 109.221 167.735C119.35 167.522 120.451 161.333 120.451 161.333V161.12L120.231 160.907C120.231 160.907 116.047 158.772 112.303 155.998C119.57 155.571 121.992 152.37 123.754 145.968L123.974 145.328H123.314C113.184 146.395 108.56 141.273 107.019 137.219C105.257 133.164 106.358 129.75 106.798 129.536C110.542 128.042 112.303 126.548 112.524 124.628C112.744 121.854 108.78 119.506 106.578 118.226C106.138 118.012 105.697 117.586 105.477 117.586C104.376 116.732 105.477 107.556 109.221 102.22C109.221 102.22 109.661 101.794 109.661 101.367L110.982 101.58L111.202 101.794C113.625 105.848 116.707 107.342 119.13 108.623C121.772 109.903 123.534 110.757 123.534 113.744C116.928 117.159 115.827 121 115.827 124.628C115.827 127.829 118.689 130.176 124.194 131.457C127.497 132.097 129.699 129.536 131.241 128.042C131.461 127.829 131.681 127.402 131.901 127.189C133.002 127.402 133.883 127.829 134.103 128.683C135.204 130.817 132.562 135.085 131.681 136.792H131.241L131.681 137.005C136.085 138.713 139.609 138.713 142.031 137.219C144.453 135.725 145.774 132.524 145.994 127.829C145.994 127.616 145.994 127.616 145.994 127.616C151.5 128.042 153.702 126.122 154.582 124.414C156.344 120.787 153.922 115.451 150.619 112.25C150.178 106.702 148.417 103.287 145.334 102.22C141.37 100.727 136.085 104.354 133.663 106.489C131.901 104.781 130.36 102.861 128.819 97.3122C127.938 93.6843 128.598 91.9771 129.699 91.3369C130.14 91.1235 130.58 91.1235 130.8 91.3369C132.122 92.6173 138.948 95.6049 139.829 94.7513C140.269 94.3245 139.609 93.6843 139.388 93.2575C137.627 90.91 136.526 87.9224 136.306 85.1481C136.966 86.2152 137.407 87.4956 138.067 88.9894C138.948 90.91 139.829 92.8307 140.93 95.3915C142.912 98.806 146.215 101.153 149.518 101.58C152.16 102.007 154.803 101.153 156.564 99.4462L156.784 99.2328C156.784 99.4462 157.005 99.873 157.005 100.086C157.225 100.94 163.17 118.226 173.96 123.988C178.144 126.122 181.667 126.335 184.97 124.841C189.595 122.494 192.677 116.519 193.999 107.769V106.915L193.338 107.129C188.714 109.049 184.75 109.263 181.667 107.556C174.621 104.141 171.978 92.6173 169.556 82.3739C178.805 90.4832 186.292 93.6843 191.356 91.9771C195.1 90.6966 197.742 86.642 198.623 80.2399V79.3862L197.962 79.813C194.659 81.5203 191.797 81.7337 189.595 80.4533ZM101.954 217.032H101.734L86.3195 217.245L95.3478 197.612C95.3478 197.612 95.7882 195.905 96.8892 197.612L101.954 217.032Z" fill="#343434"/>
</svg>
