<svg width="228" height="475" viewBox="0 0 228 475" fill="none" xmlns="http://www.w3.org/2000/svg">
<path d="M49.024 82.2802V79.4962H51.064V82.1602C51.064 84.8242 49.792 86.1442 47.392 86.1442C44.92 86.1442 43.648 84.7042 43.648 82.1122V73.9042C43.648 71.2402 44.92 69.9202 47.32 69.9202C49.744 69.9202 51.064 71.2402 51.064 73.8802V75.7762H49.024V73.8802C49.024 72.6322 48.472 71.9362 47.392 71.9362C46.336 71.9362 45.784 72.6082 45.784 73.8562V82.2802C45.784 83.5042 46.264 84.1522 47.392 84.1522C48.472 84.1522 49.024 83.5522 49.024 82.2802ZM60.2628 86.0002H58.1747V77.7922C58.1747 76.6642 57.6227 76.1602 56.7107 76.1602C55.6547 76.1602 55.0067 76.8322 54.9587 78.5362V86.0002H52.8947V69.8722H54.9587V75.9202H55.0547C55.4867 74.8402 56.3507 74.3362 57.5267 74.3362C59.5667 74.3362 60.2628 75.8722 60.2628 77.4802V86.0002ZM69.3644 82.0162V82.5442C69.3644 84.9442 68.1884 86.1442 65.7164 86.1442C63.2924 86.1442 62.1404 84.9922 62.1404 82.5442V77.9362C62.1404 75.5122 63.2924 74.3362 65.7404 74.3362C68.1884 74.3362 69.3644 75.5122 69.3644 77.9362V80.7922H64.1564V82.5922C64.1564 83.7442 64.6844 84.3202 65.7164 84.3202C66.7964 84.3202 67.3244 83.7442 67.3244 82.5922V82.0162H69.3644ZM67.3244 79.2562V77.8882C67.3244 76.7362 66.8204 76.1602 65.7404 76.1602C64.6844 76.1602 64.1564 76.7362 64.1564 77.8882V79.2562H67.3244ZM76.3814 82.5442V81.7282H78.3494V82.5442C78.3494 84.9442 77.2934 86.1442 74.8214 86.1442C72.3974 86.1442 71.2454 84.9922 71.2454 82.5442V77.9362C71.2454 75.5122 72.3974 74.3362 74.8454 74.3362C77.2934 74.3362 78.3494 75.5122 78.3494 77.9362V78.7042H76.4054V77.9362C76.4054 76.7602 75.9014 76.2082 74.8454 76.2082C73.7894 76.2082 73.2614 76.7602 73.2614 77.9362V82.5442C73.2614 83.7202 73.7894 84.2722 74.8214 84.2722C75.9014 84.2722 76.3814 83.7202 76.3814 82.5442ZM87.8657 86.0002H85.6817L83.4977 81.0562H83.4257L82.2737 82.6642V86.0002H80.2097V69.8722H82.2737V79.3762H82.3697L85.6577 74.4802H87.9137L84.9857 79.0402L87.8657 86.0002ZM94.7656 74.4802V82.3762C94.7656 83.6002 95.3176 84.1042 96.2776 84.1042C97.1896 84.1042 97.6696 83.6242 97.9816 82.2802V74.4802H99.9736V87.9922C99.9736 90.4162 98.7736 91.5922 96.3256 91.5922C93.8776 91.5922 92.7496 90.4162 92.7496 87.9922V86.7202H94.7176V87.9922C94.7176 89.1682 95.2456 89.7202 96.3016 89.7202C97.3816 89.7202 97.9096 89.1682 97.9096 87.9922V84.4162H97.8136C97.3096 85.5922 96.5176 86.0002 95.3656 86.0002C93.3496 86.0002 92.6776 84.7762 92.6776 82.9762V74.4802H94.7656ZM109.053 77.9362V82.5442C109.053 85.0162 107.901 86.1442 105.453 86.1442C103.005 86.1442 101.853 85.0162 101.853 82.5442V77.9362C101.853 75.4642 103.005 74.3362 105.453 74.3362C107.901 74.3362 109.053 75.4642 109.053 77.9362ZM107.037 82.5442V77.9362C107.037 76.7602 106.509 76.2082 105.453 76.2082C104.397 76.2082 103.869 76.7602 103.869 77.9362V82.5442C103.869 83.7202 104.397 84.2722 105.453 84.2722C106.509 84.2722 107.037 83.7202 107.037 82.5442ZM110.934 74.4802H113.022V82.5442C113.022 83.8402 113.478 84.3202 114.51 84.3202C115.542 84.3202 115.902 83.8402 116.19 82.4482V74.4802H118.254V86.0002H116.31L116.262 84.3442H116.166C115.638 85.6402 114.894 86.1442 113.622 86.1442C111.654 86.1442 110.934 84.8722 110.934 82.5202V74.4802ZM122.197 86.0002H120.133V74.4802H122.053L122.125 76.4482H122.221C122.677 75.1042 123.517 74.3362 124.717 74.3362C125.053 74.3362 125.365 74.4082 125.677 74.5762V76.4722C125.461 76.3282 125.077 76.2322 124.597 76.2322C123.325 76.2322 122.581 76.8802 122.197 78.9202V86.0002ZM137.641 78.0322H135.697V77.3602C135.697 76.5202 135.241 76.0642 134.161 76.0642C133.129 76.0642 132.577 76.4722 132.577 77.1922V77.5522C132.577 78.0322 132.721 78.2722 133.417 78.7042C134.497 79.3762 135.577 79.6882 136.513 80.3122C137.305 80.8402 137.761 81.4402 137.761 82.6162V83.1442C137.761 85.1602 136.657 86.1442 134.209 86.1442C131.593 86.1442 130.489 85.0402 130.489 83.0002V82.3042H132.457V83.0722C132.457 83.9842 132.913 84.4402 134.113 84.4402C135.241 84.4402 135.721 84.0322 135.721 83.1682V82.7122C135.721 82.2322 135.577 81.8482 134.713 81.3682C134.569 81.2962 132.337 80.1442 131.641 79.6162C130.873 79.0402 130.609 78.3682 130.609 77.5762V77.0002C130.609 75.4162 131.857 74.3362 134.089 74.3362C136.465 74.3362 137.641 75.5362 137.641 77.4562V78.0322ZM147.182 86.0002H144.998L142.814 81.0562H142.742L141.59 82.6642V86.0002H139.526V69.8722H141.59V79.3762H141.686L144.974 74.4802H147.23L144.302 79.0402L147.182 86.0002ZM150.742 86.0002H148.678V74.4802H150.742V86.0002ZM150.742 73.0642H148.678V70.4722H150.742V73.0642ZM154.668 86.0002H152.604V69.8722H154.668V86.0002ZM158.593 86.0002H156.529V69.8722H158.593V86.0002ZM167.51 78.0322H165.566V77.3602C165.566 76.5202 165.11 76.0642 164.03 76.0642C162.998 76.0642 162.446 76.4722 162.446 77.1922V77.5522C162.446 78.0322 162.59 78.2722 163.286 78.7042C164.366 79.3762 165.446 79.6882 166.382 80.3122C167.174 80.8402 167.63 81.4402 167.63 82.6162V83.1442C167.63 85.1602 166.526 86.1442 164.078 86.1442C161.462 86.1442 160.358 85.0402 160.358 83.0002V82.3042H162.326V83.0722C162.326 83.9842 162.782 84.4402 163.982 84.4402C165.11 84.4402 165.59 84.0322 165.59 83.1682V82.7122C165.59 82.2322 165.446 81.8482 164.582 81.3682C164.438 81.2962 162.206 80.1442 161.51 79.6162C160.742 79.0402 160.478 78.3682 160.478 77.5762V77.0002C160.478 75.4162 161.726 74.3362 163.958 74.3362C166.334 74.3362 167.51 75.5362 167.51 77.4562V78.0322ZM171.723 86.0002H169.635V83.1202H171.723V86.0002ZM171.459 81.3442H169.947C169.731 79.2082 169.563 76.9762 169.563 74.6482V70.0642H171.843V73.9522C171.843 76.5442 171.699 79.0162 171.459 81.3442Z" fill="#5E5E5E"/>
<g clip-path="url(#clip0_2171_8451)">
<path d="M61.7373 462.345H90.7844V466.553C90.7844 471.219 84.2843 475.001 76.2594 475.001C68.2345 475.001 61.7344 471.219 61.7344 466.553C61.7344 466.515 61.7373 466.475 61.7373 466.437V462.345Z" fill="#146D63"/>
<path d="M113.938 366.442C116.224 376.714 128.016 411.876 135.939 410.116C143.859 408.359 145.436 370.45 142.628 360.076C140.2 351.136 133.084 346.533 125.163 348.291C117.24 350.048 111.931 357.4 113.941 366.442H113.938Z" fill="#1CA798"/>
<path d="M61.7344 462.403C61.7344 467.066 68.2374 470.848 76.2623 470.848C84.2872 470.848 90.7873 467.066 90.7873 462.403C90.7873 457.74 84.2843 453.958 76.2623 453.958C68.2403 453.958 61.7344 457.737 61.7344 462.403Z" fill="#146D64"/>
<path d="M11.6113 356.446C11.6113 392.142 40.5916 466.895 76.3422 466.895C112.093 466.895 141.079 392.145 141.079 356.446C141.079 325.024 112.096 317.449 76.3422 317.449C40.5887 317.449 11.6113 325.024 11.6113 356.446Z" fill="#C6A9DE"/>
<path d="M11.6113 356.446C11.6113 392.142 40.5917 466.895 76.3422 466.895C112.093 466.895 141.079 392.145 141.079 356.446C141.079 325.024 112.096 317.449 76.3422 317.449C40.5887 317.449 11.6113 325.024 11.6113 356.446Z" fill="#188F82"/>
<path opacity="0.58" d="M18.9727 349.331C18.9727 367.764 44.6797 382.705 76.3873 382.705C108.095 382.705 133.793 367.761 133.793 349.331C133.793 330.902 108.086 315.958 76.3873 315.958C44.6884 315.958 18.9727 330.896 18.9727 349.331Z" fill="#7FD7CD"/>
<path opacity="0.65" d="M19.7617 349.082C19.7617 367.268 45.126 382.012 76.4125 382.012C107.699 382.012 133.052 367.268 133.052 349.082C133.052 330.896 107.687 316.153 76.4125 316.153C45.1376 316.153 19.7617 330.89 19.7617 349.082Z" fill="#7FD7CD"/>
<path opacity="0.73" d="M20.5488 348.83C20.5488 366.769 45.5704 381.316 76.4357 381.316C107.301 381.316 132.311 366.772 132.311 348.83C132.311 330.887 107.289 316.344 76.4357 316.344C45.582 316.344 20.5488 330.882 20.5488 348.83Z" fill="#7FD7CD"/>
<path opacity="0.8" d="M21.3398 348.58C21.3398 366.276 46.0187 380.62 76.46 380.62C106.901 380.62 131.571 366.273 131.571 348.58C131.571 330.888 106.892 316.541 76.46 316.541C46.0274 316.541 21.3398 330.882 21.3398 348.58Z" fill="#7FD7CD"/>
<path d="M0 290.633C0 332.544 34.0253 366.517 76 366.517C117.975 366.517 152 332.544 152 290.633C152 248.722 117.975 214.751 76 214.751C34.0253 214.751 0 248.725 0 290.633Z" fill="#1AAF9F"/>
<path d="M145.858 297.343C129.941 316.588 107.572 329.409 82.8986 333.416C76.2591 334.498 70.2266 329.377 70.2266 322.655V302.862C70.2266 294.026 76.0151 286.231 84.4815 283.661C102.326 278.256 118.53 268.468 131.612 255.195C134.705 252.054 140.017 252.762 142.079 256.656C146.305 264.637 149.125 273.471 150.209 282.835C150.813 288.052 149.206 293.295 145.858 297.343Z" fill="#055151"/>
<path d="M126.172 288.113C126.172 291.7 128.71 293.147 131.841 291.343C134.972 289.537 137.514 285.163 137.514 281.576C137.514 277.989 134.972 276.545 131.841 278.351C128.71 280.155 126.172 284.528 126.172 288.113Z" fill="#2AF6FF"/>
<path d="M93.543 306.948C93.543 310.539 96.0814 311.986 99.2124 310.179C102.346 308.375 104.882 304.002 104.882 300.418C104.882 296.833 102.346 295.383 99.2124 297.187C96.0814 298.991 93.543 303.364 93.543 306.948Z" fill="#2AF6FF"/>
<path d="M13.4902 397.286C13.4902 407.039 21.4077 414.944 31.1782 414.944C40.9486 414.944 48.8603 407.039 48.8603 397.286C48.8603 387.534 40.9457 379.628 31.1782 379.628C21.4106 379.628 13.4902 387.534 13.4902 397.286Z" fill="#146D64"/>
<path d="M15.3741 405.113C17.6163 418.392 36.2975 447.572 44.2179 445.814C52.1382 444.057 45.0718 408.114 42.786 397.845C40.7732 388.806 33.2392 384.302 25.3188 386.06C17.3985 387.817 13.8289 395.981 15.3712 405.113H15.3741Z" fill="#8D6CC3"/>
<path d="M15.3741 405.113C17.6163 418.392 36.2975 447.572 44.2179 445.814C52.1382 444.057 45.0718 408.114 42.786 397.845C40.7732 388.806 33.2392 384.302 25.3188 386.06C17.3985 387.817 13.8289 395.981 15.3712 405.113H15.3741Z" fill="#1AAF9F"/>
<path opacity="0.2" d="M17.0106 406.496C20.2577 422.031 36.2814 442.676 38.7734 442.195C41.2683 441.711 27.0309 420.894 24.2659 409.86C22.0149 400.873 24.1671 391.735 21.6751 391.233C14.5593 389.798 15.1169 397.431 17.0077 406.496H17.0106Z" fill="#23887D"/>
<path d="M53.543 225.464H99.0233V228.767H99.0146C99.0146 228.828 99.0233 228.889 99.0233 228.953C99.0233 236.252 88.8404 242.171 76.2817 242.171C63.723 242.171 53.543 236.252 53.543 228.953C53.543 228.892 53.5488 228.831 53.5517 228.767H53.543V225.464Z" fill="#188F82"/>
<path d="M53.541 225.556C53.541 232.859 63.7239 238.777 76.2855 238.777C88.8472 238.777 99.0243 232.859 99.0243 225.556C99.0243 218.254 88.8414 212.335 76.2855 212.335C63.7297 212.335 53.541 218.251 53.541 225.556Z" fill="#1B998B"/>
<path d="M72.8848 194.225H79.684V224.156C79.684 225.246 78.1621 226.131 76.2829 226.131C74.4038 226.131 72.8848 225.246 72.8848 224.156V194.225Z" fill="#188F82"/>
<path d="M66.1777 195.089C66.1777 200.663 70.6999 205.178 76.2822 205.178C81.8645 205.178 86.3896 200.663 86.3896 195.089C86.3896 189.516 81.8645 185 76.2822 185C70.6999 185 66.1777 189.516 66.1777 195.089Z" fill="#1AAF9F"/>
<path d="M128.736 334.533L134.197 325.125C135.277 323.264 134.144 321.86 132.704 323.278L125.231 330.621C123.195 332.622 120.976 333.901 118.943 334.246L111.472 335.516C110.029 335.76 108.896 338.471 109.979 339.089L115.44 342.198C119.111 344.289 125.065 340.855 128.733 334.533H128.736Z" fill="#055151"/>
</g>
<path d="M85.4264 152.704C65.5824 153.471 47.5996 148.857 34.6998 139.263C22.1747 129.951 15.2341 116.869 14.6373 101.423C13.1358 62.569 53.582 20.0438 104.818 6.65008C134.622 -1.15404 163.455 2.37933 181.903 16.0875C194.428 25.3998 201.346 38.4828 201.943 53.9288C203.444 92.7827 162.998 135.308 111.762 148.702C102.803 151.053 93.9407 152.375 85.4037 152.705L85.4264 152.704ZM131.508 9.44611C123.447 9.75758 115.037 11.0166 106.528 13.2364C58.2415 25.8782 20.0633 65.3086 21.4487 101.16C21.963 114.467 27.9469 125.741 38.7399 133.776C55.5492 146.272 82.2058 149.388 110.029 142.093C158.338 129.451 196.493 90.0213 195.109 54.1929C194.595 40.8852 188.611 29.6115 177.818 21.5764C166.159 12.9141 149.763 8.76344 131.508 9.46885L131.508 9.44611Z" fill="#1B998B"/>
<path d="M192.212 168.774C187.017 170.276 181.957 170.198 177.755 168.427C173.553 166.655 170.551 163.305 169.293 158.953C166.284 148.543 173.777 135.026 186.363 128.165C193.781 124.125 201.454 123.258 207.453 125.766C211.655 127.537 214.657 130.887 215.915 135.239C218.924 145.649 211.431 159.166 198.845 166.027C196.639 167.234 194.417 168.137 192.212 168.774ZM194.849 131.992C193.124 132.491 191.369 133.211 189.612 134.169C180.048 139.375 173.74 149.871 175.819 157.067C176.508 159.45 178.044 161.163 180.358 162.129C184.369 163.814 190.053 163.023 195.552 160.036C205.116 154.83 211.431 144.355 209.345 137.138C208.656 134.755 207.12 133.042 204.807 132.076C202.062 130.926 198.538 130.926 194.827 131.998L194.849 131.992Z" fill="#1B998B"/>
<path d="M206.201 214.385C202.534 215.445 198.963 215.39 195.998 214.14C193.032 212.89 190.913 210.526 190.025 207.454C187.902 200.107 193.19 190.568 202.073 185.726C207.308 182.875 212.723 182.263 216.957 184.032C219.922 185.283 222.041 187.647 222.929 190.718C225.053 198.065 219.764 207.605 210.882 212.447C209.325 213.298 207.757 213.935 206.201 214.385ZM208.061 188.427C206.844 188.778 205.606 189.287 204.366 189.963C197.616 193.637 193.164 201.045 194.632 206.123C195.118 207.805 196.202 209.014 197.834 209.696C200.665 210.884 204.677 210.327 208.558 208.218C215.308 204.545 219.764 197.152 218.292 192.059C217.806 190.376 216.722 189.168 215.089 188.486C213.152 187.674 210.665 187.674 208.046 188.431L208.061 188.427Z" fill="#1B998B"/>
<path d="M193.168 263.747C190.44 264.536 187.774 264.477 185.51 263.52C183.112 262.507 181.398 260.585 180.677 258.092C179.11 252.668 182.824 245.718 189.161 242.275C192.94 240.211 196.934 239.791 200.132 241.117C202.53 242.13 204.245 244.052 204.965 246.545C206.533 251.969 202.818 258.92 196.481 262.363C195.4 262.96 194.281 263.425 193.19 263.741L193.168 263.747ZM194.327 247.464C193.738 247.634 193.08 247.895 192.388 248.285C188.69 250.302 186.603 254.128 187.204 256.205C187.349 256.708 187.625 257.008 188.113 257.222C189.082 257.629 190.924 257.618 193.189 256.371C196.887 254.354 198.974 250.528 198.373 248.451C198.228 247.948 197.952 247.648 197.464 247.434C196.792 247.154 195.702 247.066 194.327 247.464Z" fill="#1B998B"/>
<defs>
<clipPath id="clip0_2171_8451">
<rect width="152" height="290" fill="white" transform="translate(0 185)"/>
</clipPath>
</defs>
</svg>
