<svg width="42" height="42" viewBox="0 0 42 42" fill="none" xmlns="http://www.w3.org/2000/svg">
<path d="M1 21C1 9.95431 9.95431 1 21 1C32.0457 1 41 9.95431 41 21C41 32.0457 32.0457 41 21 41C9.95431 41 1 32.0457 1 21Z" fill="#7FD7CD" fill-opacity="0.25" stroke="#188F82"/>
<ellipse cx="21" cy="16.5" rx="9" ry="8.5" fill="#188F82"/>
<path fill-rule="evenodd" clip-rule="evenodd" d="M34.9426 35.0812C34.999 35.1786 34.9814 35.3016 34.9005 35.3798C31.3018 38.8592 26.4009 41.0001 20.9999 41.0001C15.599 41.0001 10.698 38.8592 7.09943 35.3798C7.01852 35.3016 7.00085 35.1786 7.05723 35.0812C9.60107 30.6871 14.889 27.6667 20.9999 27.6667C27.1109 27.6667 32.3988 30.6871 34.9426 35.0812Z" fill="#188F82"/>
</svg>
