<svg width="17" height="16" viewBox="0 0 17 16" fill="none" xmlns="http://www.w3.org/2000/svg">
<path d="M2.11 0H0.91C0.822 0 0.75 0.0857143 0.75 0.190476V15.8095C0.75 15.9143 0.822 16 0.91 16H2.11C2.198 16 2.27 15.9143 2.27 15.8095V0.190476C2.27 0.0857143 2.198 0 2.11 0ZM16.59 0H15.39C15.302 0 15.23 0.0857143 15.23 0.190476V15.8095C15.23 15.9143 15.302 16 15.39 16H16.59C16.678 16 16.75 15.9143 16.75 15.8095V0.190476C16.75 0.0857143 16.678 0 16.59 0ZM14.216 7.81667L11.664 5.41905C11.6426 5.39905 11.617 5.38662 11.59 5.38318C11.563 5.37974 11.5357 5.38543 11.5113 5.39959C11.4868 5.41376 11.4663 5.43582 11.4519 5.46327C11.4375 5.49071 11.4299 5.52242 11.43 5.55476V7.14286H6.07V5.64762C6.07 5.50476 5.93 5.42381 5.836 5.5119L3.284 7.9119C3.26673 7.92779 3.25275 7.94817 3.24313 7.97149C3.23351 7.99481 3.22851 8.02045 3.22851 8.04643C3.22851 8.07241 3.23351 8.09804 3.24313 8.12136C3.25275 8.14468 3.26673 8.16507 3.284 8.18095L5.834 10.581C5.928 10.669 6.068 10.5905 6.068 10.4452V8.85714H11.428V10.3524C11.428 10.4952 11.568 10.5762 11.662 10.4881L14.212 8.0881C14.288 8.01905 14.288 7.88571 14.216 7.81667Z" fill="#343434"/>
</svg>
