<svg width="565" height="510" viewBox="0 -95 518 510" fill="none" xmlns="http://www.w3.org/2000/svg">
<!--<svg width="518" height="406" viewBox="0 0 518 406" fill="none" xmlns="http://www.w3.org/2000/svg">-->
<path class="innerCircle" d="M258.81 133.844C322.398 134 379.833 147.901 421.279 170.15C462.81 192.446 487.815 222.828 487.735 255.807C487.655 288.786 462.501 319.045 420.862 341.137C379.308 363.183 321.806 376.802 258.218 376.646C194.63 376.491 137.195 362.59 95.7493 340.34C54.2183 318.045 29.2126 287.663 29.293 254.684C29.3734 221.705 54.5268 191.446 96.1661 169.354C137.72 147.308 195.222 133.689 258.81 133.844Z" stroke="#01BDB1" stroke-width="4"/>
<g class="shadow">
    <path class="" d="M393.16 256.214C393.281 213.089 333.165 177.96 258.888 177.752C184.612 177.544 124.301 212.336 124.181 255.461C124.061 298.586 184.177 333.714 258.453 333.922C332.73 334.13 393.04 299.339 393.16 256.214Z" fill="#188F82"/>
</g>
<path class="outerCircle" d="M259.383 392.03C226.773 392.03 195.002 388.443 164.931 381.378C134.04 374.112 106.389 363.49 82.7256 349.801C59.5524 336.383 41.7176 320.91 29.7112 303.804C18.6445 288.03 13.0261 271.535 12.9961 254.76C12.9762 238.114 18.4745 221.74 29.3413 206.097C41.1278 189.141 58.7026 173.788 81.5559 160.47C105.049 146.781 132.571 136.168 163.372 128.903C193.353 121.828 225.083 118.25 257.694 118.25C290.304 118.25 322.065 121.838 352.146 128.903C383.037 136.168 410.689 146.791 434.352 160.49C457.525 173.898 475.37 189.381 487.366 206.487C498.433 222.261 504.051 238.756 504.081 255.531C504.101 272.187 498.603 288.551 487.736 304.194C475.939 321.15 458.375 336.503 435.521 349.821C412.018 363.51 384.496 374.133 353.706 381.388C323.714 388.453 291.984 392.04 259.383 392.04V392.03ZM257.704 120.485C225.273 120.485 193.713 124.053 163.892 131.078C133.311 138.283 105.989 148.825 82.6855 162.394C60.1122 175.542 42.7874 190.674 31.1808 207.369C20.5739 222.622 15.2055 238.565 15.2355 254.74C15.2555 271.044 20.7438 287.108 31.5407 302.501C43.3572 319.346 60.952 334.599 83.8452 347.847C107.318 361.426 134.77 371.978 165.451 379.183C195.342 386.218 226.953 389.776 259.383 389.776C291.814 389.776 323.374 386.208 353.196 379.183C383.767 371.978 411.089 361.436 434.402 347.857C456.975 334.709 474.3 319.577 485.906 302.892C496.513 287.639 501.882 271.696 501.852 255.511C501.832 239.207 496.343 223.143 485.547 207.76C473.73 190.914 456.135 175.662 433.242 162.414C409.779 148.835 382.317 138.283 351.646 131.068C321.735 124.033 290.134 120.475 257.714 120.475L257.704 120.485Z" fill="#23B9A8"/>
<g class="brain">
    <path d="M105.559 173.264C103.877 189.374 124.26 193.179 127.112 206.303C129.965 219.379 149.958 225.809 155.566 202.86C161.174 179.911 347.011 33.3061 347.011 33.3061C347.011 33.3061 331.529 20.6877 319.143 8.55095C307.171 -3.15236 283.253 0.965468 263.674 1.32668C247.68 1.61565 234.66 -2.45403 220.641 2.38623C207.767 6.84119 192.041 26.0337 181.996 32.6318C169.341 40.9638 167.562 31.5 155.761 44.2147C151.957 48.3085 155.517 50.2109 151.518 54.8344C142.863 64.8521 125.43 74.966 117.043 86.9583C111.801 94.4475 114.141 107.427 110.996 115.566C103.487 134.952 107.729 152.579 105.559 173.288V173.264Z" fill="#23B9A8"/><path d="M127.551 184.703C125.966 201.078 145.179 204.931 147.861 218.296C150.543 231.589 169.39 238.114 174.681 214.804C179.972 191.494 355.106 42.4332 355.106 42.4332C355.106 42.4332 340.525 29.5981 328.847 17.2687C317.582 5.37271 295.029 9.56278 276.572 9.92399C261.504 10.213 249.24 6.07104 236.001 11.0076C223.859 15.5348 209.035 35.0404 199.575 41.7589C187.652 50.2354 185.97 40.603 174.827 53.5345C171.243 57.7005 174.608 59.6269 170.829 64.3227C162.661 74.5089 146.228 84.7915 138.328 96.9764C133.403 104.586 135.597 117.782 132.623 126.066C125.552 145.764 129.551 163.68 127.502 184.751L127.551 184.703Z" fill="#1B998B"/>
    <path d="M156.03 227.494C159.102 233.105 162.442 240.931 174.706 241.605C189.432 242.4 215.18 262.556 233.636 262.556C258.433 262.556 262.431 253.766 273.354 252.562C286.179 251.141 304.831 252.659 316.559 248.3C328.286 243.965 333.114 233.779 349.157 225.014C362.884 217.525 377.976 201.848 385.632 191.541C398.042 174.829 415.719 175.865 408.795 155.829C406.113 148.027 416.572 137.407 415.597 126.402C414.866 118.263 408.161 110.124 406.43 103.261C404.893 97.1201 405.747 93.1949 403.601 87.9934C398.384 75.4955 389.826 73.4967 382.731 65.7909C370.71 52.739 384.779 46.4057 353.936 33.5706C336.747 26.4186 300.637 26.5872 271.94 41.1079C246.754 53.8467 199.722 87.1265 176.071 129.822C153.786 170.061 145.667 208.542 156.078 227.542L156.03 227.494Z" fill="#23B9A8"/>
    <path d="M130.965 205.292C125.016 205.292 119.969 201.174 116.823 197.731C114.995 195.732 114.02 193.396 114.361 191.759C114.458 191.229 114.775 190.434 116.238 189.76C117.214 189.302 118.091 189.11 118.993 189.11C120.749 189.11 122.407 189.856 123.553 191.132C124.869 192.601 126.966 194.576 129.819 194.576C131.916 194.576 133.817 193.468 134.89 191.638C138.133 186.148 133.525 172.47 130.038 166.329C125.211 157.853 124.431 147.787 127.966 139.407C131.257 131.604 138.06 125.97 147.154 123.489C150.982 122.454 158.809 121.924 158.809 121.924C162.295 122.02 164.563 124.332 164.587 126.572C164.587 129.678 160.077 131.243 158.053 131.243C155.59 131.243 152.762 131.677 149.69 132.495C141.717 134.663 138.231 139.407 136.719 142.995C134.329 148.654 134.939 155.854 138.304 161.754C143.936 171.627 148.617 185.666 144.936 195.443C143.302 199.753 140.059 202.956 135.768 204.449C134.159 205.027 132.55 205.292 130.965 205.292Z" fill="#1B998B"/>
    <path d="M110.192 172.253C108.631 172.253 106.534 171.434 105.754 169.171C103.901 163.825 102.926 157.973 102.828 151.76C102.731 144.825 104.145 138.203 107.022 132.086C107.924 130.16 109.802 129.461 111.265 129.461C112.118 129.461 113.41 129.678 114.532 130.762C116.019 132.158 116.433 134.278 115.604 136.035C113.337 140.9 112.215 146.149 112.289 151.64C112.362 156.769 113.142 161.585 114.629 165.968C115.288 167.967 114.702 170.038 113.118 171.266C112.045 172.109 110.923 172.277 110.192 172.277V172.253Z" fill="#1B998B"/>
    <path d="M124.382 114.531C123.602 114.531 122.431 114.338 121.383 113.447C120.212 112.46 119.627 111.039 119.749 109.546C119.871 108.029 120.725 106.681 122.065 105.886C130.038 101.142 139.084 98.7581 148.959 98.7581C152.543 98.7581 156.273 99.0952 160.028 99.7454C161.759 100.034 163.392 100.203 164.929 100.203C171.585 100.203 174.315 97.4095 175.34 95.772C177.119 92.9305 176.827 89.1739 174.608 86.1878C172.877 83.852 167.732 78.4579 157.638 78.4579C156.395 78.4579 155.103 78.5301 153.81 78.6987C149.763 79.2044 145.74 80.288 141.815 81.9255C141.278 82.1422 140.693 82.2626 140.108 82.2626C138.621 82.2626 137.207 81.5402 136.304 80.3362C135.402 79.1321 135.134 77.6632 135.524 76.2906C135.914 74.918 136.89 73.8103 138.206 73.2805C142.887 71.354 147.715 70.0537 152.591 69.4516C154.322 69.2349 156.054 69.1145 157.712 69.1145C172.438 69.1145 180.191 77.9281 182.215 80.6492C186.75 86.7176 187.213 94.5921 183.41 100.709C179.85 106.416 173.218 109.57 164.782 109.57C162.734 109.57 160.589 109.378 158.419 108.992C155.249 108.439 152.128 108.174 149.08 108.174C138.913 108.174 131.501 111.28 127.039 113.881C126.235 114.362 125.308 114.603 124.406 114.603L124.382 114.531Z" fill="#1B998B"/>
    <path d="M221.933 62.5885C221.153 62.5885 220.007 62.3959 218.934 61.5049C205.28 50.3795 198.185 40.0006 198.941 32.3188C199.648 25.2631 203.135 19.9172 208.547 17.6777C210.376 16.9071 212.351 16.5218 214.375 16.5218C218.836 16.5218 223.518 18.376 227.931 21.8677L229.662 23.2644C236.952 29.1161 241.56 32.2466 245.315 32.2466C245.754 32.2466 246.144 32.1984 246.534 32.1262C248.704 31.7409 250.85 29.8385 252.849 26.4672C253.458 25.4317 253.751 24.5166 253.751 23.5534V23.1681L253.678 22.7828C253.483 21.651 252.995 18.665 245.266 13.7284C243.34 12.5003 242.535 10.0922 243.364 8.02122C244.096 6.21515 245.876 5.01111 247.802 5.01111C248.68 5.01111 249.484 5.25192 250.216 5.70946C254.653 8.52692 260.358 13.1023 262.407 18.9539C263.845 23.0959 263.382 27.2378 261.017 31.2111C257.555 37.0146 253.239 40.4341 248.192 41.3251C247.29 41.4936 246.363 41.5659 245.437 41.5659C237.488 41.5659 230.15 35.6901 223.688 30.4887L222.03 29.1642C218.446 26.3227 215.667 25.8892 214.35 25.8892H213.619L212.717 26.106L211.571 26.4431L210.717 27.2618C209.474 28.4659 208.669 30.5609 208.401 33.2098L208.352 33.6914L208.401 34.173C209.059 40.5545 221.372 51.2223 225.127 54.3288C226.956 55.8459 227.297 58.5911 225.858 60.5657C224.956 61.842 223.542 62.5644 221.957 62.5644L221.933 62.5885Z" fill="#1B998B"/>
    <path d="M197.234 72.9191C195.844 72.9191 194.552 72.293 193.65 71.2094C190.7 67.6454 187.335 64.3945 183.629 61.577C178.923 57.9649 172.267 55.5809 167.513 54.2083C165.392 53.6062 164.026 51.4871 164.368 49.3198L164.441 48.7901C164.782 46.6228 166.635 45.0334 168.878 45.0334C169.317 45.0334 169.756 45.1057 170.17 45.2261C175.656 46.8154 183.434 49.657 189.408 54.2083C193.772 57.5555 197.722 61.3362 201.135 65.5022C202.013 66.5618 202.33 67.9103 202.037 69.2347C201.867 70.0053 201.355 71.402 199.697 72.2448L199.185 72.5097C198.575 72.8228 197.917 72.9673 197.234 72.9673V72.9191Z" fill="#1B998B"/>
    <path d="M225.468 256.127C223.054 256.127 220.543 256.006 218.032 255.741C199.794 253.839 185.994 247.144 180.143 237.392C177.071 232.262 176.534 226.483 178.631 221.571C180.874 216.321 187.091 213.672 197.112 213.672C204.597 213.672 213.96 215.165 224.932 218.079C226.175 218.416 227.224 219.211 227.833 220.342C228.467 221.474 228.589 222.799 228.199 224.027C227.565 226.026 225.736 227.35 223.664 227.35C223.274 227.35 222.859 227.302 222.469 227.205C214.253 225.134 205.353 223.834 199.282 223.834C195.357 223.834 190.578 224.268 188.408 227.591C187.043 229.686 186.896 232.19 187.994 234.478C192.358 243.46 216.301 246.181 219.031 246.47C221.201 246.687 223.371 246.807 225.468 246.807C237.074 246.807 246.241 243.364 251.264 237.127C254.068 233.635 256.774 227.639 253.702 218.825C249.24 205.966 214.984 200.837 194.455 200.62L177.095 200.428C176.851 200.428 176.364 200.428 176.217 199.705C176.071 199.007 176.51 198.79 176.729 198.694L192.553 191.662C194.699 190.651 212.375 181.813 208.035 168.93C206.036 163.03 200.891 158.816 193.894 157.371C192.212 157.034 190.481 156.841 188.749 156.841C182.508 156.841 176.729 159.081 173.316 162.837C170.171 166.281 168.756 170.736 169.22 175.721C169.39 177.454 168.464 179.092 166.903 179.887C165.977 180.344 165.245 180.537 164.49 180.537C162.32 180.537 159.955 178.899 159.735 176.154C159.321 170.953 160.125 163.319 166.269 156.576C171.463 150.869 179.874 147.474 188.725 147.474C191.114 147.474 193.504 147.714 195.82 148.196C206.207 150.339 213.936 156.817 217.008 165.968C219.3 172.735 218.349 179.333 214.204 185.594L210.01 191.927L217.593 192.987C232.173 195.033 257.408 200.716 262.626 215.743C266.113 225.761 264.674 235.417 258.627 242.906C251.752 251.431 239.975 256.127 225.444 256.127H225.468Z" fill="#1B998B"/>
    <path d="M161.101 235.321C159.54 235.321 158.126 234.55 157.346 233.25C154.542 228.602 153.03 223.979 152.884 219.548C152.786 216.562 153.225 213.311 154.176 209.915C154.737 207.941 156.541 206.568 158.565 206.568C159.345 206.568 160.101 206.785 160.808 207.194L161.247 207.435C163.002 208.446 163.88 210.445 163.344 212.275C162.612 214.804 162.295 217.164 162.344 219.235C162.442 221.956 163.417 224.942 165.27 228.096C166.343 229.902 166.123 232.094 164.733 233.539L164.368 233.9C163.49 234.791 162.32 235.297 161.076 235.297L161.101 235.321Z" fill="#1B998B"/>
    <path d="M277.206 254.176C274.671 254.176 272.55 252.129 272.476 249.625C272.306 243.797 273.549 239.318 276.182 236.284C277.792 234.43 280.791 232.214 285.813 232.214C286.569 232.214 287.349 232.262 288.154 232.359C290.153 232.623 292.104 232.744 293.957 232.744C300.125 232.744 305.124 231.299 308.001 228.65C310.39 226.459 311.463 223.449 311.243 219.427C310.999 214.298 308.098 209.915 302.905 206.737C301.198 205.701 300.345 203.799 300.759 201.993L300.881 201.511C301.442 199.175 303.563 197.947 305.392 197.947C306.172 197.947 306.903 198.164 307.586 198.549C313.267 201.969 320.167 208.278 320.703 218.946C321.142 227.494 317.534 232.672 314.437 235.489C309.732 239.8 302.637 242.063 293.908 242.063C282.595 242.063 282.01 244.784 282.01 249.312C282.01 251.431 280.693 253.333 278.547 253.935C278.109 254.055 277.67 254.128 277.231 254.128L277.206 254.176Z" fill="#1B998B"/>
    <path d="M338.916 206.159C337.917 206.159 336.917 206.014 335.966 205.725C327.384 203.173 321.41 189.567 327.384 164.932C331.87 146.366 318.899 137.865 306.342 129.654C295.615 122.622 288.203 116.963 290.665 107.885C292.25 102.057 295.907 98.0837 301.271 96.4221C303.1 95.8441 305.123 95.5552 307.269 95.5552C318.923 95.5552 331.968 103.791 337.844 108.655C341.013 111.28 343.866 113.712 346.28 115.879C347.596 117.059 348.328 119.13 348.06 120.84C347.865 122.068 347.255 122.333 347.011 122.454C345.963 122.911 345.158 123.128 344.378 123.128C341.818 123.128 337.673 120.744 331.748 115.831C324.092 109.498 313.828 104.899 307.318 104.899C306.123 104.899 305.05 105.043 304.099 105.356C302.32 105.91 301.003 107.138 300.247 109.016L299.174 111.665L301.003 113.881C302.832 116.096 306.879 118.817 311.585 121.9C323.97 129.991 342.647 142.224 336.625 167.148C333.821 178.682 333.943 186.051 335.089 190.073C338.356 201.728 344.89 189.808 345.207 188.989C350.912 173.505 357.715 158.406 372.466 158.406C373.587 158.406 374.758 158.503 375.952 158.671C381.341 159.442 385.924 163.03 388.265 168.231C389.777 171.579 390.24 175.239 389.63 179.068C389.24 181.596 386.973 182.921 384.949 182.921C383.998 182.921 383.096 182.656 382.291 182.102C380.804 181.115 380.073 179.284 380.317 177.213C380.536 175.335 380.292 173.577 379.585 172.012C378.585 169.748 376.708 168.207 374.562 167.918C373.953 167.822 373.319 167.774 372.685 167.774C365.493 167.774 360.811 173.938 354.082 192.168C350.863 200.957 345.207 206.183 338.965 206.183L338.916 206.159Z" fill="#1B998B"/>
    <path d="M339.379 231.42C335.942 231.42 335.673 228.193 335.673 227.206C335.673 225.737 336.21 224.34 337.112 223.353C338.185 222.197 339.818 221.595 341.915 221.595C346.548 221.595 351.668 219.307 356.325 215.165C359.86 212.011 362.542 208.422 364.297 204.473C365.053 202.788 366.662 201.68 368.418 201.68H369.101C370.612 201.68 371.953 202.378 372.782 203.63C373.611 204.859 373.758 206.352 373.172 207.724C370.905 213.046 367.37 217.886 362.664 222.076C353.301 230.432 344.89 231.396 339.379 231.396V231.42Z" fill="#1B998B"/>
    <path d="M403.649 152.217C398.529 152.217 393.58 149.569 389.191 147.233C386.241 145.667 383.193 144.03 379.633 142.657C377.025 141.646 374.416 141.14 371.904 141.14C367.93 141.14 364.102 142.417 360.811 144.849C360.079 145.378 359.202 145.691 358.373 145.691C357.739 145.691 357.129 145.523 356.593 145.21L356.056 144.873C354.642 144.03 353.789 142.609 353.74 141.02C353.691 139.406 354.423 137.937 355.764 136.998C360.738 133.507 366.15 131.749 371.856 131.749C375.513 131.749 379.341 132.495 383.169 133.988C387.265 135.578 390.703 137.408 393.726 139.021C398.871 141.766 401.041 142.802 403.332 142.802C405.624 142.802 407.112 141.646 407.892 141.02C408.379 140.61 408.77 140.225 409.062 139.816L409.964 138.612L410.013 137.119C410.086 134.253 407.258 128.907 399.017 123.224C392.629 118.817 383.876 117.734 377.659 117.613C375.342 117.565 373.392 115.903 373.05 113.664C372.831 112.291 373.221 110.895 374.148 109.859C374.66 109.257 375.83 108.246 377.659 108.246C385.241 108.366 395.945 109.739 404.43 115.566C413.817 122.02 419.132 129.461 419.424 136.541C419.619 141.14 417.718 145.186 413.939 148.244C410.623 150.941 407.282 152.241 403.723 152.241L403.649 152.217Z" fill="#1B998B"/>
    <path d="M190.407 131.123C189.749 131.123 189.09 130.978 188.456 130.713C187.237 130.159 186.311 129.172 185.896 127.92C185.482 126.668 185.604 125.343 186.238 124.187C191.285 115.085 201.866 97.9872 216.105 85.8023C225.395 77.8556 233.733 76.1699 239.073 76.1699C244.047 76.1699 248.728 77.6389 252.239 80.2878C258.968 85.3688 260.529 94.1343 256.676 102.346C255.921 103.959 254.531 107.282 259.334 109.016C262.601 110.172 267.429 110.557 270.038 110.654C272.33 110.726 274.256 112.532 274.524 114.82C274.67 116.216 274.256 117.517 273.329 118.528C272.427 119.516 271.232 120.045 269.916 120.045C262.333 119.804 252.605 118.263 248.387 112.363C246.461 109.666 244.851 104.995 248.24 98.0835C250.288 93.9176 249.63 90.1368 246.461 87.7288C244.583 86.308 242.072 85.5615 239.146 85.5615C233.758 85.5615 227.784 88.1622 222.274 92.858C209.864 103.478 200.33 118.215 194.528 128.69C193.699 130.183 192.114 131.098 190.383 131.098L190.407 131.123Z" fill="#1B998B"/>
    <path d="M281.01 215.84C279.766 215.84 275.719 215.382 275.719 209.53C275.719 206.328 275.719 196.623 265.601 191.084C258.335 187.135 252.044 187.063 246.51 187.015C237.635 186.918 230.174 185.883 228.37 173.842C227.541 168.256 229.638 163.391 234.246 160.116C238.513 157.106 245.266 155.445 253.264 155.445C262.236 155.445 272.159 157.54 278.572 160.791C281.595 162.332 284.399 163.945 286.861 165.366C292.957 168.882 296.078 170.495 298.516 170.76L300.588 170.977L302.173 169.677C302.661 169.291 303.148 168.761 303.636 168.159C304.416 167.22 306.781 164.306 305.806 160.887C304.88 157.636 300.271 151.062 279.913 143.814C272.33 141.117 264.601 139.744 256.921 139.744C251.094 139.744 246.632 140.539 243.925 141.189L243.682 141.237L243.462 141.309C240.463 142.369 232.685 144.825 225.127 144.825C220.714 144.825 217.179 144.006 214.57 142.369C211.351 140.346 209.45 137.167 209.108 133.17C208.182 122.671 216.301 114.459 223.274 109.45C223.835 109.041 224.493 108.824 225.2 108.824C226.517 108.824 227.76 109.595 228.345 110.751L229.564 113.183C230.272 114.604 229.881 116.265 228.662 117.18C224.664 120.118 219.202 124.597 218.715 129.726C218.276 134.35 224.054 135.506 224.664 135.506C228.345 135.506 233.831 134.542 238.659 133.025L241.512 132.134C244.559 131.412 249.996 130.401 256.994 130.401C265.796 130.401 274.573 131.942 283.107 134.976C301.661 141.574 312.365 149.449 314.9 158.31C316.412 163.632 315.12 168.906 310.999 173.963C307.61 178.129 304.002 180.079 299.662 180.079C293.64 180.079 287.227 176.371 282.058 173.385C279.498 171.916 276.963 170.447 274.232 169.05C268.892 166.329 261.017 164.716 253.142 164.716C246.388 164.716 241.097 165.294 239.268 167.991C237.586 170.495 235.757 177.647 246.583 177.575C252.605 177.527 260.822 177.72 270.184 182.825C280.79 188.628 285.959 197.803 285.959 210.903C285.959 215.623 281.522 215.767 281.034 215.767L281.01 215.84Z" fill="#1B998B"/>
    <path d="M373.782 57.4111C372.855 57.4111 371.978 57.1462 371.198 56.6646C362.81 51.3668 349.181 45.0335 331.87 45.0094C312.291 45.0094 299.686 48.7178 292.518 51.8002C291.933 52.0651 291.299 52.1855 290.665 52.1855C289.275 52.1855 287.958 51.5835 287.032 50.5239C286.057 49.3921 285.691 47.8991 286.032 46.4542C286.374 44.9612 287.398 43.7572 288.836 43.1552C296.76 39.7357 310.609 35.666 331.675 35.666C351.57 35.666 366.906 42.818 376.318 48.7901C377.951 49.8256 378.366 51.3667 378.463 52.1614C378.561 52.9802 378.536 54.5695 377.195 55.9662L377 56.1829C376.22 56.9294 375.05 57.4111 373.782 57.4111Z" fill="#1B998B"/>
    <path d="M400.651 96.5183C400.237 96.5183 399.846 96.4702 399.432 96.3498C394.214 94.9531 386.12 93.2915 377.098 93.2915C372.832 93.2915 368.687 93.6527 364.786 94.3992C359.397 95.4106 354.545 95.9163 350.352 95.9163C341.989 95.9163 336.088 93.9658 332.358 89.9683C328.335 85.6579 327.384 79.6136 329.505 71.9558C330.456 68.5123 332.577 65.9115 335.771 64.2018C338.429 62.781 341.891 62.0586 346.06 62.0586C347.182 62.0586 348.328 62.1067 349.523 62.2031C351.01 62.3235 352.326 63.0941 353.155 64.3222C353.619 65.0205 354.301 66.4413 353.716 68.2955C353.107 70.1979 351.278 71.5465 349.279 71.5465C349.132 71.5465 348.986 71.5465 348.84 71.5465C347.718 71.4501 346.67 71.3779 345.719 71.3779C344.159 71.3779 342.891 71.5224 341.818 71.8114L339.063 72.582L338.405 75.3272C337.478 79.2042 337.966 81.3955 338.551 82.5273L338.843 83.0812L339.258 83.5387C340.258 84.6705 343.037 86.573 350.327 86.573C353.911 86.573 358.178 86.1154 363.054 85.2003C367.541 84.3575 372.295 83.924 377.147 83.924C387.217 83.924 396.14 85.7542 401.87 87.2954C403.235 87.6566 404.308 88.5476 404.918 89.7998C405.527 91.052 405.552 92.4246 404.991 93.7009C404.235 95.4106 402.553 96.5183 400.675 96.5183H400.651Z" fill="#1B998B"/>
    <path d="M280.108 84.1648C279.108 84.1648 278.157 83.9962 277.157 83.6831C271.988 82.0215 269.233 76.3384 267.429 71.5704C266.112 68.1028 262.504 65.6225 256.701 64.1776C254.775 63.696 253.361 61.8177 253.336 59.7226C253.336 58.4704 253.824 57.2905 254.702 56.3995C255.604 55.5085 256.823 55.0028 258.066 55.0028C258.457 55.0028 258.871 55.051 259.261 55.1473C268.087 57.3868 273.793 61.7936 276.28 68.2473C276.645 69.1865 276.962 69.957 277.255 70.6072L279.571 75.6883L285.374 72.0039C289.373 69.4273 294.858 65.8873 301.832 65.8873C302.27 65.8873 302.709 65.8874 303.148 65.9355C304.611 66.0318 306.05 66.2004 307.439 66.4412C309.829 66.8747 310.731 68.6808 310.999 69.4513C311.243 70.1256 311.633 71.6909 310.682 73.3284C308.829 74.123 305.538 75.2789 302.953 75.2789C302.807 75.2789 302.027 75.2548 301.807 75.2548C297.662 75.2548 294.054 77.5907 290.567 79.8302C287.398 81.8771 283.862 84.1648 280.083 84.1648H280.108Z" fill="#1B998B"/>
    <path d="M313.389 19.6521C312.608 19.6521 311.828 19.4595 311.145 19.0742C306.44 16.4253 301.246 14.8841 295.687 14.5229C294.395 14.4265 293.127 14.4025 291.957 14.4025C288.129 14.4025 284.447 14.8118 281.034 15.6306C280.62 15.7269 280.205 15.7751 279.815 15.7751C278.181 15.7751 276.694 15.0045 275.816 13.7041C274.963 12.4038 274.792 10.8385 275.353 9.39365C275.914 7.99696 277.06 6.98556 278.523 6.62434C282.741 5.58887 287.276 5.05908 291.933 5.05908C293.371 5.05908 294.858 5.10724 296.321 5.20356C303.343 5.68518 309.902 7.61167 315.827 10.9589C317.119 11.6813 317.948 12.9576 318.119 14.4506C318.289 15.9918 317.704 17.4367 316.534 18.4722C315.656 19.2427 314.534 19.6762 313.364 19.6762L313.389 19.6521Z" fill="#1B998B"/>
    <path d="M415.572 126.402C414.841 118.263 408.136 110.124 406.405 103.261C404.869 97.12 405.722 93.1948 403.577 87.9934C398.359 75.4954 389.801 73.4967 382.706 65.7908C370.686 52.739 384.754 46.4057 353.911 33.5706C344.085 29.4768 328.042 27.8152 310.731 29.8139C315.315 30.4882 319.387 31.4996 322.629 32.8482C348.718 43.6846 336.795 49.0546 346.962 60.0836C352.984 66.6096 360.201 68.2952 364.615 78.8667C366.443 83.2494 365.712 86.5726 367.028 91.7741C368.491 97.5776 374.172 104.465 374.782 111.328C375.611 120.647 366.76 129.629 369.052 136.227C374.904 153.18 359.958 152.313 349.474 166.425C343.012 175.142 330.236 188.387 318.631 194.72C305.074 202.137 301.003 210.734 291.079 214.394C281.156 218.054 265.405 216.802 254.556 217.982C245.339 218.993 241.95 226.434 220.982 226.434C205.378 226.434 183.58 209.409 171.146 208.735C160.784 208.157 157.955 201.535 155.371 196.791C154.396 195.009 153.64 192.986 153.03 190.795C150.446 205.966 151.299 218.777 156.054 227.47C159.126 233.081 162.466 240.907 174.73 241.581C189.456 242.376 215.204 262.532 233.66 262.532C258.457 262.532 262.455 253.742 273.378 252.538C286.203 251.117 304.855 252.634 316.583 248.3C328.31 243.965 333.138 233.779 349.181 225.014C362.908 217.524 378 201.848 385.656 191.541C398.066 174.829 415.743 175.865 408.819 155.829C406.137 148.027 416.596 137.407 415.621 126.402H415.572Z" fill="#1B998B"/>
    <path d="M127.112 201.487C121.163 201.487 116.116 197.369 112.971 193.926C111.142 191.927 110.167 189.591 110.508 187.953C110.606 187.424 110.923 186.629 112.386 185.955C113.361 185.497 114.239 185.305 115.141 185.305C116.896 185.305 118.554 186.051 119.7 187.327C121.017 188.796 123.114 190.771 125.966 190.771C128.063 190.771 129.965 189.663 131.038 187.833C134.28 182.343 129.672 168.665 126.186 162.524C121.358 154.048 120.578 143.982 124.113 135.602C127.405 127.824 134.207 122.165 143.302 119.684C147.13 118.649 154.956 118.119 154.956 118.119C158.443 118.215 160.71 120.527 160.735 122.767C160.735 125.873 156.224 127.438 154.2 127.438C151.738 127.438 148.91 127.872 145.837 128.69C137.865 130.858 134.378 135.602 132.866 139.19C130.477 144.849 131.086 152.049 134.451 157.949C140.083 167.822 144.765 181.861 141.083 191.638C139.449 195.948 136.207 199.151 131.915 200.644C130.306 201.222 128.697 201.511 127.112 201.511V201.487Z" fill="url(#paint0_linear_1143_1879)"/>
    <path d="M106.339 168.448C104.778 168.448 102.681 167.629 101.901 165.366C100.048 160.02 99.073 154.168 98.9754 147.955C98.8779 141.02 100.292 134.398 103.169 128.281C104.071 126.355 105.949 125.656 107.412 125.656C108.265 125.656 109.557 125.873 110.679 126.957C112.166 128.353 112.58 130.472 111.751 132.23C109.484 137.095 108.362 142.344 108.436 147.835C108.509 152.964 109.289 157.804 110.776 162.163C111.434 164.138 110.849 166.233 109.265 167.461C108.192 168.303 107.07 168.472 106.339 168.472V168.448Z" fill="url(#paint1_linear_1143_1879)"/>
    <path d="M120.529 110.726C119.749 110.726 118.579 110.533 117.53 109.642C116.36 108.655 115.775 107.234 115.897 105.741C116.019 104.224 116.872 102.876 118.213 102.081C126.186 97.337 135.231 94.953 145.106 94.953C148.69 94.953 152.421 95.2902 156.175 95.9403C157.906 96.2293 159.54 96.3979 161.076 96.3979C167.732 96.3979 170.463 93.6045 171.487 91.967C173.267 89.1254 172.974 85.3688 170.756 82.3828C169.024 80.071 163.88 74.6528 153.786 74.6528C152.542 74.6528 151.25 74.7251 149.958 74.8936C145.911 75.3993 141.888 76.483 137.962 78.1205C137.426 78.3372 136.841 78.4576 136.255 78.4576C134.768 78.4576 133.354 77.7352 132.452 76.5312C131.55 75.3271 131.282 73.8582 131.672 72.4855C132.062 71.1129 133.037 70.0052 134.354 69.4754C139.035 67.549 143.863 66.2486 148.739 65.6466C150.47 65.4299 152.201 65.3094 153.859 65.3094C168.586 65.3094 176.339 74.123 178.363 76.8442C182.898 82.9126 183.361 90.787 179.557 96.9036C175.998 102.611 169.366 105.765 160.93 105.765C158.882 105.765 156.736 105.573 154.566 105.187C151.396 104.634 148.276 104.369 145.228 104.369C135.061 104.369 127.649 107.475 123.187 110.076C122.382 110.557 121.456 110.798 120.554 110.798L120.529 110.726Z" fill="url(#paint2_linear_1143_1879)"/>
    <path d="M218.08 58.7839C217.3 58.7839 216.154 58.5913 215.081 57.7244C201.428 46.599 194.333 36.2201 195.088 28.5383C195.795 21.4826 199.282 16.1367 204.695 13.8731C206.523 13.1025 208.498 12.7172 210.522 12.7172C214.984 12.7172 219.665 14.5714 224.078 18.0631L225.809 19.4598C233.099 25.3115 237.708 28.442 241.462 28.442C241.901 28.442 242.291 28.3939 242.681 28.3216C244.851 27.9363 246.997 26.0339 248.996 22.6626C249.606 21.6271 249.898 20.7121 249.898 19.7488V19.3635L249.825 18.9782C249.63 17.8464 249.143 14.8604 241.389 9.92383C239.463 8.69571 238.659 6.28761 239.487 4.21665C240.195 2.41059 241.999 1.20654 243.925 1.20654C244.803 1.20654 245.607 1.44735 246.339 1.90489C250.776 4.72235 256.482 9.29772 258.53 15.1494C259.968 19.2913 259.505 23.4332 257.14 27.4065C253.678 33.21 249.362 36.6295 244.315 37.5205C243.413 37.6891 242.486 37.7613 241.56 37.7613C233.612 37.7613 226.273 31.8856 219.811 26.6841L218.154 25.3356C214.569 22.494 211.79 22.0606 210.473 22.0606H209.742L208.84 22.2773L207.694 22.6145L206.84 23.4332C205.597 24.6373 204.792 26.7323 204.524 29.3812L204.475 29.8628L204.524 30.3444C205.182 36.7258 217.495 47.3937 221.25 50.5001C223.079 52.0172 223.42 54.7624 221.981 56.7371C221.079 58.0134 219.641 58.7358 218.08 58.7358V58.7839Z" fill="url(#paint3_linear_1143_1879)"/>
    <path d="M193.382 69.0901C191.992 69.0901 190.7 68.4641 189.797 67.3804C186.847 63.8164 183.483 60.5655 179.777 57.7481C175.071 54.1359 168.415 51.7519 163.66 50.3793C161.539 49.7532 160.174 47.6582 160.515 45.4909L160.588 44.9611C160.93 42.7698 162.783 41.2045 165.026 41.2045C165.465 41.2045 165.903 41.2767 166.318 41.3971C171.804 42.9865 179.582 45.828 185.555 50.3552C189.919 53.7025 193.869 57.5072 197.283 61.6492C198.16 62.7087 198.477 64.0572 198.185 65.3817C198.014 66.1523 197.502 67.5731 195.844 68.3918L195.332 68.6567C194.723 68.9697 194.064 69.1142 193.382 69.1142V69.0901Z" fill="url(#paint4_linear_1143_1879)"/>
    <path d="M221.616 252.322C219.202 252.322 216.69 252.202 214.179 251.937C195.942 250.034 182.142 243.364 176.29 233.587C173.218 228.458 172.682 222.678 174.778 217.766C177.021 212.516 183.239 209.867 193.26 209.867C200.745 209.867 210.107 211.36 221.079 214.274C222.323 214.611 223.371 215.406 223.981 216.538C224.615 217.67 224.736 218.994 224.346 220.222C223.712 222.221 221.884 223.545 219.811 223.545C219.421 223.545 219.007 223.497 218.617 223.401C210.4 221.33 201.501 220.03 195.43 220.03C191.504 220.03 186.725 220.463 184.555 223.786C183.19 225.881 183.044 228.386 184.141 230.673C188.505 239.655 212.448 242.377 215.179 242.666C217.349 242.882 219.519 243.003 221.616 243.003C233.221 243.003 242.389 239.559 247.411 233.322C250.215 229.83 252.922 223.834 249.85 215.021C245.388 202.162 211.131 197.032 190.602 196.816L173.242 196.623C172.999 196.623 172.511 196.623 172.365 195.901C172.218 195.178 172.657 194.985 172.877 194.889L188.7 187.858C190.846 186.846 208.523 178.008 204.183 165.125C202.183 159.225 197.039 155.011 190.041 153.566C188.359 153.229 186.628 153.037 184.897 153.037C178.655 153.037 172.877 155.276 169.463 159.033C166.318 162.476 164.928 166.931 165.367 171.916C165.977 178.635 155.785 178.129 155.883 172.349C155.956 167.124 156.273 159.514 162.417 152.772C167.61 147.064 175.997 143.669 184.872 143.669C187.262 143.669 189.651 143.91 191.967 144.392C202.354 146.535 210.083 153.012 213.155 162.163C215.447 168.93 214.496 175.528 210.351 181.789L206.158 188.122L213.74 189.182C228.321 191.229 253.556 196.912 258.773 211.938C262.26 221.956 260.821 231.612 254.775 239.102C247.899 247.626 236.123 252.298 221.591 252.298L221.616 252.322Z" fill="url(#paint5_linear_1143_1879)"/>
    <path d="M157.248 231.516C155.688 231.516 154.273 230.745 153.493 229.445C150.689 224.797 149.178 220.174 149.031 215.743C148.934 212.757 149.373 209.506 150.324 206.111C150.884 204.136 152.689 202.763 154.712 202.763C155.493 202.763 156.248 202.98 156.955 203.389L157.37 203.63C159.125 204.642 160.003 206.64 159.467 208.47C158.735 210.999 158.418 213.359 158.467 215.454C158.565 218.175 159.54 221.161 161.393 224.316C162.466 226.122 162.246 228.313 160.857 229.758L160.491 230.119C159.613 231.01 158.443 231.516 157.199 231.516H157.248Z" fill="url(#paint6_linear_1143_1879)"/>
    <path d="M273.353 250.371C270.818 250.371 268.697 248.324 268.623 245.844C268.453 240.016 269.696 235.537 272.329 232.503C273.939 230.649 276.938 228.433 281.96 228.433C282.716 228.433 283.496 228.482 284.301 228.578C286.3 228.819 288.251 228.963 290.104 228.963C296.272 228.963 301.27 227.518 304.148 224.869C306.537 222.678 307.61 219.668 307.39 215.646C307.146 210.517 304.245 206.134 299.052 202.956C297.345 201.92 296.492 200.018 296.906 198.212L297.028 197.73C297.589 195.394 299.71 194.166 301.539 194.166C302.319 194.166 303.05 194.383 303.733 194.768C309.414 198.188 316.314 204.497 316.85 215.165C317.289 223.714 313.681 228.867 310.584 231.708C305.879 236.019 298.784 238.282 290.055 238.282C278.742 238.282 278.157 241.004 278.157 245.531C278.157 247.65 276.84 249.552 274.694 250.154C274.256 250.275 273.817 250.347 273.378 250.347L273.353 250.371Z" fill="url(#paint7_linear_1143_1879)"/>
    <path d="M335.064 202.354C334.064 202.354 333.065 202.21 332.114 201.921C323.531 199.368 317.558 185.762 323.531 161.128C328.018 142.561 315.047 134.061 302.49 125.849C291.762 118.818 284.35 113.159 286.813 104.08C288.397 98.2524 292.055 94.2791 297.419 92.6175C299.247 92.0396 301.271 91.7506 303.416 91.7506C315.071 91.7506 328.115 99.9863 333.991 104.851C337.161 107.475 339.989 109.908 342.427 112.075C343.744 113.255 344.475 115.326 344.207 117.036C344.012 118.264 343.402 118.529 343.159 118.649C342.11 119.106 341.306 119.323 340.525 119.323C337.965 119.323 333.82 116.939 327.896 112.027C320.24 105.693 309.975 101.094 303.465 101.094C302.271 101.094 301.198 101.238 300.247 101.552C298.467 102.105 297.15 103.334 296.395 105.212L295.322 107.861L297.15 110.076C298.979 112.292 303.026 115.013 307.732 118.095C320.118 126.186 338.794 138.419 332.772 163.343C329.968 174.878 330.09 182.247 331.236 186.268C334.503 197.899 341.037 186.003 341.354 185.184C347.06 169.7 353.862 154.602 368.613 154.602C369.735 154.602 370.905 154.698 372.1 154.867C377.488 155.637 382.072 159.225 384.412 164.427C385.924 167.774 386.387 171.434 385.778 175.263C385.388 177.792 383.145 179.116 381.097 179.116C380.146 179.116 379.244 178.851 378.439 178.297C376.952 177.31 376.22 175.48 376.464 173.409C376.683 171.531 376.44 169.773 375.733 168.207C374.733 165.944 372.856 164.403 370.71 164.114C370.1 164.017 369.466 163.969 368.833 163.969C361.64 163.969 356.959 170.134 350.229 188.363C347.011 197.129 341.354 202.378 335.113 202.378L335.064 202.354Z" fill="url(#paint8_linear_1143_1879)"/>
    <path d="M335.527 227.615C332.089 227.615 331.821 224.388 331.821 223.401C331.821 221.932 332.358 220.535 333.26 219.548C334.333 218.392 335.966 217.79 338.063 217.79C342.696 217.79 347.816 215.502 352.473 211.36C356.008 208.206 358.69 204.618 360.445 200.668C361.201 198.983 362.81 197.875 364.566 197.875H365.249C366.76 197.875 368.101 198.573 368.93 199.826C369.759 201.054 369.906 202.547 369.32 203.919C367.053 209.241 363.518 214.081 358.812 218.272C349.449 226.628 341.038 227.591 335.527 227.591V227.615Z" fill="url(#paint9_linear_1143_1879)"/>
    <path d="M399.797 148.413C394.677 148.413 389.728 145.764 385.339 143.428C382.389 141.863 379.341 140.225 375.781 138.853C373.173 137.841 370.564 137.336 368.052 137.336C364.078 137.336 360.25 138.612 356.959 141.044C356.227 141.574 355.35 141.887 354.521 141.887C353.887 141.887 353.277 141.718 352.741 141.405L352.204 141.068C350.79 140.225 349.937 138.805 349.888 137.215C349.839 135.602 350.571 134.157 351.912 133.194C356.886 129.702 362.298 127.944 368.004 127.944C371.661 127.944 375.489 128.691 379.317 130.184C383.413 131.773 386.851 133.603 389.874 135.217C395.019 137.962 397.189 138.997 399.48 138.997C401.772 138.997 403.26 137.841 404.04 137.215C404.527 136.806 404.918 136.421 405.21 136.011L406.112 134.807L406.161 133.314C406.234 130.449 403.406 125.103 395.165 119.42C388.777 115.013 380.024 113.929 373.806 113.809C371.49 113.761 369.54 112.099 369.198 109.859C368.979 108.487 369.369 107.09 370.296 106.055C370.808 105.453 371.978 104.441 373.806 104.441C381.389 104.562 392.093 105.934 400.578 111.762C409.965 118.216 415.28 125.657 415.572 132.736C415.767 137.336 413.866 141.381 410.086 144.44C406.771 147.137 403.43 148.437 399.871 148.437L399.797 148.413Z" fill="url(#paint10_linear_1143_1879)"/>
    <path d="M186.554 127.318C185.896 127.318 185.238 127.173 184.604 126.909C183.385 126.355 182.458 125.367 182.044 124.115C181.629 122.863 181.751 121.539 182.385 120.383C187.432 111.28 198.014 94.1826 212.253 81.9977C221.542 74.051 229.881 72.3654 235.22 72.3654C240.194 72.3654 244.876 73.8343 248.386 76.4832C255.116 81.5643 256.676 90.3297 252.824 98.5413C252.068 100.155 250.678 103.478 255.482 105.212C258.749 106.368 263.576 106.753 266.185 106.849C268.477 106.921 270.403 108.728 270.671 111.015C270.818 112.412 270.403 113.712 269.477 114.724C268.575 115.711 267.38 116.241 266.063 116.241C258.48 116 248.752 114.459 244.534 108.559C242.608 105.862 240.999 101.19 244.388 94.279C246.436 90.113 245.778 86.3323 242.608 83.9242C240.731 82.5034 238.219 81.7569 235.294 81.7569C229.905 81.7569 223.932 84.3577 218.421 89.0534C206.011 99.6731 196.478 114.411 190.675 124.886C189.846 126.379 188.261 127.318 186.53 127.318H186.554Z" fill="url(#paint11_linear_1143_1879)"/>
    <path d="M277.157 212.034C275.914 212.034 271.867 211.577 271.867 205.725C271.867 202.522 271.867 192.818 261.748 187.279C254.482 183.306 248.192 183.258 242.657 183.21C233.782 183.113 226.322 182.078 224.517 170.037C223.688 164.451 225.785 159.586 230.393 156.311C234.66 153.301 241.414 151.64 249.411 151.64C258.383 151.64 268.307 153.735 274.719 156.985C277.743 158.527 280.546 160.14 283.009 161.561C289.104 165.077 292.225 166.69 294.663 166.955L296.736 167.172L298.321 165.871C298.808 165.486 299.296 164.956 299.784 164.354C300.564 163.415 302.929 160.501 301.954 157.082C301.027 153.831 296.419 147.257 276.06 140.008C268.477 137.311 260.748 135.939 253.068 135.939C247.241 135.939 242.779 136.733 240.073 137.384L239.829 137.432L239.61 137.504C236.611 138.564 228.833 141.02 221.275 141.02C216.861 141.02 213.326 140.201 210.717 138.564C207.499 136.541 205.597 133.362 205.256 129.365C204.329 118.865 212.448 110.654 219.422 105.645C219.982 105.236 220.641 105.019 221.348 105.019C222.664 105.019 223.908 105.79 224.493 106.945L225.712 109.378C226.419 110.798 226.029 112.46 224.81 113.375C220.811 116.313 215.35 120.792 214.862 125.921C214.423 130.545 220.202 131.701 220.811 131.701C224.493 131.701 229.979 130.737 234.806 129.22L237.659 128.329C240.707 127.607 246.144 126.595 253.141 126.595C261.943 126.595 270.721 128.137 279.254 131.171C297.809 137.769 308.512 145.619 311.048 154.505C312.56 159.827 311.267 165.101 307.147 170.158C303.758 174.324 300.149 176.274 295.809 176.274C289.787 176.274 283.375 172.566 278.206 169.58C275.646 168.111 273.11 166.642 270.379 165.245C265.04 162.524 257.164 160.911 249.289 160.911C242.535 160.911 237.245 161.489 235.416 164.186C233.734 166.69 231.905 173.842 242.73 173.77C248.753 173.722 256.969 173.914 266.332 179.02C276.938 184.823 282.107 193.998 282.107 207.098C282.107 211.818 277.669 211.962 277.182 211.962L277.157 212.034Z" fill="url(#paint12_linear_1143_1879)"/>
    <path d="M369.93 53.6061C369.003 53.6061 368.126 53.3412 367.345 52.8596C358.958 47.5618 345.329 41.2285 328.018 41.2044C308.439 41.2044 295.834 44.9129 288.666 47.9953C288.081 48.2602 287.447 48.3806 286.813 48.3806C285.423 48.3806 284.106 47.7785 283.18 46.719C282.205 45.5872 281.839 44.0942 282.18 42.6493C282.522 41.1563 283.546 39.9523 284.984 39.3502C292.908 35.9308 306.757 31.8611 327.823 31.8611C347.718 31.8611 363.054 39.0131 372.466 44.9852C374.099 46.0206 374.514 47.5618 374.611 48.3565C374.709 49.1752 374.684 50.7646 373.343 52.1613L373.148 52.378C372.368 53.1245 371.198 53.6061 369.93 53.6061Z" fill="url(#paint13_linear_1143_1879)"/>
    <path d="M396.798 92.7138C396.384 92.7138 395.994 92.6656 395.579 92.5452C390.362 91.1485 382.267 89.4869 373.246 89.4869C368.979 89.4869 364.834 89.8482 360.933 90.5947C355.545 91.6061 350.693 92.1117 346.499 92.1117C338.136 92.1117 332.236 90.1612 328.505 86.1638C324.482 81.8533 323.531 75.809 325.653 68.1513C326.604 64.7077 328.725 62.107 331.919 60.3972C334.576 58.9765 338.039 58.254 342.208 58.254C343.305 58.254 344.475 58.3022 345.67 58.3985C347.157 58.5189 348.474 59.2895 349.303 60.5176C349.766 61.216 350.449 62.6368 349.864 64.491C349.254 66.4175 347.426 67.7419 345.426 67.7419C345.28 67.7419 345.134 67.7419 344.987 67.7419C343.866 67.6456 342.817 67.5734 341.867 67.5734C340.306 67.5734 339.038 67.7178 337.965 68.0068L335.21 68.7774L334.552 71.5226C333.626 75.3996 334.113 77.591 334.698 78.7228L334.991 79.2767L335.405 79.7342C336.405 80.866 339.185 82.7684 346.475 82.7684C350.034 82.7684 354.326 82.3108 359.202 81.3958C363.688 80.5529 368.443 80.1195 373.295 80.1195C383.364 80.1195 392.288 81.9496 398.018 83.4908C399.383 83.852 400.456 84.743 401.065 85.9952C401.675 87.2474 401.699 88.62 401.138 89.8963C400.383 91.6061 398.7 92.7138 396.823 92.7138H396.798Z" fill="url(#paint14_linear_1143_1879)"/>
    <path d="M276.255 80.336C275.255 80.336 274.304 80.1915 273.305 79.8544C268.136 78.1928 265.381 72.5098 263.577 67.7417C262.26 64.2741 258.651 61.7938 252.849 60.3489C250.922 59.8673 249.508 57.989 249.484 55.8939C249.484 54.6417 249.972 53.4618 250.849 52.5708C251.727 51.6798 252.97 51.1741 254.214 51.1741C254.604 51.1741 255.019 51.2223 255.409 51.3186C264.235 53.5581 269.94 57.9649 272.427 64.4186C272.793 65.3577 273.11 66.1283 273.402 66.7785L275.719 71.8596L281.521 68.1752C285.52 65.5986 291.006 62.0586 297.979 62.0586C298.418 62.0586 298.857 62.0587 299.296 62.1068C300.759 62.2031 302.197 62.3717 303.587 62.6125C305.976 63.0459 306.878 64.852 307.147 65.6226C307.39 66.2969 307.78 67.8621 306.83 69.4996C304.977 70.2943 301.685 71.4502 299.101 71.4502C298.954 71.4502 298.174 71.4261 297.955 71.4261C293.81 71.4261 290.201 73.762 286.715 76.0015C283.545 78.0484 280.01 80.336 276.231 80.336H276.255Z" fill="url(#paint15_linear_1143_1879)"/>
    <path d="M309.536 15.8473C308.756 15.8473 307.976 15.6546 307.293 15.2693C302.587 12.6204 297.394 11.0793 291.835 10.7181C290.543 10.6217 289.275 10.5977 288.104 10.5977C284.277 10.5977 280.595 11.007 277.181 11.8258C276.767 11.9221 276.352 11.9703 275.962 11.9703C274.329 11.9703 272.842 11.1997 271.964 9.89932C271.11 8.59895 270.94 7.03369 271.501 5.58884C272.061 4.19215 273.207 3.18075 274.67 2.81953C278.888 1.78406 283.423 1.25427 288.08 1.25427C289.519 1.25427 291.006 1.30245 292.469 1.39877C299.491 1.88039 306.049 3.80686 311.974 7.1541C313.266 7.87653 314.095 9.15281 314.266 10.6458C314.437 12.187 313.852 13.6318 312.681 14.6673C311.803 15.4379 310.682 15.8714 309.512 15.8714L309.536 15.8473Z" fill="url(#paint16_linear_1143_1879)"/>
    <path d="M403.551 172.566C400.772 172.566 398.504 170.326 398.504 167.581C398.504 164.836 400.772 162.596 403.551 162.596C406.331 162.596 408.574 164.836 408.574 167.581C408.574 170.326 406.307 172.566 403.551 172.566Z" fill="url(#paint17_linear_1143_1879)"/>
</g>
    <defs>
<linearGradient id="paint0_linear_1143_1879" x1="120.212" y1="137.697" x2="242.025" y2="287.687" gradientUnits="userSpaceOnUse">
<stop stop-color="#FEC564"/>
<stop offset="0.16" stop-color="#FEA962"/>
<stop offset="0.38" stop-color="#FE8B60"/>
<stop offset="0.6" stop-color="#FE765F"/>
<stop offset="0.81" stop-color="#FE695E"/>
<stop offset="1" stop-color="#FF655E"/>
</linearGradient>
<linearGradient id="paint1_linear_1143_1879" x1="105.168" y1="145.041" x2="216.003" y2="281.485" gradientUnits="userSpaceOnUse">
<stop stop-color="#FEC564"/>
<stop offset="0.16" stop-color="#FEA962"/>
<stop offset="0.38" stop-color="#FE8B60"/>
<stop offset="0.6" stop-color="#FE765F"/>
<stop offset="0.81" stop-color="#FE695E"/>
<stop offset="1" stop-color="#FF655E"/>
</linearGradient>
<linearGradient id="paint2_linear_1143_1879" x1="154.493" y1="101.118" x2="273.567" y2="247.728" gradientUnits="userSpaceOnUse">
<stop stop-color="#FEC564"/>
<stop offset="0.16" stop-color="#FEA962"/>
<stop offset="0.38" stop-color="#FE8B60"/>
<stop offset="0.6" stop-color="#FE765F"/>
<stop offset="0.81" stop-color="#FE695E"/>
<stop offset="1" stop-color="#FF655E"/>
</linearGradient>
<linearGradient id="paint3_linear_1143_1879" x1="235.099" y1="34.992" x2="352.083" y2="179.024" gradientUnits="userSpaceOnUse">
<stop stop-color="#FEC564"/>
<stop offset="0.16" stop-color="#FEA962"/>
<stop offset="0.38" stop-color="#FE8B60"/>
<stop offset="0.6" stop-color="#FE765F"/>
<stop offset="0.81" stop-color="#FE695E"/>
<stop offset="1" stop-color="#FF655E"/>
</linearGradient>
<linearGradient id="paint4_linear_1143_1879" x1="190.87" y1="69.0902" x2="305.885" y2="210.714" gradientUnits="userSpaceOnUse">
<stop stop-color="#FEC564"/>
<stop offset="0.16" stop-color="#FEA962"/>
<stop offset="0.38" stop-color="#FE8B60"/>
<stop offset="0.6" stop-color="#FE765F"/>
<stop offset="0.81" stop-color="#FE695E"/>
<stop offset="1" stop-color="#FF655E"/>
</linearGradient>
<linearGradient id="paint5_linear_1143_1879" x1="138.328" y1="126.885" x2="269.941" y2="288.963" gradientUnits="userSpaceOnUse">
<stop stop-color="#FEC564"/>
<stop offset="0.16" stop-color="#FEA962"/>
<stop offset="0.38" stop-color="#FE8B60"/>
<stop offset="0.6" stop-color="#FE765F"/>
<stop offset="0.81" stop-color="#FE695E"/>
<stop offset="1" stop-color="#FF655E"/>
</linearGradient>
<linearGradient id="paint6_linear_1143_1879" x1="114.726" y1="167.437" x2="217.922" y2="294.492" gradientUnits="userSpaceOnUse">
<stop stop-color="#FEC564"/>
<stop offset="0.16" stop-color="#FEA962"/>
<stop offset="0.38" stop-color="#FE8B60"/>
<stop offset="0.6" stop-color="#FE765F"/>
<stop offset="0.81" stop-color="#FE695E"/>
<stop offset="1" stop-color="#FF655E"/>
</linearGradient>
<linearGradient id="paint7_linear_1143_1879" x1="200.013" y1="116.216" x2="311.641" y2="253.657" gradientUnits="userSpaceOnUse">
<stop stop-color="#FEC564"/>
<stop offset="0.16" stop-color="#FEA962"/>
<stop offset="0.38" stop-color="#FE8B60"/>
<stop offset="0.6" stop-color="#FE765F"/>
<stop offset="0.81" stop-color="#FE695E"/>
<stop offset="1" stop-color="#FF655E"/>
</linearGradient>
<linearGradient id="paint8_linear_1143_1879" x1="243.145" y1="45.3949" x2="374.47" y2="207.108" gradientUnits="userSpaceOnUse">
<stop stop-color="#FEC564"/>
<stop offset="0.16" stop-color="#FEA962"/>
<stop offset="0.38" stop-color="#FE8B60"/>
<stop offset="0.6" stop-color="#FE765F"/>
<stop offset="0.81" stop-color="#FE695E"/>
<stop offset="1" stop-color="#FF655E"/>
</linearGradient>
<linearGradient id="paint9_linear_1143_1879" x1="269.648" y1="115.591" x2="356.293" y2="222.313" gradientUnits="userSpaceOnUse">
<stop stop-color="#FEC564"/>
<stop offset="0.16" stop-color="#FEA962"/>
<stop offset="0.38" stop-color="#FE8B60"/>
<stop offset="0.6" stop-color="#FE765F"/>
<stop offset="0.81" stop-color="#FE695E"/>
<stop offset="1" stop-color="#FF655E"/>
</linearGradient>
<linearGradient id="paint10_linear_1143_1879" x1="292.177" y1="24.0352" x2="412.692" y2="172.421" gradientUnits="userSpaceOnUse">
<stop stop-color="#FEC564"/>
<stop offset="0.16" stop-color="#FEA962"/>
<stop offset="0.38" stop-color="#FE8B60"/>
<stop offset="0.6" stop-color="#FE765F"/>
<stop offset="0.81" stop-color="#FE695E"/>
<stop offset="1" stop-color="#FF655E"/>
</linearGradient>
<linearGradient id="paint11_linear_1143_1879" x1="198.672" y1="80.3361" x2="321.134" y2="231.105" gradientUnits="userSpaceOnUse">
<stop stop-color="#FEC564"/>
<stop offset="0.16" stop-color="#FEA962"/>
<stop offset="0.38" stop-color="#FE8B60"/>
<stop offset="0.6" stop-color="#FE765F"/>
<stop offset="0.81" stop-color="#FE695E"/>
<stop offset="1" stop-color="#FF655E"/>
</linearGradient>
<linearGradient id="paint12_linear_1143_1879" x1="197.502" y1="78.9393" x2="328.683" y2="240.458" gradientUnits="userSpaceOnUse">
<stop stop-color="#FEC564"/>
<stop offset="0.16" stop-color="#FEA962"/>
<stop offset="0.38" stop-color="#FE8B60"/>
<stop offset="0.6" stop-color="#FE765F"/>
<stop offset="0.81" stop-color="#FE695E"/>
<stop offset="1" stop-color="#FF655E"/>
</linearGradient>
<linearGradient id="paint13_linear_1143_1879" x1="292.42" y1="3.10851" x2="414.425" y2="153.342" gradientUnits="userSpaceOnUse">
<stop stop-color="#FEC564"/>
<stop offset="0.16" stop-color="#FEA962"/>
<stop offset="0.38" stop-color="#FE8B60"/>
<stop offset="0.6" stop-color="#FE765F"/>
<stop offset="0.81" stop-color="#FE695E"/>
<stop offset="1" stop-color="#FF655E"/>
</linearGradient>
<linearGradient id="paint14_linear_1143_1879" x1="297.882" y1="5.6373" x2="421.809" y2="158.206" gradientUnits="userSpaceOnUse">
<stop stop-color="#FEC564"/>
<stop offset="0.16" stop-color="#FEA962"/>
<stop offset="0.38" stop-color="#FE8B60"/>
<stop offset="0.6" stop-color="#FE765F"/>
<stop offset="0.81" stop-color="#FE695E"/>
<stop offset="1" stop-color="#FF655E"/>
</linearGradient>
<linearGradient id="paint15_linear_1143_1879" x1="254.385" y1="32.6318" x2="372.185" y2="177.709" gradientUnits="userSpaceOnUse">
<stop stop-color="#FEC564"/>
<stop offset="0.16" stop-color="#FEA962"/>
<stop offset="0.38" stop-color="#FE8B60"/>
<stop offset="0.6" stop-color="#FE765F"/>
<stop offset="0.81" stop-color="#FE695E"/>
<stop offset="1" stop-color="#FF655E"/>
</linearGradient>
<linearGradient id="paint16_linear_1143_1879" x1="286.008" y1="1.13386" x2="396.05" y2="136.629" gradientUnits="userSpaceOnUse">
<stop stop-color="#FEC564"/>
<stop offset="0.16" stop-color="#FEA962"/>
<stop offset="0.38" stop-color="#FE8B60"/>
<stop offset="0.6" stop-color="#FE765F"/>
<stop offset="0.81" stop-color="#FE695E"/>
<stop offset="1" stop-color="#FF655E"/>
</linearGradient>
<linearGradient id="paint17_linear_1143_1879" x1="336.502" y1="87.0546" x2="408.47" y2="175.682" gradientUnits="userSpaceOnUse">
<stop stop-color="#FEC564"/>
<stop offset="0.16" stop-color="#FEA962"/>
<stop offset="0.38" stop-color="#FE8B60"/>
<stop offset="0.6" stop-color="#FE765F"/>
<stop offset="0.81" stop-color="#FE695E"/>
<stop offset="1" stop-color="#FF655E"/>
</linearGradient>
</defs>
    <style>
        @keyframes pulsateInnerCircle {
            0% {
                transform: scale(1);
            }
            50% {
                transform: scale(1.1);
            }
            100% {
                transform: scale(1);
            }
        }

        @keyframes pulsateOuterCircle {
            0% {
                transform: scale(1);
            }
            50% {
                transform: scale(1.15);
            }
            100% {
                transform: scale(1);
            }
        }

        @keyframes pulsateShadow {
            0% {
                transform: scale(1);
                opacity: 90%;
            }
            50% {
                transform: scale(1.3);
                opacity: 70%;
            }
            100% {
                transform: scale(1);
                opacity: 90%;
            }
        }

        @keyframes brain {
            0% {
            transform: translateY(0);
            }
            50% {
            transform: translateY(-90px);
            }
            100% {
            transform: translateY(0);
            }
        }

        .innerCircle {
            animation: pulsateInnerCircle 4s linear infinite;
            animation-timing-function: cubic-bezier(0.56, 0.12, 0.47, 0.91);
            transform-origin: 50% 50%;
        }

        .outerCircle {
            animation: pulsateOuterCircle 4s linear infinite;
            animation-timing-function: cubic-bezier(0.56, 0.12, 0.47, 0.91);
            transform-origin: 50% 50%;
        }
        .shadow {
            animation: pulsateShadow 4s linear infinite;
            animation-timing-function: cubic-bezier(0.56, 0.12, 0.47, 0.91);
            transform-origin: 50% 50%;
        }

        .brain {
            animation: brain 4s linear infinite;
            animation-timing-function: cubic-bezier(0.56, 0.12, 0.47, 0.91);
        }
    </style>
</svg>
