<svg width="212" height="180" viewBox="0 0 212 180" fill="none" xmlns="http://www.w3.org/2000/svg">
<path d="M207.977 56.1458L111.087 1.30189C107.779 -0.426044 104.25 -0.441865 100.913 1.30189L4.0222 56.1458C1.53783 57.5517 0 60.0633 0 62.5742V117.418C0 119.929 1.53783 122.44 4.02261 123.846L100.913 178.698C104.22 180.426 107.75 180.442 111.087 178.698L207.977 123.846C210.462 122.441 212 119.929 212 117.418V62.5742C212 60.0633 210.462 57.5517 207.977 56.1458ZM115.109 22.1943L186.446 62.5742L154.623 80.6547L115.109 58.2549V22.1943ZM96.8904 22.1943V58.2549L57.3769 80.6547L25.5534 62.5742L96.8904 22.1943ZM18.2187 77.0386L41.0513 89.9961L18.2187 102.954V77.0386ZM96.8904 157.798L25.5534 117.418L57.3769 99.3375L96.8904 121.737V157.798ZM106 108.277L73.821 89.9961L106 71.7148L138.179 89.9961L106 108.277ZM115.109 157.798V121.737L154.623 99.3375L186.446 117.418L115.109 157.798ZM193.781 102.954L170.948 89.9961L193.781 77.0386V102.954Z" fill="#1B998B"/>
</svg>
