<svg width="16" height="16" viewBox="0 0 16 16" fill="none" xmlns="http://www.w3.org/2000/svg">
<path d="M10 3H6L4.51875 0.7775C4.29688 0.445 4.53437 0 4.93437 0H11.0656C11.4656 0 11.7031 0.445 11.4812 0.7775L10 3ZM6 4H10C10.1187 4.07812 10.2531 4.16562 10.3781 4.2625C12.1781 5.39687 16 7.84062 16 13C16 14.6562 14.6562 16 13 16H3C1.34312 16 0 14.6562 0 13C0 7.84062 3.82188 5.39687 5.59375 4.2625C5.74687 4.16562 5.88125 4.07812 6 4ZM8.62813 7C8.62813 6.65312 8.34688 6.37187 7.97188 6.37187C7.65313 6.37187 7.37187 6.65312 7.37187 7V7.1875C7.19687 7.225 7.00313 7.27813 6.875 7.34688C6.40938 7.55938 6.00312 7.95312 5.90312 8.525C5.84687 8.84375 5.87813 9.15312 6.00938 9.43125C6.14062 9.70625 6.34375 9.9 6.55 10.0406C6.9125 10.2875 7.39062 10.4312 7.75625 10.5406L7.825 10.5594C8.2625 10.6937 8.55625 10.7906 8.74063 10.925C8.81875 10.9812 8.84688 11.025 8.85625 11.0531C8.86875 11.0781 8.8875 11.1344 8.86563 11.2594C8.84688 11.3687 8.7875 11.4625 8.61563 11.5344C8.425 11.6156 8.11562 11.6562 7.71562 11.5938C7.52812 11.5625 7.19375 11.45 6.89687 11.35C6.82812 11.325 6.75938 11.3031 6.69688 11.2812C6.36875 11.1719 6.01562 11.35 5.90625 11.6781C5.79688 12.0063 5.975 12.3594 6.30312 12.4406C6.34062 12.4812 6.3875 12.4969 6.44063 12.5156C6.65938 12.6 7.075 12.7312 7.37187 12.8V13C7.37187 13.3469 7.65313 13.6281 7.97188 13.6281C8.34688 13.6281 8.62813 13.3469 8.62813 13V12.8281C8.79375 12.7969 8.95625 12.7219 9.10625 12.6844C9.6 12.475 9.99375 12.0688 10.0969 11.475C10.1531 11.15 10.1281 10.8375 10.0031 10.5531C9.88125 10.2719 9.68438 10.0656 9.475 9.91562C9.09688 9.6375 8.59062 9.4875 8.2125 9.37187L8.15938 9.36563C7.74375 9.23125 7.44375 9.1375 7.25313 9.00625C7.17188 8.95 7.14687 8.9125 7.14062 8.89688C7.13438 8.88438 7.11562 8.84688 7.13438 8.74063C7.14687 8.67813 7.19375 8.575 7.39062 8.4875C7.56563 8.39688 7.90313 8.34688 8.28438 8.37813C8.42188 8.42813 8.84375 8.50937 8.96562 8.54062C9.29688 8.63125 9.64062 8.43125 9.72812 8.09688C9.81875 7.76562 9.61875 7.42188 9.28438 7.33437C9.14688 7.29688 8.83438 7.23438 8.62813 7.19688V7Z" fill="black"/>
</svg>
