<svg width="221" height="88" viewBox="0 0 221 88" fill="none" xmlns="http://www.w3.org/2000/svg">
<path d="M1.68457 10.6815C1.68457 4.80179 6.23903 0 12.5757 0C16.437 0 19.8034 1.95992 21.5856 5.09578L19.7044 6.17373C18.4172 3.72384 15.645 2.05791 12.5757 2.05791C7.32813 2.05791 3.76378 5.87974 3.76378 10.6815C3.76378 15.4833 7.32813 19.3052 12.5757 19.3052C15.645 19.3052 18.4172 17.6392 19.7044 15.1893L21.5856 16.1693C19.9024 19.2072 16.437 21.2651 12.5757 21.2651C6.23903 21.2651 1.68457 16.5613 1.68457 10.6815Z" fill="#343434"/>
<path d="M39.9019 19.0113V20.9712H27.7236V0.39209H39.8028V2.352H29.9018V9.60369H39.1098V11.5636H29.9018V19.0113H39.9019Z" fill="#343434"/>
<path d="M61.5857 0.39209V20.9712H59.8035L48.2193 4.21392V20.9712H46.1401V0.39209H47.9223L59.5065 17.1494V0.39209H61.5857Z" fill="#343434"/>
<path d="M82.0804 2.25337H75.6447V20.8726H73.5655V2.25337H67.1299V0.293457H81.9814V2.25337H82.0804Z" fill="#343434"/>
<path d="M99.9023 19.0113V20.9712H87.7241V0.39209H99.8033V2.352H89.9023V9.60369H99.1103V11.5636H89.9023V19.0113H99.9023Z" fill="#343434"/>
<path d="M113.962 12.7396H108.12V20.9712H106.041V0.39209H114.358C117.823 0.39209 120.595 3.13597 120.595 6.56582C120.595 9.3097 118.714 11.7596 116.14 12.4456L121.19 20.9712H118.813L113.962 12.7396ZM108.219 10.7796H114.457C116.734 10.7796 118.615 8.91772 118.615 6.56582C118.615 4.21392 116.734 2.352 114.457 2.352H108.219V10.7796Z" fill="#343434"/>
<path d="M139.11 2.25337V9.79904H148.318V11.759H139.11V20.8726H137.031V0.293457H148.714V2.25337H139.11Z" fill="#343434"/>
<path d="M153.764 10.6815C153.764 4.80179 158.417 0 164.556 0C170.694 0 175.249 4.80179 175.249 10.6815C175.249 16.5613 170.595 21.3631 164.457 21.3631C158.318 21.3631 153.764 16.5613 153.764 10.6815ZM173.17 10.6815C173.17 5.87974 169.407 2.05791 164.457 2.05791C159.506 2.05791 155.744 5.87974 155.744 10.6815C155.744 15.4833 159.506 19.3052 164.457 19.3052C169.407 19.3052 173.17 15.4833 173.17 10.6815Z" fill="#343434"/>
<path d="M189.407 12.7396H183.566V20.9712H181.486V0.39209H189.803C193.269 0.39209 196.041 3.13597 196.041 6.56582C196.041 9.3097 194.16 11.7596 191.585 12.4456L196.635 20.9712H194.259L189.407 12.7396ZM183.566 10.7796H189.803C192.08 10.7796 193.962 8.91772 193.962 6.56582C193.962 4.21392 192.08 2.352 189.803 2.352H183.566V10.7796Z" fill="#343434"/>
<path d="M14.7537 49.1938H4.85275L2.87255 54.2896H0.694336L8.71414 33.7104H10.8924L18.9122 54.2896H16.7339L14.7537 49.1938ZM14.0607 47.2339L9.90226 36.2583L5.74385 47.2339H14.0607Z" fill="#343434"/>
<path d="M32.1796 46.0579H26.338V54.2896H24.2588V33.7104H32.5756C36.041 33.7104 38.8132 36.4543 38.8132 39.8842C38.8132 42.6281 36.9321 45.078 34.3578 45.7639L39.4073 54.2896H37.0311L32.1796 46.0579ZM26.338 44.098H32.5756C34.8528 44.098 36.734 42.2361 36.734 39.8842C36.734 37.5323 34.8528 35.6704 32.5756 35.6704H26.338V44.098Z" fill="#343434"/>
<path d="M57.7244 35.5722H51.2888V54.1914H49.2096V35.5722H42.7739V33.6123H57.6254V35.5722H57.7244Z" fill="#343434"/>
<path d="M65.4464 33.7104V54.2896H63.3672V33.7104H65.4464Z" fill="#343434"/>
<path d="M74.9518 35.5722V43.1179H84.1597V45.0778H74.9518V54.1914H72.8726V33.6123H84.5557V35.5722H74.9518Z" fill="#343434"/>
<path d="M92.8726 33.7104V54.2896H90.7935V33.7104H92.8726Z" fill="#343434"/>
<path d="M99.1104 43.9999C99.1104 38.1202 103.665 33.3184 110.001 33.3184C113.863 33.3184 117.229 35.2783 119.011 38.4141L117.13 39.4921C115.843 37.0422 113.071 35.3763 110.001 35.3763C104.754 35.3763 101.19 39.1981 101.19 43.9999C101.19 48.8017 104.754 52.6235 110.001 52.6235C113.071 52.6235 115.843 50.9576 117.13 48.5077L119.011 49.4877C117.328 52.5255 113.863 54.5834 110.001 54.5834C103.665 54.5834 99.1104 49.8796 99.1104 43.9999Z" fill="#343434"/>
<path d="M127.229 33.7104V54.2896H125.149V33.7104H127.229Z" fill="#343434"/>
<path d="M146.535 49.1938H136.635L134.654 54.2896H132.476L140.496 33.7104H142.674L150.694 54.2896H148.516L146.535 49.1938ZM145.743 47.2339L141.585 36.2583L137.427 47.2339H145.743Z" fill="#343434"/>
<path d="M167.625 52.3296V54.2896H156.041V33.7104H158.12V52.3296H167.625Z" fill="#343434"/>
<path d="M4.95177 67.0288V87.6079H2.87256V67.0288H4.95177Z" fill="#343434"/>
<path d="M27.823 67.0288V87.6079H26.0408L14.4567 70.8506V87.6079H12.3774V67.0288H14.1596L25.7438 83.7861V67.0288H27.823Z" fill="#343434"/>
<path d="M48.3182 68.8911H41.8825V87.5103H39.8033V68.8911H33.3677V66.9312H48.2192V68.8911H48.3182Z" fill="#343434"/>
<path d="M66.1401 85.648V87.6079H53.9619V67.0288H66.0411V68.9887H56.1401V76.2404H65.3481V78.2003H56.1401V85.648H66.1401Z" fill="#343434"/>
<path d="M83.9616 85.648V87.6079H72.3774V67.0288H74.4567V85.648H83.9616Z" fill="#343434"/>
<path d="M101.189 85.648V87.6079H89.605V67.0288H91.6842V85.648H101.189Z" fill="#343434"/>
<path d="M108.912 67.0288V87.6079H106.833V67.0288H108.912Z" fill="#343434"/>
<path d="M136.239 78.8862C136.239 83.786 132.476 87.9998 126.041 87.9998C119.605 87.9998 115.149 83.198 115.149 77.3183C115.149 71.4385 119.704 66.6367 126.041 66.6367C129.902 66.6367 133.268 68.6946 135.05 71.7325L133.169 72.8104C131.882 70.3606 129.11 68.6946 126.041 68.6946C120.793 68.6946 117.229 72.5165 117.229 77.3183C117.229 82.12 120.793 85.9419 126.041 85.9419C130.892 85.9419 133.664 83.198 134.06 79.7681H125.843V77.8082H136.239V78.8862Z" fill="#343434"/>
<path d="M154.655 85.648V87.6079H142.477V67.0288H154.457V68.9887H144.556V76.2404H153.764V78.2003H144.556V85.648H154.655Z" fill="#343434"/>
<path d="M176.338 67.0288V87.6079H174.555L162.971 70.8506V87.6079H160.892V67.0288H162.674L174.258 83.7861V67.0288H176.338Z" fill="#343434"/>
<path d="M182.575 77.3183C182.575 71.4385 187.13 66.6367 193.466 66.6367C197.328 66.6367 200.694 68.5966 202.476 71.7325L200.595 72.8104C199.308 70.3606 196.536 68.6946 193.466 68.6946C188.219 68.6946 184.654 72.5165 184.654 77.3183C184.654 82.12 188.219 85.9419 193.466 85.9419C196.536 85.9419 199.308 84.2759 200.595 81.8261L202.476 82.806C200.793 85.8439 197.328 87.9018 193.466 87.9018C187.031 87.9018 182.575 83.198 182.575 77.3183Z" fill="#343434"/>
<path d="M220.694 85.648V87.6079H208.516V67.0288H220.595V68.9887H210.694V76.2404H219.902V78.2003H210.694V85.648H220.694Z" fill="#343434"/>
</svg>
