<svg width="396" height="110" viewBox="0 0 396 110" fill="none" xmlns="http://www.w3.org/2000/svg">
<path d="M126.589 80.1711V90.4774H116.231V86.1171H105.374V87.7027H100.594V86.1171H90.136V90.4774H79.7778V80.1711H90.136V84.5315H100.594V82.9459H105.374V84.5315H116.231V80.1711H126.589Z" fill="#E52713"/>
<path d="M147.404 58.1712V68.4775H136.947V64.1171H116.23V68.4775H105.872V64.1171H88.0443V72.3423H69.8179V64.1171H49.1017V65.7027H44.321V64.1171H27.5886V68.4775H17.1309V58.1712H27.5886V62.5315H44.321V60.9459H49.1017V62.5315H69.8179V54.2072H88.0443V62.5315H105.872V58.1712H116.23V62.5315H136.947V58.1712H147.404Z" fill="#E52713"/>
<path d="M153.779 35.1802V45.4865H143.42V41.1262H129.477V42.7118H124.596V41.1262H109.856V47.964H94.518V41.1262H81.3712V42.7118H76.5905V41.1262H63.9416V51.7298H40.9346V41.1262H30.7756V45.4865H20.4175V41.1262H10.3581V45.4865H0V35.1802H10.3581V39.5406H20.4175V35.1802H30.7756V39.5406H40.9346V28.8379H63.9416V39.5406H76.5905V37.955H81.3712V39.5406H94.518V32.7028H109.856V39.5406H124.596V37.955H129.477V39.5406H143.42V35.1802H153.779Z" fill="#E52713"/>
<path d="M134.656 15.8558V26.1621H124.298V21.8018H104.976V23.3874H100.195V21.8018H78.0847V26.1621H67.7265V21.8018H32.7678V26.1621H22.4097V15.8558H32.7678V20.2162H67.7265V15.8558H78.0847V20.2162H100.195V18.6306H104.976V20.2162H124.298V15.8558H134.656Z" fill="#E52713"/>
<path d="M104.877 0V10.3063H94.5186V5.94594H81.8698V7.63063H77.0891V5.94594H64.5398V10.3063H54.1816V0H64.5398V4.36036H77.0891V2.77477H81.8698V4.36036H94.5186V0H104.877Z" fill="#E52713"/>
<path d="M117.625 99.6937H107.267V110H117.625V99.6937Z" fill="#E52713"/>
<path d="M175.69 17.9369C175.69 11.991 180.272 7.13513 186.646 7.13513C190.53 7.13513 193.917 9.11711 195.71 12.2883L193.817 13.3784C192.522 10.9009 189.734 9.21621 186.646 9.21621C181.367 9.21621 177.782 13.0811 177.782 17.9369C177.782 22.7928 181.367 26.6576 186.646 26.6576C189.734 26.6576 192.522 24.973 193.817 22.4955L195.71 23.4865C194.016 26.5586 190.53 28.6396 186.646 28.6396C180.272 28.6396 175.69 23.8829 175.69 17.9369Z" fill="black"/>
<path d="M214.135 26.3603V28.3423H201.884V7.53149H214.035V9.51348H204.075V16.8468H213.338V18.8288H204.075V26.3603H214.135Z" fill="black"/>
<path d="M235.947 7.53149V28.3423H234.154L222.501 11.3964V28.3423H220.41V7.53149H222.202L233.855 24.4774V7.53149H235.947Z" fill="black"/>
<path d="M256.563 9.41435H250.089V28.2432H247.998V9.41435H241.524V7.43237H256.464V9.41435H256.563Z" fill="black"/>
<path d="M274.491 26.3603V28.3423H262.241V7.53149H274.392V9.51348H264.432V16.8468H273.694V18.8288H264.432V26.3603H274.491Z" fill="black"/>
<path d="M288.634 20.018H282.758V28.3423H280.666V7.53149H289.032C292.518 7.53149 295.307 10.3063 295.307 13.7747C295.307 16.5495 293.414 19.027 290.825 19.7207L295.904 28.3423H293.514L288.634 20.018ZM282.857 18.036H289.132C291.423 18.036 293.315 16.1531 293.315 13.7747C293.315 11.3964 291.423 9.51348 289.132 9.51348H282.857V18.036Z" fill="black"/>
<path d="M313.931 9.41435V17.045H323.194V19.027H313.931V28.2432H311.84V7.43237H323.592V9.41435H313.931Z" fill="black"/>
<path d="M328.672 17.9369C328.672 11.991 333.353 7.13513 339.528 7.13513C345.703 7.13513 350.285 11.991 350.285 17.9369C350.285 23.8829 345.603 28.7387 339.428 28.7387C333.253 28.7387 328.672 23.8829 328.672 17.9369ZM348.193 17.9369C348.193 13.0811 344.408 9.21621 339.428 9.21621C334.449 9.21621 330.664 13.0811 330.664 17.9369C330.664 22.7928 334.449 26.6576 339.428 26.6576C344.408 26.6576 348.193 22.7928 348.193 17.9369Z" fill="black"/>
<path d="M364.527 20.018H358.651V28.3423H356.559V7.53149H364.925C368.411 7.53149 371.2 10.3063 371.2 13.7747C371.2 16.5495 369.308 19.027 366.718 19.7207L371.798 28.3423H369.407L364.527 20.018ZM358.651 18.036H364.925C367.216 18.036 369.108 16.1531 369.108 13.7747C369.108 11.3964 367.216 9.51348 364.925 9.51348H358.651V18.036Z" fill="black"/>
<path d="M188.837 56.8829H178.877L176.885 62.036H174.694L182.762 41.2252H184.953L193.02 62.036H190.829L188.837 56.8829ZM188.14 54.9009L183.957 43.8018L179.774 54.9009H188.14Z" fill="black"/>
<path d="M206.366 53.7117H200.49V62.036H198.398V41.2252H206.765C210.251 41.2252 213.039 44 213.039 47.4685C213.039 50.2432 211.147 52.7207 208.557 53.4144L213.637 62.036H211.247L206.366 53.7117ZM200.49 51.7297H206.765C209.055 51.7297 210.948 49.8468 210.948 47.4685C210.948 45.0901 209.055 43.2072 206.765 43.2072H200.49V51.7297Z" fill="black"/>
<path d="M232.063 43.1081H225.589V61.9369H223.497V43.1081H217.023V41.1261H231.963V43.1081H232.063Z" fill="black"/>
<path d="M239.831 41.2252V62.036H237.739V41.2252H239.831Z" fill="black"/>
<path d="M249.392 43.1081V50.7387H258.655V52.7207H249.392V61.9369H247.301V41.1261H259.053V43.1081H249.392Z" fill="black"/>
<path d="M267.42 41.2252V62.036H265.328V41.2252H267.42Z" fill="black"/>
<path d="M273.694 51.6307C273.694 45.6847 278.276 40.8289 284.65 40.8289C288.534 40.8289 291.921 42.8108 293.713 45.982L291.821 47.0721C290.526 44.5946 287.738 42.9099 284.65 42.9099C279.371 42.9099 275.786 46.7748 275.786 51.6307C275.786 56.4865 279.371 60.3514 284.65 60.3514C287.738 60.3514 290.526 58.6667 291.821 56.1892L293.713 57.1802C292.02 60.2523 288.534 62.3334 284.65 62.3334C278.276 62.3334 273.694 57.5766 273.694 51.6307Z" fill="black"/>
<path d="M301.98 41.2252V62.036H299.888V41.2252H301.98Z" fill="black"/>
<path d="M321.401 56.8829H311.441L309.449 62.036H307.258L315.326 41.2252H317.517L325.584 62.036H323.393L321.401 56.8829ZM320.604 54.9009L316.421 43.8018L312.238 54.9009H320.604Z" fill="black"/>
<path d="M342.616 60.054V62.036H330.963V41.2252H333.054V60.054H342.616Z" fill="black"/>
<path d="M178.977 74.9189V95.7297H176.885V74.9189H178.977Z" fill="black"/>
<path d="M201.984 74.9189V95.7297H200.191L188.538 78.7837V95.7297H186.447V74.9189H188.24L199.892 91.8648V74.9189H201.984Z" fill="black"/>
<path d="M222.601 76.8017H216.127V95.6306H214.035V76.8017H207.562V74.8198H222.501V76.8017H222.601Z" fill="black"/>
<path d="M240.528 93.7477V95.7297H228.278V74.9189H240.429V76.9009H230.469V84.2342H239.732V86.2162H230.469V93.7477H240.528Z" fill="black"/>
<path d="M258.456 93.7477V95.7297H246.803V74.9189H248.894V93.7477H258.456Z" fill="black"/>
<path d="M275.786 93.7477V95.7297H264.133V74.9189H266.224V93.7477H275.786Z" fill="black"/>
<path d="M283.554 74.9189V95.7297H281.463V74.9189H283.554Z" fill="black"/>
<path d="M311.043 86.9099C311.043 91.8649 307.258 96.1261 300.784 96.1261C294.311 96.1261 289.829 91.2703 289.829 85.3243C289.829 79.3784 294.41 74.5225 300.784 74.5225C304.669 74.5225 308.055 76.6036 309.848 79.6757L307.955 80.7658C306.661 78.2883 303.872 76.6036 300.784 76.6036C295.506 76.6036 291.92 80.4685 291.92 85.3243C291.92 90.1802 295.506 94.045 300.784 94.045C305.665 94.045 308.453 91.2703 308.852 87.8018H300.585V85.8198H311.043V86.9099Z" fill="black"/>
<path d="M329.568 93.7477V95.7297H317.318V74.9189H329.369V76.9009H319.409V84.2342H328.672V86.2162H319.409V93.7477H329.568Z" fill="black"/>
<path d="M351.38 74.9189V95.7297H349.587L337.934 78.7837V95.7297H335.843V74.9189H337.636L349.288 91.8648V74.9189H351.38Z" fill="black"/>
<path d="M357.655 85.3243C357.655 79.3784 362.236 74.5225 368.611 74.5225C372.495 74.5225 375.881 76.5045 377.674 79.6757L375.782 80.7658C374.487 78.2883 371.698 76.6036 368.611 76.6036C363.332 76.6036 359.746 80.4685 359.746 85.3243C359.746 90.1802 363.332 94.045 368.611 94.045C371.698 94.045 374.487 92.3604 375.782 89.8829L377.674 90.8739C375.981 93.9459 372.495 96.027 368.611 96.027C362.137 96.027 357.655 91.2703 357.655 85.3243Z" fill="black"/>
<path d="M396 93.7477V95.7297H383.75V74.9189H395.9V76.9009H385.941V84.2342H395.203V86.2162H385.941V93.7477H396Z" fill="black"/>
</svg>
