<svg width="33" height="33" viewBox="0 0 33 33" fill="none" xmlns="http://www.w3.org/2000/svg">
<path d="M31.3571 2.24695C31.9857 2.24695 32.5 2.69695 32.5 3.24695V5.24695C32.5 5.79695 31.9857 6.24695 31.3571 6.24695H1.64286C1.01429 6.24695 0.5 5.79695 0.5 5.24695V3.24695C0.5 2.69695 1.01429 2.24695 1.64286 2.24695H10.2143L10.8857 1.0782C11.1429 0.621948 11.8214 0.246948 12.4071 0.246948H12.4143H20.5786C21.1643 0.246948 21.85 0.621948 22.1143 1.0782L22.7857 2.24695H31.3571ZM4.3 29.4344L2.78571 8.24695H30.2143L28.7 29.4344C28.5857 30.9844 27.0571 32.2469 25.2786 32.2469H7.72143C5.94286 32.2469 4.41429 30.9844 4.3 29.4344Z" fill="#343434"/>
</svg>
