<svg width="1000" height="680" viewBox="0 0 1000 680" fill="none" xmlns="http://www.w3.org/2000/svg">
<g clip-path="url(#clip0_267_203)">
<rect width="1000" height="680" fill="#E2FAF7"/>
<g clip-path="url(#clip1_267_203)">
<path d="M565.69 145.22C565.39 113.57 539.67 88 507.95 88C487.86 88 470.19 98.26 459.84 113.82C449.17 102.22 433.91 94.91 416.91 94.91C388.44 94.91 364.77 115.29 359.59 142.25C357.99 142.1 356.38 142.01 354.74 142.01C325.61 142 302 165.61 302 194.74C302 223.87 325.61 247.48 354.74 247.48C361.15 247.48 367.26 246.28 372.94 244.19C381.3 260.31 398.11 271.34 417.53 271.34C433.67 271.34 447.99 263.7 457.18 251.87C467.14 259.33 479.47 263.81 492.87 263.81C508.04 263.81 521.84 258.1 532.37 248.77C538.94 251.57 546.18 253.13 553.78 253.13C583.95 253.13 608.41 228.67 608.41 198.5C608.41 172.42 590.12 150.65 565.69 145.21V145.22Z" fill="white" fill-opacity="0.6"/>
</g>
<g clip-path="url(#clip2_267_203)">
<path d="M1062.69 24.22C1062.39 -7.43 1036.67 -33 1004.95 -33C984.86 -33 967.19 -22.74 956.84 -7.18C946.17 -18.78 930.91 -26.09 913.91 -26.09C885.44 -26.09 861.77 -5.71 856.59 21.25C854.99 21.1 853.38 21.01 851.74 21.01C822.61 21 799 44.61 799 73.74C799 102.87 822.61 126.48 851.74 126.48C858.15 126.48 864.26 125.28 869.94 123.19C878.3 139.31 895.11 150.34 914.53 150.34C930.67 150.34 944.99 142.7 954.18 130.87C964.14 138.33 976.47 142.81 989.87 142.81C1005.04 142.81 1018.84 137.1 1029.37 127.77C1035.94 130.57 1043.18 132.13 1050.78 132.13C1080.95 132.13 1105.41 107.67 1105.41 77.5C1105.41 51.42 1087.12 29.65 1062.69 24.21V24.22Z" fill="white" fill-opacity="0.6"/>
</g>
<g clip-path="url(#clip3_267_203)">
<path d="M800.69 583.22C800.39 551.57 774.67 526 742.95 526C722.86 526 705.19 536.26 694.84 551.82C684.17 540.22 668.91 532.91 651.91 532.91C623.44 532.91 599.77 553.29 594.59 580.25C592.99 580.1 591.38 580.01 589.74 580.01C560.61 580 537 603.61 537 632.74C537 661.87 560.61 685.48 589.74 685.48C596.15 685.48 602.26 684.28 607.94 682.19C616.3 698.31 633.11 709.34 652.53 709.34C668.67 709.34 682.99 701.7 692.18 689.87C702.14 697.33 714.47 701.81 727.87 701.81C743.04 701.81 756.84 696.1 767.37 686.77C773.94 689.57 781.18 691.13 788.78 691.13C818.95 691.13 843.41 666.67 843.41 636.5C843.41 610.42 825.12 588.65 800.69 583.21V583.22Z" fill="white" fill-opacity="0.4"/>
</g>
<g clip-path="url(#clip4_267_203)">
<path d="M80.69 63.22C80.39 31.57 54.67 6 22.95 6C2.86 6 -14.81 16.26 -25.16 31.82C-35.83 20.22 -51.09 12.91 -68.09 12.91C-96.56 12.91 -120.23 33.29 -125.41 60.25C-127.01 60.1 -128.62 60.01 -130.26 60.01C-159.39 60 -183 83.61 -183 112.74C-183 141.87 -159.39 165.48 -130.26 165.48C-123.85 165.48 -117.74 164.28 -112.06 162.19C-103.7 178.31 -86.89 189.34 -67.47 189.34C-51.33 189.34 -37.01 181.7 -27.82 169.87C-17.86 177.33 -5.53 181.81 7.87 181.81C23.04 181.81 36.84 176.1 47.37 166.77C53.94 169.57 61.18 171.13 68.78 171.13C98.95 171.13 123.41 146.67 123.41 116.5C123.41 90.42 105.12 68.65 80.69 63.21V63.22Z" fill="white" fill-opacity="0.6"/>
</g>
<path d="M915.815 511.406C914.693 512.469 913.211 513 911.37 513C909.53 513 908.047 512.469 906.925 511.406C905.802 510.344 905.241 508.998 905.241 507.368C905.241 505.738 905.815 504.349 906.963 503.274C908.11 502.199 909.579 501.662 911.37 501.662C913.162 501.662 914.63 502.199 915.778 503.274C916.925 504.349 917.499 505.713 917.499 507.368C917.499 509.023 916.937 510.344 915.815 511.406ZM927.563 479.558C926.604 481.431 924.927 483.508 922.531 485.79L919.467 488.655C917.55 490.467 916.453 492.587 916.176 495.018L916.127 495.751C916.069 496.616 915.339 497.288 914.456 497.288H908.053C907.1 497.288 906.334 496.501 906.376 495.566C906.498 492.888 906.914 490.696 907.625 488.99C908.482 486.932 910.052 484.904 912.335 482.907C914.617 480.909 916.137 479.284 916.894 478.031C917.65 476.777 918.029 475.455 918.029 474.065C918.029 469.87 916.061 467.773 912.127 467.773C910.26 467.773 908.766 468.338 907.644 469.468C906.802 470.315 906.261 471.404 906.023 472.734C905.879 473.536 905.21 474.143 904.381 474.143H896.68C895.702 474.143 894.913 473.319 895.008 472.363C895.39 468.467 896.916 465.352 899.585 463.018C902.65 460.34 906.831 459 912.127 459C917.424 459 921.623 460.271 924.574 462.814C927.525 465.357 929 468.948 929 473.586C929 475.695 928.521 477.686 927.563 479.558Z" fill="#1B998B" fill-opacity="0.2"/>
<path d="M692.121 166.225C690.173 168.075 687.601 169 684.407 169C681.214 169 678.64 168.075 676.693 166.225C674.745 164.377 673.772 162.034 673.772 159.196C673.772 156.359 674.767 153.94 676.759 152.069C678.75 150.198 681.298 149.263 684.407 149.263C687.516 149.263 690.063 150.198 692.055 152.069C694.046 153.94 695.042 156.315 695.042 159.196C695.042 162.077 694.068 164.377 692.121 166.225ZM712.506 110.786C710.842 114.046 707.932 117.662 703.775 121.634L698.457 126.622C695.131 129.776 693.227 133.466 692.746 137.698L692.661 138.974C692.561 140.479 691.293 141.649 689.762 141.649H678.65C676.997 141.649 675.668 140.279 675.741 138.651C675.953 133.99 676.675 130.175 677.908 127.206C679.395 123.622 682.12 120.092 686.081 116.615C690.042 113.139 692.679 110.31 693.993 108.127C695.305 105.946 695.962 103.644 695.962 101.225C695.962 93.9224 692.548 90.2718 685.721 90.2718C682.481 90.2718 679.888 91.2552 677.941 93.2228C676.48 94.697 675.542 96.5921 675.127 98.9065C674.878 100.303 673.717 101.361 672.28 101.361H658.915C657.218 101.361 655.85 99.9256 656.013 98.2614C656.676 91.4802 659.324 86.0572 663.957 81.9951C669.274 77.3331 676.53 75 685.721 75C694.912 75 702.199 77.213 707.319 81.6389C712.44 86.0666 715 92.317 715 100.391C715 104.061 714.168 107.527 712.506 110.786Z" fill="#1B998B" fill-opacity="0.2"/>
<path d="M453.121 570.225C451.173 572.075 448.601 573 445.407 573C442.214 573 439.64 572.075 437.693 570.225C435.745 568.377 434.772 566.034 434.772 563.196C434.772 560.359 435.767 557.94 437.759 556.069C439.75 554.198 442.298 553.263 445.407 553.263C448.516 553.263 451.063 554.198 453.055 556.069C455.046 557.94 456.042 560.315 456.042 563.196C456.042 566.077 455.068 568.377 453.121 570.225ZM473.506 514.786C471.842 518.046 468.932 521.662 464.775 525.634L459.457 530.622C456.131 533.776 454.227 537.466 453.746 541.698L453.661 542.974C453.561 544.479 452.293 545.649 450.762 545.649H439.65C437.997 545.649 436.668 544.279 436.741 542.651C436.953 537.99 437.675 534.175 438.908 531.206C440.395 527.622 443.12 524.092 447.081 520.615C451.042 517.139 453.679 514.31 454.993 512.127C456.305 509.946 456.962 507.644 456.962 505.225C456.962 497.922 453.548 494.272 446.721 494.272C443.481 494.272 440.888 495.255 438.941 497.223C437.48 498.697 436.542 500.592 436.127 502.906C435.878 504.303 434.717 505.361 433.28 505.361H419.915C418.218 505.361 416.85 503.926 417.013 502.261C417.676 495.48 420.324 490.057 424.957 485.995C430.274 481.333 437.53 479 446.721 479C455.912 479 463.199 481.213 468.319 485.639C473.44 490.067 476 496.317 476 504.391C476 508.061 475.168 511.527 473.506 514.786Z" fill="#1B998B" fill-opacity="0.2"/>
<g clip-path="url(#clip5_267_203)">
<path d="M1017 698.93V605.237C1013.25 613.476 1009.78 625.198 1011.86 638.836C1012.28 641.596 1012.89 644.185 1013.63 646.614C1007.54 636.889 1007.32 629.533 1008.34 624.535C1009.83 617.129 1014.8 610.827 1013.32 610.104C1011.95 609.442 1006.62 614.41 1006.26 614.741C1001.94 618.795 993.24 629.302 994.538 653.629C992.277 647.748 991.917 642.991 991.968 639.83C992.174 627.948 998.547 622.057 998.547 607.465C998.547 606.893 998.522 599.497 997.172 599.386C995.746 599.266 994.281 607.375 990.76 615.634C988.216 621.635 983.667 629.864 974.942 639.067C975.584 630.988 977.833 619.959 985.209 608.468C993.433 595.633 1004.7 587.394 1003.69 586.641C1002.76 585.959 992.534 591.96 983.127 600.44C963.827 617.862 956.656 637.983 956.142 637.823C955.577 637.652 971.832 616.166 963.852 595.171C961.102 587.925 956.104 582.436 955.012 582.747C953.521 583.179 961.295 595.241 958.378 608.84C956.566 617.35 951.105 623.943 946.171 628.53C948.073 620.692 949.884 609.332 948.741 595.663C948.227 589.601 946.813 579.094 945.207 579.104C942.688 579.124 946.89 605.147 933.963 629.664C924.082 648.41 907.132 660.684 894.925 667.92C911.643 633.748 917.502 612.392 919.828 600.059C919.828 600.059 921.987 588.608 920.15 588.267C918.312 587.925 915.087 599.547 905.372 611.349C898.523 619.668 890.633 625.429 884.658 629.162C883.617 620.591 883.63 608.549 889.155 595.422C896.942 576.936 911.527 566.068 910.358 565.315C909.086 564.502 890.389 576.274 877.745 594.8C866.347 611.499 863.879 627.797 863.61 638.836C864.406 621.214 862.492 592.502 842.086 577.498C838.668 574.98 831.613 570.564 830.521 571.357C829.069 572.4 840.531 580.87 844.81 592.813C848.511 603.129 845.697 612.814 842.728 619.407C836.766 595.252 822.065 584.935 815.589 581.151C810.796 578.352 803.896 575.25 802.739 576.254C801.107 577.669 813.186 585.246 821.179 599.226C824.571 605.147 829.711 614.139 827.154 625.057C825.047 634.039 818.686 640.261 814.947 643.372C819.11 636.227 826.46 620.652 818.159 606.241C812.916 597.138 802.559 590.465 801.3 591.187C800.041 591.91 808.869 599.366 811.092 608.629C813.16 617.189 810.321 630.306 786.522 649.394C784.89 643.764 783.85 636.056 787.011 627.817C791.303 616.597 801.21 609.984 800.015 609.131C798.935 608.348 789.748 613.165 782.989 620.551C776.011 628.168 773.814 636.117 773.03 641.245C772.285 639.729 771.359 637.441 770.948 634.601C770.717 633.036 769.83 625.659 776.731 615.283C783.014 605.839 791.007 601.022 790.223 600.35C789.606 599.828 784.261 602.297 779.455 605.749C764.433 616.537 761.285 632.223 760.668 632.092C759.807 631.902 776.731 603.471 763.084 581.031C760.553 576.876 755.888 571.036 754.41 571.497C752.676 572.039 757.648 580.62 756.659 591.448C755.927 599.436 752.791 605.889 750.08 610.265C748.692 604.695 745.21 595.452 735.302 587.936C726.783 581.473 716.31 578.412 715.539 579.285C714.691 580.248 726.924 584.865 733.542 595.643C737.859 602.668 737.821 609.121 737.705 615.413C737.448 628.379 732.488 639.218 727.425 647.025C727.836 628.53 722.041 615.704 717.466 608.137C713.753 601.995 708.793 595.924 707.508 596.345C705.786 596.917 713.187 608.358 713.444 622.819C713.637 633.427 709.936 642.289 706.377 648.531C701.661 641.415 696.675 631.189 697.163 618.936C697.6 607.947 702.291 598.854 700.916 598.483C699.721 598.162 695.223 604.675 692.563 611.529C689.518 619.377 689.453 626.342 689.929 631.119C688.747 629.423 687.269 627.044 685.971 624.074C685.329 622.579 683.157 617.32 682.913 609.773C682.656 601.393 684.93 594.971 686.704 590.113C690.019 581.021 693.861 576.104 692.872 575.652C691.766 575.14 685.457 580.73 681.152 586.942C677.567 592.1 672.838 601.313 673.764 615.423C667.853 593.445 654.63 583.751 647.909 579.797C642.911 576.856 636.589 574.197 635.856 574.899C634.828 575.883 646.445 581.934 652.407 592.582C656.892 600.601 656.288 607.836 655.774 613.908C654.347 630.958 644.8 644.015 638.272 651.29C640.482 641.997 642.692 624.827 632.978 606.511C624.612 590.756 610.606 580.148 608.409 581.172C605.247 582.647 629.161 606.923 618.843 630.727C617.262 634.37 615.219 637.241 613.549 639.258C608.524 630.296 603.191 617.812 601.984 602.628C600.596 585.065 605.26 570.584 603.269 570.263C601.688 570.002 597.704 578.944 595.559 586.32C592.744 595.984 592.693 604.274 593.143 609.904C593.181 606.23 592.706 594.208 581.424 585.437C569.756 576.374 552.524 575.461 551.869 576.786C551.136 578.241 569.1 580.82 577.723 591.719C586.191 602.417 582.117 616.658 576.438 628.098C579.457 616.326 576.322 608.559 573.778 604.314C571.028 599.737 566.44 595.031 565.194 595.482C564.217 595.834 565.978 599.185 567.121 605.398C567.687 608.468 568.702 614.229 567.61 620.451C567.019 623.793 565.515 628.971 561.185 634.882C555.724 629.563 550.057 622.147 549.131 612.924C547.975 601.353 554.811 592.291 553.141 591.729C551.701 591.237 545.482 597.7 542.861 605.528C540.676 612.051 541.589 617.751 542.539 621.204C540.74 618.986 537.926 614.911 537.554 609.663C536.603 595.824 553.488 585.427 551.843 584.192C550.635 583.279 540.136 588.086 531.925 596.988C523.496 606.13 521.8 614.931 520.36 614.67C518.651 614.369 523.419 602.146 519.461 586.541C518.253 581.794 515.169 571.838 513.126 572.019C510.312 572.27 514.141 591.328 508.628 614.42C505.287 628.419 499.543 639.539 494.982 647.035C492.63 639.268 490.561 627.285 495.624 614.169C500.096 602.578 508.217 595.081 506.547 594.097C504.812 593.074 493.851 599.938 486.95 609.653C482.08 616.497 480.654 622.769 479.857 622.619C479.06 622.468 481.399 616.106 481.463 607.134C481.489 603.581 481.181 596.054 477.634 587.313C475.372 581.744 470.939 573.625 468.96 574.016C466.763 574.448 469.963 585.326 469.603 596.345C469.282 606.22 465.953 620.421 451.613 637.742C456.791 629.895 463.461 616.627 460.929 600.861C458.59 586.27 448.991 573.294 446.409 573.886C444.121 574.407 448.529 585.356 448.195 598.603C447.694 618.073 437.131 634.26 426.273 646.212C423.536 640.713 420.259 632.534 419.179 622.438C416.699 599.196 427.506 581.141 425.283 580.539C423.433 580.037 416.16 592.552 412.754 598.854C407.743 608.107 404.505 616.075 402.474 621.685C402.474 616.206 401.883 608.197 398.941 598.854C395.882 589.17 390.807 579.676 389.226 579.997C387.427 580.359 393.21 592.632 390.807 606.301C388.185 621.264 376.71 632.544 366.816 640C365.312 637.672 362.806 633.206 362.318 627.456C360.519 606.17 388.301 589.742 385.769 587.815C383.868 586.37 370.414 593.074 360.069 602.618C348.196 613.567 343.673 625.238 341.758 632.223C342.748 626.021 342.799 616.296 335.333 608.388C331.607 604.444 326.518 600.871 325.053 601.614C323.383 602.457 327.572 608.368 329.872 615.162C331.954 621.304 333.303 630.567 328.908 643.262C325.593 639.639 320.234 632.775 318.063 623.191C317.202 619.397 315.172 610.435 319.695 600.942C326.107 587.514 341.437 581.874 340.306 580.579C339.214 579.335 323.999 583.319 312.422 592.572C296.218 605.528 294.29 623.12 294.213 631.962C290.371 622.609 287.377 609.633 294.123 597.208C299.841 586.671 310.52 580.298 309.312 579.275C308.065 578.231 295.164 583.62 286.824 592.572C274.103 606.21 276.544 623.211 278.472 631.209C278.947 625.69 278.613 617.39 273.653 608.629C269.875 601.955 264.517 596.988 263.694 597.339C262.782 597.72 268.577 603.983 268.308 612.202C268.128 618.093 264.902 622.96 261.767 626.442C262.833 620.371 263.347 611.288 259.505 601.142C253.479 585.226 239.305 573.514 237.031 574.508C235.09 575.351 243.289 584.734 246.887 602.608C248.21 609.161 250.086 619.096 246.887 631.38C244.137 641.937 238.74 649.906 234.782 654.793C234.641 655.004 234.846 654.361 234.846 654.361C235.013 654.08 242.376 629.714 236.08 612.292C232.405 602.146 224.258 594.77 222.574 595.332C220.3 596.084 231.094 611.038 227.714 629.453C226.083 638.385 221.598 645.45 217.756 650.277C216.008 642.74 214.312 631.54 215.828 618.163C218.27 596.616 227.586 582.115 225.144 581.282C223.05 580.569 213.875 590.404 208.452 602.578C202.13 616.748 202.683 629.704 202.657 629.704C202.631 629.704 206.036 612.703 202.606 592.803C201.064 583.881 197.864 572.661 195.41 572.782C192.93 572.912 193.379 584.604 189.678 600.209C186.402 614.038 181.223 625.108 177.06 632.715C180.182 624.877 183.472 613.396 182.624 599.597C181.763 585.507 176.867 573.003 174.824 573.183C173.025 573.334 175.865 583.018 170.211 596.586C168.836 599.898 168.155 600.52 160.856 613.767C157.862 619.207 155.433 623.692 153.827 626.693C152.825 620.341 152.144 610.716 154.791 599.346C157.078 589.531 161.087 581.663 159.931 581.282C158.761 580.901 153.416 588.467 149.972 594.077C135.143 618.253 133.961 642.258 133.909 642.248C133.858 642.248 137.944 621.585 135.092 601.273C134.796 599.135 133.948 593.656 130.376 587.223C125.647 578.683 117.744 571.387 115.817 572.17C113.773 572.992 121.406 581.663 122.242 595.583C122.91 606.662 118.926 615.373 114.532 625.017C111.769 631.069 107.49 638.937 100.705 647.587C97.9551 637.381 96.3489 623.502 102.106 608.619C109.366 589.852 126.379 577.719 124.593 576.505C123.218 575.572 112.321 582.145 103.712 590.806C88.973 605.648 85.6063 621.966 84.7582 631.45C85.375 617.972 81.9055 608.067 78.6544 601.594C76.8811 598.051 72.9876 591.187 71.2657 591.558C69.4667 591.94 71.4327 600.039 72.2294 609.121C72.8976 616.808 72.9747 627.787 69.9807 641.405C63.5942 631.089 56.7066 615.523 61.2684 598.302C64.6094 585.688 73.0004 576.324 71.2657 575.501C69.4667 574.648 58.2229 583.731 52.0035 595.643C46.4009 606.371 46.4395 616.437 47.2747 623C39.9759 608.86 39.4234 597.77 40.4257 590.053C41.3509 582.898 44.0108 575.542 42.5716 575.17C41.2866 574.839 37.3674 580.238 34.9645 585.286C27.1259 601.825 33.4353 619.026 33.3582 618.655C31.2122 608.85 27.7813 601.333 24.8258 596.024C24.5945 595.603 20.0199 587.484 18.9019 587.795C18.1567 587.996 19.6601 591.749 20.8295 597.58C22.3714 605.307 23.9134 613.025 20.187 620.662C19.0947 622.91 17.0259 626.181 12.901 629.664C10.9606 622.92 9.3801 613.306 12.0529 602.337C16.2292 585.146 28.4752 574.297 25.4811 572.4C22.9882 570.825 12.644 577.217 6.1676 582.536C-3.8554 590.695 -8.62275 599.527 -11 605.237V698.93H1017Z" fill="#5A871A" fill-opacity="0.2"/>
<path d="M290.975 698.93H320.812C323.177 684.81 324.732 660.995 313.244 635.796C296.706 599.507 261.664 579.074 258.413 581.683C255.072 584.373 287.749 609.803 294.239 653.177C296.976 671.492 294.213 687.419 290.962 698.93H290.975Z" fill="#81B539" fill-opacity="0.2"/>
<path d="M822.965 698.93C835.173 699.191 847.393 698.669 859.601 698.93C862.967 686.345 866.643 666.575 862.363 642.248C853.947 594.378 820.19 563.238 817.748 564.874C815.731 566.219 836.445 588.598 840.3 623.873C843.538 653.428 833.592 679.581 822.965 698.92V698.93Z" fill="#81B539" fill-opacity="0.2"/>
<path d="M1002.71 698.93C1002.71 698.93 976.445 698.699 963.312 698.93C966.872 691.674 971.37 682.351 975.34 669.786C976.869 664.939 980.377 653.82 981.662 644.225C986.083 611.278 965.677 585.798 968.838 584.212C971.305 582.968 985.98 597.409 995.797 617.761C1011.54 650.407 1007.02 681.307 1002.71 698.93Z" fill="#70A32E" fill-opacity="0.2"/>
<path d="M979.054 698.93H949.242C947.109 689.506 947.134 676.711 948.651 660.473C951.696 627.827 967.617 599.547 971.781 600.57C974.813 601.313 969.904 617.069 970.457 644.135C970.945 667.699 975.301 686.064 979.054 698.93Z" fill="#70A32E" fill-opacity="0.2"/>
<path d="M858.264 698.93H899.821C895.837 678.477 893.884 650.949 903.624 617.952C911.064 592.753 922.951 572.902 919.25 572.079C915.241 571.196 895.85 593.224 882.46 615.554C862.517 648.802 858.315 677.785 858.277 698.93H858.264Z" fill="#70A32E" fill-opacity="0.2"/>
<path d="M920.856 698.93C931.046 699.191 941.237 698.669 951.427 698.93C956.168 681.317 960.923 652.063 947.122 621.364C938.705 602.648 925.084 587.394 922.54 588.618C919.623 590.013 934.323 611.459 935.955 640.081C937.304 663.865 929.145 684.278 920.869 698.93H920.856Z" fill="#81B539" fill-opacity="0.2"/>
<path d="M929.029 698.93C917.361 698.93 905.706 698.93 894.038 698.93C899.576 687.308 905.706 671.311 906.336 650.698C907.286 619.186 894.848 595.974 897.392 594.82C899.769 593.746 912.247 613.255 920.291 637.813C928.373 662.49 929.466 683.756 929.029 698.93Z" fill="#70A32E" fill-opacity="0.2"/>
<path d="M241.554 653.96C255.843 617.802 286.272 594.128 289.343 596.004C292.003 597.62 272.188 617.22 264.016 651.692C259.518 670.679 260.199 687.328 261.677 698.93C257.616 698.94 253.517 698.95 249.392 698.93C244.034 698.9 238.74 699.02 233.51 698.93C233.343 687.76 234.615 671.573 241.567 653.96H241.554Z" fill="#70A32E" fill-opacity="0.2"/>
<path d="M206.885 698.93C212.526 688.784 219.555 673.489 222.87 654.191C227.65 626.352 222.009 605.839 224.798 605.378C227.65 604.896 236.388 625.81 238.933 649.484C241.143 670.057 238.11 687.349 235.065 698.93C225.569 698.98 216.394 698.88 206.885 698.93Z" fill="#81B539" fill-opacity="0.2"/>
<path d="M53.9315 645.942C46.6199 609.843 26.4711 582.105 23.6826 583.149C21.2797 584.052 34.0911 605.347 35.2733 636.578C36.2499 662.39 28.874 683.977 21.8965 698.93C32.8318 698.94 43.8314 698.859 54.7668 698.93C56.8613 686.225 58.3262 667.598 53.9444 645.942H53.9315Z" fill="#70A32E" fill-opacity="0.2"/>
<path d="M28.1925 645.4C39.1664 596.727 64.4038 568.828 61.6025 567.172C58.4157 565.295 21.4719 598.884 5.06246 649.514C-1.27259 669.064 -2.99449 686.355 -3.29004 698.93C1.10466 698.91 5.52506 698.93 9.95831 698.93C14.443 698.93 18.9148 698.91 23.3737 698.93C22.8469 685.723 23.3095 667.046 28.1925 645.4Z" fill="#81B539" fill-opacity="0.2"/>
<path d="M589.108 643.984C586.628 599.657 557.677 568.657 560.966 566.57C563.498 564.954 582.67 582.024 596.137 606.521C615.861 642.399 611.968 698.93 611.968 698.93H580.318C580.318 698.93 590.277 664.788 589.108 643.984Z" fill="#70A32E" fill-opacity="0.2"/>
<path d="M748.435 628.74C742.845 599.186 727.181 579.365 730.676 577.348C734.261 575.281 755.374 593.586 767.286 617.762C783.001 649.675 777.578 681.478 772.824 698.93H741.174C747.882 681.046 753.677 656.419 748.448 628.74H748.435Z" fill="#70A32E" fill-opacity="0.2"/>
<path d="M744.336 698.93C741.136 684.83 738.9 665.069 744.58 643.051C754.14 605.95 780.997 582.466 778.632 580.71C776.692 579.265 756.993 594.077 741.367 615.995C719.034 647.326 714.704 679.601 714.01 698.93H744.349H744.336Z" fill="#8DC73F" fill-opacity="0.2"/>
<path d="M256.331 698.93H279.641C279.859 682.782 278.073 659.289 267.768 634.18C249.867 590.615 216.162 566.148 214.119 568.055C212.076 569.972 243.442 596.937 254.134 644.817C258.888 666.143 258.104 685.131 256.331 698.93Z" fill="#81B539" fill-opacity="0.2"/>
<path d="M276.365 698.93H299.675C296.257 677.092 295.203 647.878 306.267 617.39C316.02 590.505 331.055 574.066 329.538 572.902C327.611 571.427 300.549 595.272 286.041 631.892C275.221 659.229 275.183 684.137 276.365 698.94V698.93Z" fill="#70A32E" fill-opacity="0.2"/>
<path d="M651.135 698.93H688.477C679.996 679.812 671.579 651.863 679.058 621.455C684.982 597.359 698.731 580.459 696.187 578.823C693.36 576.997 672.466 595.693 660.207 620.632C645.237 651.08 647.832 681.267 651.135 698.93Z" fill="#81B539" fill-opacity="0.2"/>
<path d="M695.75 698.93H719.664C714.254 675.346 714.729 654.06 719.522 634.812C723.981 616.928 732.038 601.363 730.445 600.701C728.929 600.069 720.024 613.597 713.74 625.991C705.812 641.616 696.919 665.531 695.75 698.93Z" fill="#81B539" fill-opacity="0.2"/>
<path d="M434.368 698.93H455.699C456.997 684.468 457.858 663.464 455.121 638.475C450.52 596.516 437.632 560.328 434.368 561C431.477 561.602 438.004 590.746 437.824 639.639C437.734 664.628 435.935 685.171 434.368 698.92V698.93Z" fill="#8DC73F" fill-opacity="0.2"/>
<path d="M175.209 698.93H141.683C146.515 686.997 151.128 669.917 148.108 649.835C141.85 608.218 107.836 579.917 110.317 578.733C112.385 577.749 137.456 596.817 154.983 625.539C172.588 654.371 175.466 681.257 175.209 698.93Z" fill="#8DC73F" fill-opacity="0.2"/>
<path d="M367.728 698.93H394.032C391.372 683.344 388.661 660.062 390.382 631.992C392.824 591.98 402.898 564.603 399.879 563.569C396.91 562.556 383.829 587.735 375.772 616.377C366.494 649.374 366.237 678.577 367.741 698.94L367.728 698.93Z" fill="#81B539" fill-opacity="0.2"/>
<path d="M105.421 698.93H74.709C73.6425 682.572 73.424 658.526 78.397 630.045C84.6292 594.308 96.811 564.261 99.5095 564.823C102.157 565.375 92.6348 594.689 94.3695 635.986C95.4875 662.651 100.884 684.398 105.421 698.92V698.93Z" fill="#70A32E" fill-opacity="0.2"/>
<path d="M77.3951 698.93H51.9007C59.2766 674.513 63.9283 642.71 52.993 609.312C43.741 581.021 26.7404 562.134 28.5394 561.05C30.6597 559.766 57.8117 584.152 71.6383 619.347C84.4369 651.933 81.0574 681.729 77.408 698.93H77.3951Z" fill="#81B539" fill-opacity="0.2"/>
<path d="M130.26 698.93H98.1093C96.0147 682.511 95.1923 655.415 107.862 625.991C124.053 588.377 154.765 564.492 157.977 566.59C161.653 568.988 125.942 603.19 123.822 654.783C123.077 672.837 126.649 688.071 130.247 698.93H130.26Z" fill="#70A32E" fill-opacity="0.2"/>
<path d="M418.112 698.93H391.77C389.071 651.572 402.86 621.505 411.52 606.702C419.487 593.094 430.076 580.479 432.337 581.784C435.537 583.62 418.125 610.696 414.45 648.35C412.42 669.184 415.221 686.837 418.1 698.93H418.112Z" fill="#70A32E" fill-opacity="0.2"/>
<path d="M771.064 698.93H802.97C799.115 687.328 795.466 670.709 798.19 651.441C802.186 623.06 817.825 604.304 815.268 602.859C812.801 601.464 795.941 617.581 784.633 639.408C772.786 662.28 770.82 684.117 771.077 698.93H771.064Z" fill="#81B539" fill-opacity="0.2"/>
<path d="M587.45 698.93C578.969 657.824 585.227 628.239 596.149 606.843C606.121 587.323 620.732 573.023 618.933 571.477C616.812 569.671 593.58 586.43 577.748 609.05C555.595 640.713 553.565 675.978 555.004 698.93C565.823 698.799 576.643 699.06 587.45 698.93Z" fill="#81B539" fill-opacity="0.2"/>
<path d="M319.104 698.93H344.508C342.247 678.226 341.501 651.491 348.17 625.499C357.101 590.685 374.564 575.802 373.356 572.822C372.842 571.557 347.618 591.358 332.146 623.903C316.893 655.997 317.857 685.612 319.104 698.94V698.93Z" fill="#81B539" fill-opacity="0.2"/>
<path d="M342.259 698.93H370.786C370.722 682.863 369.039 659.59 361.033 633.046C353.683 608.679 342.773 587.484 340.434 588.588C337.697 589.872 348.401 615.293 348.222 652.324C348.132 671.934 345.009 688.061 342.272 698.93H342.259Z" fill="#70A32E" fill-opacity="0.2"/>
<path d="M557.484 698.93H531.681C530.769 684.699 530.962 663.895 537.066 639.9C545.135 608.187 560.62 582.366 563.408 583.339C565.952 584.232 555.698 606.772 553.308 640.904C551.612 665.15 554.58 685.331 557.497 698.93H557.484Z" fill="#70A32E" fill-opacity="0.2"/>
<path d="M534.354 698.93H495.56C508.692 681.277 521.529 657.222 520.99 628.831C520.373 596.305 502.473 573.524 506.418 571.427C510.311 569.36 530.73 589.893 538.813 617.651C539.378 619.588 541.126 625.83 542.128 635.705C543.477 649.002 543.709 671.041 534.354 698.92V698.93Z" fill="#81B539" fill-opacity="0.2"/>
<path d="M214.029 698.93H188.239C185.168 683.906 182.315 660.082 188.239 632.604C194.009 605.859 206.499 583.008 209.853 584.172C213.631 585.487 202.04 616.196 206.371 660.172C207.99 676.61 211.344 689.958 214.042 698.93H214.029Z" fill="#70A32E" fill-opacity="0.2"/>
<path d="M413.526 698.93H440.536C439.894 686.154 439.778 667.157 442.939 644.526C449.043 600.721 463.127 574.066 459.747 572.41C456.29 570.714 437.234 596.536 425.528 628.64C415.338 656.589 413.449 681.799 413.526 698.93Z" fill="#70A32E" fill-opacity="0.2"/>
<path d="M795.004 698.93H828.774C826.743 672.516 829.21 638.746 849.205 607.615C860.77 589.601 874.262 578.622 872.669 577.077C870.279 574.759 834.749 594.148 813.276 629.262C795.621 658.125 794.592 685.964 795.004 698.93Z" fill="#70A32E" fill-opacity="0.2"/>
<path d="M678.775 698.93H704.938C706.762 682.361 707.122 657.563 697.703 630.085C685.046 593.194 659.821 566.319 656.352 568.165C653.126 569.891 670.924 595.322 677.914 636.919C682.193 662.37 680.78 684.097 678.775 698.93Z" fill="#70A32E" fill-opacity="0.2"/>
<path d="M194.33 698.93H162.963C156.152 653.93 164.376 622.629 172.382 603.25C178.036 589.551 188.265 570.494 190.745 571.297C193.006 572.029 187.635 589.08 184.962 601.885C180.298 624.214 179.09 656.278 194.33 698.94V698.93Z" fill="#81B539" fill-opacity="0.2"/>
<path d="M482.903 698.93H454.337C451.394 680.173 449.827 651.1 461.88 620.431C473.715 590.304 495.226 567.453 498.503 569.41C500.97 570.875 491.821 585.517 484.586 617.38C478.791 642.891 478.765 659.359 478.816 663.584C478.983 677.905 480.911 689.968 482.903 698.93Z" fill="#70A32E" fill-opacity="0.2"/>
<path d="M475.141 698.93H505.57C501.33 683.314 498.798 662.591 506.855 641.285C517.868 612.152 543.156 596.526 540.908 594.228C538.736 592.02 512.869 604.053 495.29 626.573C474.306 653.448 474.036 683.896 475.141 698.92V698.93Z" fill="#70A32E" fill-opacity="0.2"/>
<path d="M18.3237 563.639C15.2911 562.706 0.65495 586.039 -9.44515 609.683C-9.98485 610.957 -10.486 612.212 -11 613.476V698.92H3.66185C0.654949 677.263 -0.8228 647.176 6.5274 612.222C12.1428 585.537 21.125 564.513 18.3237 563.639Z" fill="#70A32E" fill-opacity="0.2"/>
<path d="M122.511 698.93H149.034C144.677 685.442 141.349 667.097 146.721 647.216C154.996 616.607 179.655 598.081 177.278 596.034C175.26 594.298 155.651 605.869 141.542 624.525C120.622 652.194 120.982 683.274 122.524 698.93H122.511Z" fill="#70A32E" fill-opacity="0.2"/>
<path d="M624.407 698.93H652.972C654.206 690.129 655.221 678.046 654.283 663.785C651.122 615.574 627.928 576.826 624.227 578C621.567 578.843 630.806 599.587 631.937 634.571C632.811 661.517 628.455 683.816 624.407 698.93Z" fill="#70A32E" fill-opacity="0.2"/>
<path d="M632.156 698.93H601.727C607.317 684.799 611.531 666.444 606.289 647.236C597.705 615.734 568.471 599.356 570.527 596.998C572.506 594.74 601.945 607.144 619.216 634.13C635.175 659.068 633.878 685.713 632.143 698.93H632.156Z" fill="#8DC73F" fill-opacity="0.2"/>
<path d="M335.693 663.153C323.228 634.371 296.693 615.524 294.02 617.009C291.707 618.303 308.977 633.899 316.109 661.346C320.041 676.46 319.437 689.687 318.152 698.92C321.699 698.93 325.271 698.94 328.869 698.92C333.534 698.89 338.16 698.99 342.722 698.92C342.863 690.028 341.758 677.162 335.693 663.153Z" fill="#8DC73F" fill-opacity="0.2"/>
<path d="M289.728 641.988C281.62 636.849 271.546 632.434 270.364 633.618C269.066 634.912 279.795 641.626 286.555 650.126C293.956 659.44 299.289 674.312 292.324 698.93C298.672 698.94 305.02 698.93 311.381 698.93C315.236 698.93 319.091 698.93 322.959 698.93C322.959 691.253 321.596 679.009 313.719 665.933C310.88 661.226 303.632 650.819 289.728 641.988Z" fill="#81B539" fill-opacity="0.2"/>
<path d="M42.7898 637.211C32.8311 631.641 20.4437 626.854 18.9788 628.138C17.3725 629.543 30.5695 636.819 38.8834 646.032C47.9812 656.128 54.5347 672.245 45.9766 698.93C53.7766 698.94 61.5894 698.93 69.4022 698.93C74.1438 698.93 78.8855 698.93 83.6271 698.93C83.6271 690.61 81.9566 677.333 72.2806 663.163C68.7982 658.065 59.8803 646.774 42.7898 637.211Z" fill="#8DC73F" fill-opacity="0.2"/>
<path d="M364.914 698.93C363.552 693.781 362.177 686.154 363.025 677.042C364.952 656.208 377.018 643.222 374.089 642.168C371.249 641.155 356.587 652.194 348.44 666.535C341.128 679.4 341.18 691.373 342.233 698.92C349.879 698.97 357.268 698.869 364.914 698.92V698.93Z" fill="#8DC73F" fill-opacity="0.2"/>
<path d="M1007.07 698.93C1005.7 691.303 1004.33 680.003 1005.18 666.515C1007.11 635.645 1019.17 616.407 1016.24 614.861C1013.4 613.356 998.74 629.714 990.593 650.959C983.282 670.017 983.333 687.76 984.387 698.94C992.032 699.01 999.421 698.87 1007.07 698.94V698.93Z" fill="#8DC73F" fill-opacity="0.2"/>
<path d="M437.285 698.93C438.416 691.343 439.56 680.113 438.866 666.705C437.26 636.026 427.224 616.909 429.652 615.363C432.017 613.868 444.211 630.125 450.996 651.24C457.074 670.188 457.036 687.82 456.162 698.93C449.801 699 443.659 698.86 437.285 698.93Z" fill="#81B539" fill-opacity="0.2"/>
<path d="M3.81568 698.93C5.34483 690.801 6.87398 678.758 5.92308 664.387C3.76428 631.49 -9.68967 610.997 -6.42577 609.342C-3.26467 607.736 13.1062 625.178 22.204 647.808C30.3638 668.12 30.2995 687.017 29.1302 698.93C20.5978 699 12.3609 698.859 3.81568 698.93Z" fill="#8DC73F" fill-opacity="0.2"/>
<path d="M481.283 698.93C477.968 690.951 474.563 679.611 475.012 666.213C475.976 637.692 493.722 619.277 490.882 617.139C488.209 615.112 469.5 629.473 458.847 651.632C449.955 670.127 449.621 688.171 450.392 698.93C460.8 699 470.862 698.859 481.27 698.93H481.283Z" fill="#8DC73F" fill-opacity="0.2"/>
<path d="M91.0421 624.957C84.1417 618.273 75.5579 612.543 74.5556 614.088C73.4505 615.774 82.5868 624.495 88.3436 635.534C94.653 647.627 99.189 666.956 93.2652 698.94C98.6622 698.96 104.072 698.94 109.495 698.94C112.771 698.94 116.061 698.94 119.351 698.94C119.351 688.964 118.194 673.058 111.486 656.077C109.071 649.966 102.903 636.438 91.055 624.967L91.0421 624.957Z" fill="#81B539" fill-opacity="0.2"/>
<path d="M132.65 698.93C130.62 693.731 128.538 686.345 128.821 677.624C129.412 659.048 140.257 647.056 138.523 645.661C136.891 644.336 125.454 653.699 118.952 668.13C113.517 680.183 113.311 691.935 113.787 698.94C120.147 698.98 126.29 698.9 132.663 698.94L132.65 698.93Z" fill="#8DC73F" fill-opacity="0.2"/>
<path d="M565.965 698.93H540.831C543.311 687.118 545.045 671.071 541.345 653.539C534.508 621.123 513.332 603.611 515.169 601.373C516.981 599.165 539.815 613.747 553.745 641.566C564.68 663.414 566.158 685.492 565.978 698.93H565.965Z" fill="#8DC73F" fill-opacity="0.2"/>
<path d="M546.575 698.93H522.352C523.727 688.723 523.586 675.236 516.518 662.059C508.14 646.433 494.416 639.449 495.65 637.983C497.192 636.157 520.798 644.406 534.894 663.564C544.878 677.122 546.433 691.192 546.587 698.93H546.575Z" fill="#8DC73F" fill-opacity="0.2"/>
<path d="M666.028 698.93H690.751C690.173 690.289 690.058 677.423 692.949 662.109C698.539 632.464 711.414 614.419 708.33 613.295C705.169 612.141 687.732 629.623 677.015 651.351C667.686 670.268 665.964 687.338 666.028 698.93Z" fill="#8DC73F" fill-opacity="0.2"/>
<path d="M643.631 698.93H663.253C664.717 688.713 664.82 674.222 657.83 657.854C643.952 625.419 610.092 604.264 607.663 605.217C605.312 606.15 634.314 627.356 642.988 661.928C646.74 676.891 645.532 689.777 643.631 698.92V698.93Z" fill="#8DC73F" fill-opacity="0.2"/>
<path d="M224.656 637.211C232.726 631.641 242.762 626.854 243.944 628.138C245.242 629.543 234.551 636.819 227.817 646.032C220.441 656.128 215.134 672.245 222.073 698.93C215.751 698.94 209.429 698.93 203.094 698.93C199.252 698.93 195.41 698.93 191.567 698.93C191.567 690.61 192.917 677.333 200.768 663.163C203.595 658.065 210.804 646.774 224.656 637.211Z" fill="#8DC73F" fill-opacity="0.2"/>
<path d="M908.7 698.93H882.177C886.534 685.442 889.862 665.922 884.49 646.042C876.215 615.433 851.556 596.907 853.933 594.86C855.951 593.124 875.56 604.695 889.669 623.351C910.589 651.02 910.229 683.274 908.687 698.93H908.7Z" fill="#81B539" fill-opacity="0.2"/>
<path d="M739.144 663.203C751.608 634.421 778.144 615.574 780.816 617.059C783.129 618.354 765.859 633.949 758.727 661.396C754.795 676.51 755.399 689.697 756.684 698.93C753.138 698.94 749.565 698.95 745.967 698.93C741.303 698.9 736.677 699 732.115 698.93C731.974 690.038 733.079 677.213 739.144 663.203Z" fill="#81B539" fill-opacity="0.2"/>
<path d="M881.24 617.621C891.198 610.275 903.586 603.983 905.051 605.669C906.657 607.525 893.46 617.099 885.146 629.242C876.048 642.54 869.495 663.775 878.053 698.93C870.253 698.95 862.44 698.93 854.627 698.93C849.886 698.93 845.144 698.93 840.402 698.93C840.402 687.971 842.073 670.479 851.749 651.812C855.231 645.099 864.149 630.226 881.24 617.621Z" fill="#8DC73F" fill-opacity="0.2"/>
<path d="M983.796 586.25C990.696 576.063 999.28 567.332 1000.28 569.681C1001.39 572.25 992.251 585.537 986.494 602.367C980.185 620.802 975.649 650.187 981.573 698.94C976.176 698.97 970.766 698.94 965.343 698.94C962.066 698.94 958.777 698.94 955.487 698.94C955.487 683.746 956.644 659.55 963.351 633.668C965.767 624.355 971.935 603.732 983.783 586.26L983.796 586.25Z" fill="#8DC73F" fill-opacity="0.2"/>
<path d="M812.8 629.955C804.73 623.723 794.695 618.384 793.512 619.819C792.214 621.394 802.906 629.513 809.639 639.81C817.015 651.09 822.322 669.104 815.396 698.92C821.718 698.94 828.04 698.92 834.375 698.92C838.217 698.92 842.06 698.92 845.902 698.92C845.902 689.627 844.553 674.784 836.701 658.958C833.874 653.258 826.665 640.643 812.813 629.955H812.8Z" fill="#8DC73F" fill-opacity="0.2"/>
<path d="M384.291 698.93H405.275C407.498 690.5 409.22 675.878 402.718 660.112C395.188 641.877 378.689 628.871 375.939 630.376C373.536 631.701 383.302 643.392 386.591 662.882C389.071 677.544 386.797 690.189 384.291 698.92V698.93Z" fill="#8DC73F" fill-opacity="0.2"/>
</g>
</g>
<defs>
<clipPath id="clip0_267_203">
<rect width="1000" height="680" fill="white"/>
</clipPath>
<clipPath id="clip1_267_203">
<rect width="306.41" height="183.35" fill="white" transform="translate(302 88)"/>
</clipPath>
<clipPath id="clip2_267_203">
<rect width="306.41" height="183.35" fill="white" transform="translate(799 -33)"/>
</clipPath>
<clipPath id="clip3_267_203">
<rect width="306.41" height="183.35" fill="white" transform="translate(537 526)"/>
</clipPath>
<clipPath id="clip4_267_203">
<rect width="306.41" height="183.35" fill="white" transform="translate(-183 6)"/>
</clipPath>
<clipPath id="clip5_267_203">
<rect width="1028" height="138" fill="white" transform="translate(-11 561)"/>
</clipPath>
</defs>
</svg>
