<svg width="56" height="53" viewBox="0 0 56 53" fill="none" xmlns="http://www.w3.org/2000/svg">
<g clip-path="url(#clip0_1831_8756)">
<path fill-rule="evenodd" clip-rule="evenodd" d="M6.79948 0H49.1823C50.9827 0.00931924 52.7066 0.709425 53.9797 1.94828C55.2528 3.18713 55.9722 4.8647 55.9818 6.61668V37.4827C55.9723 39.2286 55.2579 40.9009 53.9926 42.1387C52.7274 43.3766 51.0128 44.0808 49.2188 44.0994H48.1478C48.0822 43.338 47.8993 42.5905 47.6055 41.882H49.2188C50.4122 41.8773 51.5554 41.4136 52.3989 40.592C53.2424 39.7703 53.7178 38.6574 53.7214 37.496V6.61668C53.7214 5.45299 53.2476 4.33669 52.4037 3.51217C51.5598 2.68765 50.4146 2.22208 49.2188 2.21739H6.83594C6.23953 2.21388 5.64827 2.32502 5.09611 2.54443C4.54395 2.76384 4.04174 3.08719 3.61832 3.49594C3.19489 3.90468 2.85858 4.39077 2.62869 4.92631C2.39879 5.46185 2.27984 6.0363 2.27865 6.61668V37.4827C2.28463 38.6442 2.76142 39.7564 3.60538 40.5776C4.44934 41.3989 5.59228 41.8629 6.78581 41.8687H8.20312C8.35286 41.8783 8.49918 41.9165 8.63369 41.9813C8.76819 42.0461 8.88822 42.136 8.98688 42.2461C9.08555 42.3561 9.16091 42.484 9.20863 42.6224C9.25635 42.7609 9.2755 42.9071 9.26497 43.0528L8.80925 49.3058L17.3177 42.1925C17.4237 42.0896 17.5495 42.008 17.6879 41.9525C17.8263 41.8969 17.9746 41.8685 18.1243 41.8687H32.2793C31.9898 42.5776 31.8131 43.3253 31.7552 44.0861H18.5391L8.22591 52.7339C8.05435 52.8746 7.84418 52.9634 7.62137 52.9891C7.39856 53.0149 7.17287 52.9766 6.97218 52.879C6.77149 52.7813 6.60459 52.6286 6.4921 52.4397C6.37961 52.2508 6.32645 52.0339 6.33919 51.8159L6.89063 44.095H6.79948C4.99988 44.0857 3.27665 43.3862 2.0037 42.1483C0.730747 40.9104 0.0107723 39.2339 0 37.4827L0 6.61668C0.0095767 4.8647 0.729023 3.18713 2.0021 1.94828C3.27518 0.709425 4.9991 0.00931924 6.79948 0ZM9.92122 27.4113V24.4267H18.0332V27.4113H15.9232V34.9992H12.1634V27.4113H9.92122ZM15.8092 19.8323V16.1381H13.6719V19.8323H9.92122V9.25538H13.6719V13.1535H15.7956V9.25538H19.5964V19.8323H15.8092ZM24.3678 14.5461C24.3314 15.2013 24.4227 15.8574 24.6367 16.4796C24.7368 16.6796 24.8988 16.8441 25.0999 16.9499C25.301 17.0556 25.531 17.0975 25.7578 17.0695C25.9859 17.1033 26.2191 17.0647 26.4227 16.9592C26.6264 16.8537 26.7896 16.6871 26.888 16.4841C27.0997 15.8568 27.1879 15.1963 27.1478 14.5372C27.183 13.8797 27.0949 13.2216 26.888 12.5948C26.7896 12.3962 26.6288 12.2333 26.4289 12.1296C26.2289 12.026 26.0003 11.9869 25.776 12.0182C25.5482 11.991 25.3173 12.0336 25.1155 12.1401C24.9137 12.2466 24.7511 12.4118 24.6504 12.6125C24.4356 13.2346 24.3443 13.8908 24.3815 14.5461H24.3678ZM30.9212 14.5461C30.9212 16.4708 30.5111 17.8677 29.6908 18.7369C28.8704 19.6061 27.5595 20.0393 25.7578 20.0363C23.9349 20.0363 22.6406 19.5928 21.8158 18.7059C20.9909 17.8189 20.5762 16.4353 20.5762 14.515C20.5762 12.5948 20.9863 11.1978 21.8066 10.3286C22.627 9.45938 23.944 9.0292 25.7487 9.0292C27.5534 9.0292 28.8704 9.47268 29.6908 10.3286C30.5111 11.1845 30.9212 12.5948 30.9212 14.5239V14.5461ZM32.6849 19.8323L31.4043 9.25538H35.1504L35.6699 16.1381H35.9616L36.6908 9.41503H40.7923L41.6081 16.1381H41.8997L42.2233 9.25538H46.0013L44.8027 19.8323H39.3021L38.7689 13.3265H38.6048L38.0534 19.8323H32.6849ZM22.3307 29.713C22.2939 30.3683 22.3851 31.0244 22.5996 31.6466C22.6977 31.8435 22.8558 32.0062 23.0523 32.1125C23.2488 32.2188 23.4743 32.2636 23.6979 32.2408C23.9229 32.2686 24.1512 32.2271 24.3506 32.1221C24.5501 32.0171 24.7107 31.8539 24.8099 31.6554C25.0142 31.0281 25.1006 30.3701 25.0651 29.713C25.1033 29.0575 25.0183 28.4008 24.8145 27.775C24.7173 27.574 24.5563 27.4086 24.3553 27.3032C24.1543 27.1978 23.9239 27.158 23.6979 27.1896C23.4705 27.1613 23.2397 27.2029 23.0378 27.3087C22.8359 27.4145 22.6732 27.5791 22.5723 27.7794C22.3675 28.4034 22.2855 29.0594 22.3307 29.713ZM28.8841 29.713C28.8841 31.6377 28.474 33.0346 27.6536 33.9039C26.8288 34.7908 25.5208 35.2077 23.7207 35.2077C21.9206 35.2077 20.6035 34.7642 19.7786 33.8772C18.9538 32.9903 18.5117 31.6244 18.5117 29.713C18.5117 27.8016 18.9264 26.4002 19.7467 25.531C20.5671 24.6618 21.875 24.2183 23.6979 24.2183C25.5208 24.2183 26.8151 24.6618 27.64 25.5221C28.4648 26.3825 28.8704 27.7883 28.8704 29.713H28.8841Z" fill="#5E5E5E"/>
<path d="M37.192 40.5028V39.9795C37.1679 39.0092 37.2659 38.0397 37.4837 37.0925C37.6386 36.4603 37.9359 35.8696 38.3541 35.3629C38.764 34.907 39.2381 34.5099 39.7624 34.1833C40.2454 33.8773 40.6738 33.5846 41.0566 33.2963C41.4066 33.0493 41.7142 32.7499 41.9681 32.4094C42.1908 32.0856 42.3069 31.7035 42.3008 31.314C42.3084 30.9733 42.2151 30.6376 42.0319 30.3472C41.8531 30.0703 41.6013 29.8452 41.3027 29.6953C40.9816 29.5446 40.6293 29.4672 40.2728 29.4691C39.8808 29.4642 39.4944 29.559 39.1517 29.7441C38.813 29.9199 38.5284 30.1801 38.3268 30.498C38.1183 30.8348 38.0124 31.2224 38.0215 31.6155H32.2337C32.1812 30.2281 32.5747 28.8592 33.3594 27.6996C34.0933 26.6967 35.1138 25.9256 36.2943 25.4822C37.5729 25.0014 38.934 24.7621 40.3047 24.7771C41.771 24.7528 43.2298 24.9856 44.6113 25.4645C45.7843 25.8545 46.8205 26.5585 47.6009 27.4956C48.3509 28.4911 48.7346 29.7034 48.6901 30.937C48.7186 31.7024 48.577 32.4647 48.2749 33.1719C47.9729 33.8791 47.5176 34.5145 46.9401 35.0348C46.3557 35.5695 45.7087 36.0354 45.0123 36.4228C44.5228 36.6903 44.0644 37.0085 43.6452 37.3719C43.2893 37.6795 43.0049 38.0575 42.8112 38.4806C42.611 38.9557 42.5147 39.4662 42.5286 39.9795V40.5028H37.192ZM39.9264 47.8779C39.5113 47.8841 39.0992 47.8088 38.7147 47.6564C38.3302 47.504 37.9812 47.2776 37.6888 46.9909C37.3906 46.7088 37.1557 46.3697 36.9989 45.995C36.842 45.6202 36.7666 45.2179 36.7773 44.8134C36.7678 44.4143 36.8439 44.0177 37.0008 43.6489C37.1578 43.28 37.3921 42.9471 37.6888 42.6714C38.2778 42.1027 39.0739 41.7836 39.9036 41.7836C40.7334 41.7836 41.5295 42.1027 42.1185 42.6714C42.4236 42.9399 42.6685 43.2667 42.8379 43.6314C43.0072 43.9962 43.0974 44.391 43.1028 44.7913C43.1002 45.3382 42.9425 45.8737 42.6471 46.339C42.3543 46.7978 41.9506 47.1799 41.4713 47.4521C41.0057 47.7266 40.4708 47.8694 39.9264 47.8646V47.8779Z" fill="#188F82"/>
</g>
<defs>
<clipPath id="clip0_1831_8756">
<rect width="56" height="53" fill="white"/>
</clipPath>
</defs>
</svg>
