<svg width="380" height="680" viewBox="0 0 380 680" fill="none" xmlns="http://www.w3.org/2000/svg">
<g clip-path="url(#clip0_261_1604)">
<path d="M380 0H0V680H380V0Z" fill="#43ACA1"/>
<g opacity="0.2">
<path d="M178.003 172.311V187.442C178.003 187.675 177.818 187.907 177.542 187.907H117.031L109.985 171.847H177.542C177.772 171.847 178.003 172.032 178.003 172.311Z" fill="#1B998B"/>
<path d="M117.581 140.89V156.022L117.12 156.486H67.7079L60.6621 140.565L117.167 140.426C117.397 140.426 117.627 140.611 117.627 140.89H117.581Z" fill="#002D69"/>
<path d="M177.7 109.464V124.317C177.7 124.549 177.516 124.781 177.24 124.781H87.5325C85.4602 124.781 84.0326 125.663 83.1116 127.752L55.6653 187.722C55.6653 187.722 55.435 188 55.2508 188H39.4554C39.133 188 38.9027 187.675 39.0409 187.397L69.3424 120.279C72.4738 112.296 78.1841 109.139 86.9338 109.046C87.1641 109 87.3943 109 87.6246 109H177.24C177.47 109 177.7 109.186 177.7 109.464Z" fill="#1B998B"/>
</g>
<g opacity="0.2">
<path d="M328.001 218.439V223.802C328.001 223.885 327.935 223.967 327.835 223.967H306.069L303.534 218.275H327.835C327.918 218.275 328.001 218.341 328.001 218.439Z" fill="#1B998B"/>
<path d="M307.576 207.303V212.666L307.41 212.83H289.636L287.102 207.188L307.427 207.138C307.51 207.138 307.593 207.204 307.593 207.303H307.576Z" fill="#002D69"/>
<path d="M327.892 196.165V201.429C327.892 201.511 327.826 201.593 327.726 201.593H295.458C294.712 201.593 294.199 201.906 293.867 202.646L283.995 223.901C283.995 223.901 283.912 224 283.846 224H278.164C278.048 224 277.965 223.885 278.015 223.786L288.915 199.998C290.041 197.168 292.095 196.049 295.242 196.016C295.325 196 295.408 196 295.491 196H327.726C327.809 196 327.892 196.066 327.892 196.165Z" fill="#1B998B"/>
</g>
<g opacity="0.2">
<path d="M303.001 34.0491V40.753C303.001 40.8558 302.919 40.9587 302.795 40.9587H275.805L272.662 33.8435H302.795C302.898 33.8435 303.001 33.9258 303.001 34.0491Z" fill="#1B998B"/>
<path d="M276.554 20.1285V26.8324L276.349 27.038H254.309L251.166 19.9845L276.369 19.9229C276.472 19.9229 276.575 20.0051 276.575 20.1285H276.554Z" fill="#002D69"/>
<path d="M302.866 6.20564V12.7861C302.866 12.889 302.784 12.9918 302.661 12.9918H262.648C261.723 12.9918 261.086 13.3825 260.676 14.3079L248.433 40.8766C248.433 40.8766 248.331 41 248.249 41H241.203C241.059 41 240.957 40.856 241.018 40.7327L254.534 10.9971C255.931 7.46005 258.478 6.06169 262.381 6.02056C262.483 6 262.586 6 262.689 6H302.661C302.764 6 302.866 6.08226 302.866 6.20564Z" fill="#1B998B"/>
</g>
<g opacity="0.2">
<path d="M131.001 62.0491V68.753C131.001 68.8558 130.919 68.9587 130.795 68.9587H103.805L100.662 61.8435H130.795C130.898 61.8435 131.001 61.9258 131.001 62.0491Z" fill="#1B998B"/>
<path d="M120.554 48.1286V54.8325L120.349 55.0381H98.3087L95.166 47.9847L120.369 47.923C120.472 47.923 120.575 48.0052 120.575 48.1286H120.554Z" fill="#002D69"/>
<path d="M130.866 34.2056V40.7861C130.866 40.889 130.784 40.9918 130.661 40.9918H90.6476C89.7233 40.9918 89.0865 41.3825 88.6757 42.3079L76.4334 68.8766C76.4334 68.8766 76.3307 69 76.2486 69H69.2031C69.0593 69 68.9566 68.856 69.0182 68.7327L82.534 38.9971C83.9308 35.46 86.4778 34.0617 90.3806 34.0206C90.4833 34 90.586 34 90.6887 34H130.661C130.764 34 130.866 34.0823 130.866 34.2056Z" fill="#1B998B"/>
</g>
<g opacity="0.2">
<path d="M328.002 129.872V139.64C328.002 139.79 327.883 139.94 327.704 139.94H288.524L283.962 129.572H327.704C327.853 129.572 328.002 129.692 328.002 129.872Z" fill="#1B998B"/>
<path d="M312.836 109.587V119.356L312.538 119.656H280.544L275.982 109.378L312.568 109.288C312.717 109.288 312.866 109.408 312.866 109.587H312.836Z" fill="#002D69"/>
<path d="M327.806 89.2996V98.8884C327.806 99.0382 327.687 99.188 327.508 99.188H269.424C268.082 99.188 267.158 99.7573 266.561 101.106L248.79 139.82C248.79 139.82 248.641 140 248.522 140H238.295C238.086 140 237.937 139.79 238.026 139.61L257.646 96.2814C259.674 91.1275 263.371 89.0899 269.036 89.03C269.185 89 269.334 89 269.484 89H327.508C327.657 89 327.806 89.1199 327.806 89.2996Z" fill="#1B998B"/>
</g>
<g opacity="0.2">
<path d="M241.001 625.056V632.718C241.001 632.835 240.907 632.953 240.766 632.953H209.858L206.259 624.821H240.766C240.884 624.821 241.001 624.915 241.001 625.056Z" fill="#1B998B"/>
<path d="M210.074 609.235V616.897L209.838 617.132H184.599L181 609.071L209.862 609C209.98 609 210.097 609.094 210.097 609.235H210.074Z" fill="#002D69"/>
<path d="M240.847 593.235V600.756C240.847 600.873 240.753 600.991 240.612 600.991H194.79C193.731 600.991 193.002 601.437 192.532 602.495L178.512 632.859C178.512 632.859 178.395 633 178.301 633H170.233C170.068 633 169.95 632.835 170.021 632.694L185.499 598.711C187.098 594.669 190.015 593.071 194.484 593.024C194.602 593 194.719 593 194.837 593H240.612C240.729 593 240.847 593.094 240.847 593.235Z" fill="#1B998B"/>
</g>
<g opacity="0.2">
<path d="M335.001 486.255V493.725C335.001 493.839 334.91 493.954 334.773 493.954H304.735L301.237 486.026H334.773C334.887 486.026 335.001 486.117 335.001 486.255Z" fill="#1B998B"/>
<path d="M305.375 470.743V478.213L305.146 478.442H280.618L277.12 470.583L305.169 470.514C305.283 470.514 305.398 470.606 305.398 470.743H305.375Z" fill="#002D69"/>
<path d="M334.851 455.229V462.562C334.851 462.676 334.76 462.791 334.623 462.791H290.092C289.063 462.791 288.354 463.226 287.897 464.257L274.273 493.863C274.273 493.863 274.158 494 274.067 494H266.226C266.066 494 265.952 493.84 266.02 493.702L281.062 460.568C282.617 456.627 285.451 455.069 289.794 455.023C289.909 455 290.023 455 290.137 455H334.623C334.737 455 334.851 455.092 334.851 455.229Z" fill="#1B998B"/>
</g>
<g opacity="0.2">
<path d="M170.003 553.311V568.442C170.003 568.675 169.818 568.907 169.542 568.907H109.031L101.985 552.847H169.542C169.772 552.847 170.003 553.032 170.003 553.311Z" fill="#1B998B"/>
<path d="M146.581 521.89V537.022L146.12 537.486H96.7079L89.6621 521.565L146.167 521.426C146.397 521.426 146.627 521.612 146.627 521.89H146.581Z" fill="#002D69"/>
<path d="M169.7 490.464V505.317C169.7 505.549 169.516 505.781 169.24 505.781H79.5325C77.4602 505.781 76.0326 506.663 75.1116 508.752L47.6653 568.722C47.6653 568.722 47.435 569 47.2508 569H31.4554C31.133 569 30.9027 568.675 31.0409 568.397L61.3424 501.279C64.4738 493.296 70.1841 490.139 78.9338 490.046C79.1641 490 79.3943 490 79.6246 490H169.24C169.47 490 169.7 490.186 169.7 490.464Z" fill="#1B998B"/>
</g>
</g>
<defs>
<clipPath id="clip0_261_1604">
<rect width="380" height="680" fill="white"/>
</clipPath>
</defs>
</svg>
