<svg width="542" height="56" viewBox="0 0 542 56" fill="none" xmlns="http://www.w3.org/2000/svg"><g clip-path="url(#clip0_1119_1644)">
<path d="M99 44.8788V55.605C99 55.7695 98.8688 55.9341 98.672 55.9341H55.5744L50.5562 44.5498H98.672C98.836 44.5498 99 44.6814 99 44.8788Z" fill="#1B998B"/>
<path class="blueBox" d="M82.3213 22.6044V33.3306L81.9934 33.6596H46.8002L41.782 22.3741L82.0262 22.2754C82.1901 22.2754 82.3541 22.407 82.3541 22.6044H82.3213Z" fill="#002D69"/>
<path d="M98.7864 0.329025V10.8578C98.7864 11.0223 98.6552 11.1868 98.4584 11.1868H34.5663C33.0904 11.1868 32.0736 11.812 31.4176 13.2926L11.8695 55.8026C11.8695 55.8026 11.7055 56 11.5743 56H0.324321C0.0947288 56 -0.0692653 55.7697 0.0291312 55.5723L21.6108 7.9953C23.8411 2.33608 27.9081 0.0987074 34.1399 0.0329025C34.3039 0 34.4679 0 34.6319 0H98.4584C98.6224 0 98.7864 0.13161 98.7864 0.329025Z" fill="#1B998B"/>
<path d="M179.08 54.801H167.911L159.954 41.442H134.842L139.222 33.923H155.501L143.675 14.067L119.585 54.801H109L139.514 3.993C140.609 2.168 141.996 1 144.04 1C146.084 1 147.398 2.168 148.493 3.993L179.08 54.801Z" fill="#002D69"/>
<path d="M255.676 54.801H246.478L236.331 17.498L221.293 52.027C220.271 54.29 218.811 55.531 216.548 55.531C214.358 55.531 212.752 54.29 211.803 52.027L196.838 17.498L186.691 54.801H177.566L191.217 4.869C191.874 2.314 193.334 1.073 195.816 1.073C197.787 1.073 199.612 2.168 200.488 4.212L216.84 41.734L233.192 4.212C234.068 2.168 235.674 1.073 237.645 1.073C239.908 1.073 241.368 2.314 242.098 4.869L255.676 54.801Z" fill="#002D69"/>
<path d="M301.972 31.368V1.73H311.024V31.368C311.024 47.793 302.921 55.531 282.335 55.531C261.895 55.531 253.719 47.793 253.719 31.368V1.73H263.282V31.368C263.282 42.026 268.027 46.406 282.627 46.406C297.227 46.406 301.972 42.026 301.972 31.368Z" fill="#002D69"/>
<path d="M379.686 54.801H332.236V1.73H379.613V11.001H341.434V45.53H379.686V54.801ZM367 32H333.02L333.024 27.301V24H367V32Z" fill="#1B998B"/>
<path d="M410.184 52.538L379.67 1.73H390.985L415.075 42.61L439.092 1.73H449.75L419.163 52.538C418.068 54.363 416.608 55.531 414.71 55.531C412.666 55.531 411.279 54.363 410.184 52.538Z" fill="#1B998B"/>
<path d="M495.118 54.801H483.949L475.992 41.442H450.88L455.26 33.923H471.539L459.713 14.067L435.623 54.801H425.038L455.552 3.993C456.647 2.168 458.034 1 460.078 1C462.122 1 463.436 2.168 464.531 3.993L495.118 54.801Z" fill="#1B998B"/>
<path d="M541.419 54.801H496.451V28.2655V1.73H505.722V45.53H541.419V54.801Z" fill="#1B998B"/>
<rect class="greenBox" x="313" y="24" width="29" height="8" fill="#1B998B"/>
</g>
<defs>
<clipPath id="clip0_1119_1644">
<rect width="541.419" height="55.531" fill="white"/>
</clipPath>
</defs>
    <style>
        @keyframes moveLeftToRight {
            0% {
                transform: translateX(-25px);
            }
            10% {
                transform: translateX(-25px);
            }
            50% {
                transform: translateX(0);
            }
            60% {
                transform: translateX(0);
            }
            100% {
                transform: translateX(-25px);
            }
        }

        @keyframes wideAndNarrow {
            0% {
                transform: translateX(0);
            }
            10% {
                transform: translateX(0);
            }
            50% {
                transform: translateX(20px);
            }
            60% {
                transform: translateX(20px);
            }
            100% {
                transform: translateX(0);
            }
        }

        .blueBox {
            animation: moveLeftToRight 4s linear infinite;
            animation-timing-function: cubic-bezier(0.6, 0.01, 0.22, 0.99);
        }
        .greenBox {
            animation: wideAndNarrow 4s linear infinite;
            animation-timing-function: cubic-bezier(0.6, 0.01, 0.22, 0.99);
        }
    </style>
</svg>
