<svg width="24" height="24" viewBox="0 0 24 24" fill="none" xmlns="http://www.w3.org/2000/svg">
<path d="M14.1361 3.36136H14.8361V3.32644L14.8327 3.2917L14.1361 3.36136ZM14.1361 3.36137H13.4361V3.39629L13.4396 3.43103L14.1361 3.36137ZM14.4309 4.81738L14.9875 4.39294L14.9875 4.39294L14.4309 4.81738ZM15.3596 5.20208L15.2662 4.50835L15.2662 4.50835L15.3596 5.20208ZM16.5975 4.38101L16.2092 3.79857L16.1808 3.81756L16.1543 3.83924L16.5975 4.38101ZM16.5975 4.381L16.9858 4.96344L17.0143 4.94445L17.0408 4.92277L16.5975 4.381ZM17.2847 3.90923L17.4978 4.576L17.4978 4.576L17.2847 3.90923ZM17.9869 3.94425L17.7085 4.5865L17.7085 4.5865L17.9869 3.94425ZM18.6237 4.48206L19.1186 3.98709L19.1186 3.98709L18.6237 4.48206ZM19.5173 5.37568L20.0123 4.88071L20.0123 4.88071L19.5173 5.37568ZM20.0553 6.01274L20.6976 5.73442L20.6976 5.73442L20.0553 6.01274ZM20.0903 6.71466L20.7571 6.92769L20.7571 6.92769L20.0903 6.71466ZM19.6184 7.40207L20.1415 7.86713L20.1511 7.85642L20.1601 7.84534L19.6184 7.40207ZM19.6184 7.40209L19.0952 6.93703L19.0856 6.94774L19.0766 6.95882L19.6184 7.40209ZM18.797 8.64049L18.1033 8.54715L18.1033 8.54715L18.797 8.64049ZM19.1816 9.56889L18.757 10.1254L18.757 10.1254L19.1816 9.56889ZM20.6383 9.86383L20.5686 10.5604L20.5686 10.5604L20.6383 9.86383ZM21.4585 10.0163L21.7795 9.39422L21.7795 9.39421L21.4585 10.0163ZM21.9299 10.5372L22.5808 10.2797L22.5808 10.2797L21.9299 10.5372ZM21.9301 13.4624L22.5811 13.7196L22.5811 13.7196L21.9301 13.4624ZM21.4581 13.9839L21.7788 14.6061L21.7788 14.6061L21.4581 13.9839ZM20.639 14.1361L20.7086 14.8326L20.7086 14.8326L20.639 14.1361ZM19.1837 14.4307L19.608 14.9874L19.608 14.9874L19.1837 14.4307ZM18.7988 15.3598L19.4925 15.2661L19.4925 15.2661L18.7988 15.3598ZM19.6198 16.5974L19.078 17.0407L19.078 17.0407L19.6198 16.5974ZM20.0918 17.2848L19.425 17.4979L19.425 17.4979L20.0918 17.2848ZM20.0568 17.9869L20.699 18.2653L20.699 18.2653L20.0568 17.9869ZM17.988 20.0555L17.7098 19.4131L17.7098 19.4131L17.988 20.0555ZM17.2866 20.0905L17.0738 20.7573L17.0738 20.7573L17.2866 20.0905ZM16.5986 19.6182L17.0419 19.0764L17.0419 19.0764L16.5986 19.6182ZM15.3591 18.7963L15.4521 18.1025L15.4521 18.1025L15.3591 18.7963ZM14.4315 19.1805L14.9878 19.6053L14.9878 19.6053L14.4315 19.1805ZM14.1362 20.6382L13.4397 20.5685L13.4397 20.5685L14.1362 20.6382ZM13.9836 21.4587L13.3616 21.1376L13.3616 21.1376L13.9836 21.4587ZM13.463 21.9298L13.7206 22.5807L13.7206 22.5807L13.463 21.9298ZM10.5372 21.9299L10.7947 21.279L10.7947 21.279L10.5372 21.9299ZM10.0163 21.4585L10.6384 21.1375L10.6384 21.1375L10.0163 21.4585ZM9.86384 20.6384L10.5604 20.5688L10.5604 20.5688L9.86384 20.6384ZM9.56879 19.1815L10.1253 18.7569L10.1253 18.7569L9.56879 19.1815ZM8.64068 18.7971L8.54747 18.1033L8.54747 18.1033L8.64068 18.7971ZM7.40177 19.6187L7.84504 20.1605L7.84504 20.1605L7.40177 19.6187ZM6.71395 20.0909L6.92685 20.7577L6.92685 20.7577L6.71395 20.0909ZM6.01237 20.0559L6.29057 19.4135L6.29057 19.4135L6.01237 20.0559ZM5.37498 19.5177L5.86996 19.0227L5.86996 19.0227L5.37498 19.5177ZM4.48169 18.6244L3.95489 19.0853L3.97024 19.1029L3.98672 19.1193L4.48169 18.6244ZM4.48168 18.6244L5.00849 18.1634L4.99314 18.1459L4.97666 18.1294L4.48168 18.6244ZM3.94364 17.9872L3.30134 18.2655L3.30134 18.2655L3.94364 17.9872ZM3.90864 17.2854L3.24183 17.0724L3.24183 17.0724L3.90864 17.2854ZM4.3807 16.5978L4.92247 17.0411L4.92247 17.0411L4.3807 16.5978ZM5.202 15.3596L5.89573 15.453L5.89573 15.453L5.202 15.3596ZM4.81733 14.4309L4.39286 14.9875L4.39286 14.9875L4.81733 14.4309ZM3.36128 14.1361L3.43094 13.4396L3.3962 13.4361H3.36128V14.1361ZM3.36128 14.1361L3.29162 14.8327L3.32636 14.8361H3.36128V14.1361ZM2.54172 13.9838L2.22092 14.606L2.22092 14.606L2.54172 13.9838ZM2.07 13.4626L1.41901 13.7199L1.41901 13.7199L2.07 13.4626ZM2.07017 10.537L2.72105 10.7946L2.72105 10.7946L2.07017 10.537ZM2.54131 10.0164L2.86239 10.6384L2.86239 10.6384L2.54131 10.0164ZM3.36203 9.8638L3.43168 10.5603L3.43168 10.5603L3.36203 9.8638ZM4.81934 9.5687L4.39468 9.01223L4.39468 9.01223L4.81934 9.5687ZM5.20377 8.6406L5.89754 8.5474L5.89754 8.5474L5.20377 8.6406ZM4.38221 7.40176L3.82221 7.82176L3.83108 7.83359L3.84044 7.84503L4.38221 7.40176ZM4.3822 7.40176L4.9422 6.98176L4.91235 6.94196L4.87718 6.90678L4.3822 7.40176ZM4.3822 7.40175L3.84043 7.84502L3.86254 7.87204L3.88723 7.89673L4.3822 7.40175ZM3.91012 6.71408L4.57695 6.50114L4.57695 6.50114L3.91012 6.71408ZM3.94512 6.0124L3.30279 5.73417L3.30279 5.73417L3.94512 6.0124ZM5.3769 4.4815L5.87187 4.97647L5.87187 4.97647L5.3769 4.4815ZM6.01346 3.94385L6.29196 4.58607L6.29196 4.58607L6.01346 3.94385ZM6.7159 3.90882L6.50269 4.57556L6.50269 4.57556L6.7159 3.90882ZM7.40281 4.38046L7.86376 3.85366L7.85504 3.84603L7.84607 3.83869L7.40281 4.38046ZM7.40281 4.38047L6.94186 4.90727L6.95058 4.9149L6.95954 4.92224L7.40281 4.38047ZM8.64023 5.20129L8.73386 4.50758L8.73386 4.50758L8.64023 5.20129ZM9.56932 4.81645L10.126 5.24077L10.126 5.24077L9.56932 4.81645ZM9.86389 3.36106L9.16737 3.29141L9.16737 3.29141L9.86389 3.36106ZM10.0161 2.54188L10.6383 2.86256L10.6383 2.86256L10.0161 2.54188ZM10.5376 2.06994L10.7948 2.72098L10.7948 2.72098L10.5376 2.06994ZM13.4626 2.07001L13.2053 2.721L13.2053 2.721L13.4626 2.07001ZM13.9838 2.5417L14.606 2.22089L14.606 2.22089L13.9838 2.5417ZM14.8361 3.36136V3.36136H13.4361V3.36136H14.8361ZM14.8361 3.36137V3.36136H13.4361V3.36137H14.8361ZM14.9875 4.39294C15.006 4.41721 14.976 4.39521 14.9388 4.18872C14.9029 3.98892 14.8749 3.71375 14.8327 3.29172L13.4396 3.43103C13.4795 3.82957 13.513 4.16985 13.561 4.43662C13.6078 4.6967 13.6841 4.99241 13.8742 5.24181L14.9875 4.39294ZM15.2662 4.50835C15.1593 4.52275 15.0529 4.47869 14.9875 4.39294L13.8742 5.24181C14.2447 5.72773 14.8475 5.97741 15.4531 5.89581L15.2662 4.50835ZM16.1543 3.83924C15.826 4.1078 15.6117 4.28253 15.445 4.39838C15.2727 4.51811 15.2359 4.51242 15.2662 4.50835L15.4531 5.89581C15.7639 5.85392 16.027 5.69879 16.244 5.54798C16.4665 5.39329 16.7308 5.17639 17.0408 4.92278L16.1543 3.83924ZM16.2092 3.79857L16.2092 3.79857L16.9858 4.96344L16.9858 4.96344L16.2092 3.79857ZM17.0716 3.24246C16.884 3.30241 16.7294 3.39636 16.5933 3.49332C16.4629 3.58623 16.3157 3.70719 16.1543 3.83923L17.0408 4.92277C17.2166 4.77896 17.3222 4.69302 17.4057 4.6335C17.4836 4.57803 17.504 4.57402 17.4978 4.576L17.0716 3.24246ZM18.2653 3.302C17.8877 3.13832 17.4636 3.11716 17.0716 3.24246L17.4978 4.576C17.567 4.55388 17.6418 4.55762 17.7085 4.5865L18.2653 3.302ZM19.1186 3.98709C18.9712 3.83964 18.8367 3.70462 18.7162 3.5992C18.5904 3.48918 18.4459 3.38032 18.2653 3.302L17.7085 4.5865C17.7025 4.58393 17.7224 4.58995 17.7944 4.65289C17.8716 4.72043 17.9681 4.81644 18.1287 4.97704L19.1186 3.98709ZM20.0123 4.88071L19.1186 3.98709L18.1287 4.97704L19.0223 5.87066L20.0123 4.88071ZM20.6976 5.73442C20.6193 5.55368 20.5104 5.40914 20.4003 5.28333C20.2948 5.16278 20.1598 5.02822 20.0123 4.88071L19.0223 5.87066C19.183 6.03131 19.279 6.12788 19.3466 6.20511C19.4095 6.27709 19.4156 6.297 19.413 6.29106L20.6976 5.73442ZM20.7571 6.92769C20.8823 6.53583 20.8611 6.11187 20.6976 5.73442L19.413 6.29106C19.4419 6.35767 19.4456 6.43248 19.4235 6.50163L20.7571 6.92769ZM20.1601 7.84534C20.2922 7.68389 20.4132 7.53656 20.5062 7.40611C20.6032 7.26997 20.6971 7.11532 20.7571 6.92769L19.4235 6.50163C19.4255 6.49546 19.4215 6.51587 19.366 6.59375C19.3064 6.67732 19.2205 6.78297 19.0766 6.95881L20.1601 7.84534ZM20.1415 7.86714L20.1415 7.86713L19.0952 6.93702L19.0952 6.93703L20.1415 7.86714ZM19.4908 8.73382C19.4867 8.76407 19.481 8.72727 19.6008 8.55494C19.7167 8.38818 19.8915 8.17373 20.1601 7.84535L19.0766 6.95882C18.8229 7.26892 18.6059 7.53331 18.4511 7.75596C18.3003 7.97304 18.1451 8.23621 18.1033 8.54715L19.4908 8.73382ZM19.6061 9.01234C19.5204 8.94697 19.4764 8.84065 19.4908 8.73382L18.1033 8.54715C18.0218 9.15249 18.2714 9.75499 18.757 10.1254L19.6061 9.01234ZM20.7079 9.1673C20.2857 9.12508 20.0104 9.09703 19.8105 9.06106C19.6038 9.02388 19.5818 8.99382 19.6061 9.01234L18.757 10.1254C19.0065 10.3157 19.3023 10.3921 19.5625 10.4389C19.8294 10.487 20.1699 10.5205 20.5686 10.5604L20.7079 9.1673ZM21.7795 9.39421C21.6043 9.30386 21.4284 9.26092 21.2635 9.23323C21.1055 9.20669 20.9156 9.18807 20.7079 9.1673L20.5686 10.5604C20.7948 10.583 20.9304 10.5969 21.0317 10.6139C21.1261 10.6297 21.1433 10.6414 21.1376 10.6384L21.7795 9.39421ZM22.5808 10.2797C22.4296 9.89735 22.1449 9.58275 21.7795 9.39422L21.1376 10.6384C21.202 10.6716 21.2523 10.7272 21.279 10.7947L22.5808 10.2797ZM22.7 11.3684C22.7 11.1597 22.7004 10.969 22.6897 10.8091C22.6785 10.6422 22.6533 10.463 22.5808 10.2797L21.279 10.7946C21.2766 10.7886 21.2864 10.807 21.2928 10.9024C21.2996 11.0048 21.3 11.1411 21.3 11.3684H22.7ZM22.7 12.6322V11.3684H21.3V12.6322H22.7ZM22.5811 13.7196C22.6534 13.5365 22.6786 13.3574 22.6897 13.1908C22.7004 13.0311 22.7 12.8406 22.7 12.6322H21.3C21.3 12.8592 21.2996 12.9953 21.2928 13.0976C21.2865 13.1929 21.2766 13.2112 21.279 13.2052L22.5811 13.7196ZM21.7788 14.6061C22.1448 14.4175 22.4299 14.1025 22.5811 13.7196L21.279 13.2052C21.2523 13.2728 21.202 13.3284 21.1374 13.3617L21.7788 14.6061ZM20.7086 14.8326C20.916 14.8119 21.1056 14.7933 21.2634 14.7668C21.4282 14.7392 21.6038 14.6963 21.7788 14.6061L21.1374 13.3617C21.1432 13.3587 21.1259 13.3703 21.0317 13.3861C20.9306 13.4031 20.7952 13.417 20.5693 13.4396L20.7086 14.8326ZM19.608 14.9874C19.5837 15.0059 19.6057 14.9759 19.8121 14.9388C20.0118 14.9028 20.2868 14.8748 20.7086 14.8326L20.5693 13.4396C20.171 13.4794 19.8309 13.5129 19.5642 13.5609C19.3043 13.6076 19.0087 13.6839 18.7594 13.8739L19.608 14.9874ZM19.4925 15.2661C19.4781 15.1592 19.5222 15.0528 19.608 14.9874L18.7594 13.8739C18.2731 14.2445 18.0233 14.8476 18.1051 15.4534L19.4925 15.2661ZM20.1616 16.1541C19.8931 15.826 19.7184 15.6116 19.6025 15.4449C19.4828 15.2727 19.4884 15.2359 19.4925 15.2661L18.1051 15.4534C18.147 15.7641 18.3022 16.0271 18.4529 16.244C18.6076 16.4665 18.8245 16.7307 19.078 17.0407L20.1616 16.1541ZM20.7586 17.0717C20.6986 16.8841 20.6046 16.7295 20.5076 16.5934C20.4147 16.4629 20.2937 16.3156 20.1616 16.1541L19.078 17.0407C19.2219 17.2165 19.3079 17.3222 19.3675 17.4058C19.423 17.4837 19.427 17.5041 19.425 17.4979L20.7586 17.0717ZM20.699 18.2653C20.8627 17.8877 20.8838 17.4637 20.7586 17.0717L19.425 17.4979C19.4471 17.5671 19.4434 17.6419 19.4145 17.7085L20.699 18.2653ZM20.0138 19.1188C20.1613 18.9713 20.2964 18.8368 20.4018 18.7162C20.5118 18.5905 20.6207 18.446 20.699 18.2653L19.4145 17.7085C19.4171 17.7026 19.411 17.7225 19.3481 17.7944C19.2806 17.8717 19.1845 17.9682 19.0239 18.1288L20.0138 19.1188ZM19.1206 20.0121L20.0138 19.1188L19.0239 18.1288L18.1306 19.0221L19.1206 20.0121ZM18.2661 20.6979C18.447 20.6195 18.5917 20.5106 18.7176 20.4004C18.8382 20.2949 18.9729 20.1597 19.1206 20.0121L18.1306 19.0221C17.9698 19.1829 17.8732 19.279 17.7959 19.3467C17.7238 19.4097 17.7039 19.4157 17.7098 19.4131L18.2661 20.6979ZM17.0738 20.7573C17.4654 20.8823 17.8889 20.8612 18.2661 20.6979L17.7098 19.4131C17.6433 19.4419 17.5685 19.4457 17.4994 19.4236L17.0738 20.7573ZM16.1553 20.16C16.3169 20.2922 16.4644 20.4133 16.5949 20.5063C16.7312 20.6034 16.886 20.6974 17.0738 20.7573L17.4994 19.4236C17.5056 19.4256 17.4852 19.4216 17.4072 19.366C17.3236 19.3065 17.2179 19.2204 17.0419 19.0764L16.1553 20.16ZM15.2661 19.4901C15.2358 19.486 15.2727 19.4803 15.4451 19.6001C15.612 19.7161 15.8267 19.8911 16.1553 20.16L17.0419 19.0764C16.7315 18.8225 16.4669 18.6053 16.244 18.4505C16.0268 18.2995 15.7634 18.1442 15.4521 18.1025L15.2661 19.4901ZM14.9878 19.6053C15.0532 19.5198 15.1594 19.4758 15.2661 19.4901L15.4521 18.1025C14.8473 18.0214 14.2454 18.2707 13.8751 18.7557L14.9878 19.6053ZM14.8327 20.7078C14.875 20.2853 14.903 20.0098 14.939 19.8098C14.9763 19.6031 15.0063 19.5811 14.9878 19.6053L13.8751 18.7557C13.6845 19.0053 13.6081 19.3013 13.5612 19.5617C13.5131 19.8288 13.4796 20.1695 13.4397 20.5685L14.8327 20.7078ZM14.6056 21.7797C14.6961 21.6045 14.739 21.4286 14.7668 21.2636C14.7933 21.1055 14.8119 20.9156 14.8327 20.7078L13.4397 20.5685C13.417 20.7948 13.4031 20.9304 13.3861 21.0317C13.3702 21.1261 13.3586 21.1434 13.3616 21.1376L14.6056 21.7797ZM13.7206 22.5807C14.1027 22.4295 14.4171 22.1449 14.6056 21.7797L13.3616 21.1376C13.3283 21.202 13.2728 21.2523 13.2054 21.279L13.7206 22.5807ZM12.6314 22.7C12.8402 22.7 13.031 22.7004 13.191 22.6897C13.3579 22.6785 13.5372 22.6533 13.7206 22.5807L13.2054 21.279C13.2114 21.2766 13.1931 21.2864 13.0976 21.2928C12.9951 21.2996 12.8588 21.3 12.6314 21.3V22.7ZM11.3684 22.7H12.6314V21.3H11.3684V22.7ZM10.2798 22.5808C10.463 22.6533 10.6423 22.6785 10.8091 22.6897C10.969 22.7004 11.1597 22.7 11.3684 22.7V21.3C11.1411 21.3 11.0048 21.2996 10.9024 21.2928C10.807 21.2864 10.7886 21.2766 10.7947 21.279L10.2798 22.5808ZM9.3942 21.7794C9.58274 22.1449 9.89735 22.4296 10.2798 22.5808L10.7947 21.279C10.7272 21.2523 10.6717 21.202 10.6384 21.1375L9.3942 21.7794ZM9.16732 20.7081C9.18808 20.9157 9.2067 21.1055 9.23323 21.2636C9.26092 21.4285 9.30385 21.6043 9.3942 21.7794L10.6384 21.1375C10.6413 21.1433 10.6297 21.126 10.6139 21.0317C10.5969 20.9305 10.583 20.7949 10.5604 20.5688L9.16732 20.7081ZM9.01232 19.6062C8.9938 19.5819 9.02387 19.6039 9.06105 19.8105C9.09703 20.0104 9.12509 20.2858 9.16732 20.7081L10.5604 20.5688C10.5205 20.17 10.487 19.8295 10.4389 19.5625C10.3921 19.3023 10.3157 19.0064 10.1253 18.7569L9.01232 19.6062ZM8.73388 19.4908C8.84067 19.4765 8.94695 19.5205 9.01232 19.6062L10.1253 18.7569C9.75486 18.2715 9.15261 18.022 8.54747 18.1033L8.73388 19.4908ZM7.84504 20.1605C8.17355 19.8917 8.3881 19.7168 8.55492 19.6009C8.72734 19.4811 8.76415 19.4868 8.73388 19.4908L8.54747 18.1033C8.2364 18.1451 7.97313 18.3003 7.75597 18.4512C7.53323 18.606 7.26873 18.8231 6.9585 19.0769L7.84504 20.1605ZM6.92685 20.7577C7.1146 20.6978 7.26934 20.6038 7.40555 20.5067C7.53607 20.4137 7.68349 20.2927 7.84504 20.1605L6.9585 19.0769C6.78255 19.2209 6.67684 19.3069 6.59322 19.3665C6.51529 19.422 6.49486 19.426 6.50104 19.424L6.92685 20.7577ZM5.73417 20.6982C6.11146 20.8616 6.53518 20.8828 6.92685 20.7577L6.50105 19.424C6.43193 19.4461 6.35715 19.4424 6.29057 19.4135L5.73417 20.6982ZM4.88001 20.0126C5.02759 20.1602 5.16222 20.2954 5.28284 20.4009C5.40871 20.511 5.55333 20.6199 5.73418 20.6982L6.29057 19.4135C6.29652 19.4161 6.2766 19.4101 6.20459 19.3471C6.12732 19.2795 6.0307 19.1834 5.86996 19.0227L4.88001 20.0126ZM3.98672 19.1193L4.88001 20.0126L5.86996 19.0227L4.97667 18.1294L3.98672 19.1193ZM3.95488 19.0853L3.95489 19.0853L5.0085 18.1634L5.00849 18.1634L3.95488 19.0853ZM3.30134 18.2655C3.37966 18.4463 3.48857 18.5908 3.59863 18.7167C3.7041 18.8372 3.83919 18.9718 3.98671 19.1193L4.97666 18.1294C4.81599 17.9687 4.71992 17.8721 4.65236 17.7949C4.58939 17.7229 4.58337 17.703 4.58595 17.7089L3.30134 18.2655ZM3.24183 17.0724C3.11667 17.4642 3.13782 17.8881 3.30134 18.2655L4.58595 17.7089C4.55709 17.6423 4.55336 17.5675 4.57545 17.4984L3.24183 17.0724ZM3.83893 16.1545C3.70679 16.316 3.58575 16.4634 3.49279 16.5939C3.39578 16.73 3.30178 16.8847 3.24183 17.0724L4.57545 17.4984C4.57347 17.5046 4.57748 17.4842 4.63299 17.4062C4.69255 17.3226 4.77855 17.217 4.92247 17.0411L3.83893 16.1545ZM4.50826 15.2661C4.51234 15.2359 4.51803 15.2727 4.39825 15.445C4.28236 15.6117 4.10757 15.8262 3.83893 16.1545L4.92247 17.0411C5.17616 16.731 5.39312 16.4666 5.54785 16.244C5.69869 16.027 5.85386 15.7639 5.89573 15.453L4.50826 15.2661ZM4.39286 14.9875C4.4786 15.0529 4.52266 15.1593 4.50826 15.2661L5.89573 15.453C5.97729 14.8475 5.72764 14.2448 5.2418 13.8743L4.39286 14.9875ZM3.29163 14.8327C3.71368 14.8749 3.98884 14.9029 4.18864 14.9388C4.39513 14.976 4.41713 15.006 4.39286 14.9875L5.2418 13.8743C4.99239 13.6841 4.69666 13.6078 4.43656 13.561C4.16978 13.513 3.82949 13.4795 3.43094 13.4396L3.29163 14.8327ZM3.36128 14.8361H3.36128V13.4361H3.36128V14.8361ZM2.22092 14.606C2.39595 14.6962 2.57171 14.7391 2.7365 14.7668C2.89442 14.7933 3.08411 14.8119 3.29162 14.8327L3.43093 13.4396C3.20492 13.417 3.06947 13.4031 2.9683 13.3861C2.87402 13.3703 2.85676 13.3587 2.86251 13.3617L2.22092 14.606ZM1.41901 13.7199C1.57026 14.1026 1.85518 14.4174 2.22092 14.606L2.86252 13.3617C2.79797 13.3284 2.74769 13.2728 2.721 13.2053L1.41901 13.7199ZM1.3 12.6319C1.3 12.8405 1.29964 13.0311 1.31031 13.1908C1.32144 13.3576 1.34662 13.5367 1.41901 13.7199L2.721 13.2053C2.72338 13.2113 2.71356 13.193 2.7072 13.0976C2.70036 12.9952 2.7 12.8591 2.7 12.6319H1.3ZM1.3 11.3686V12.6319H2.7V11.3686H1.3ZM1.41929 10.2794C1.34674 10.4627 1.32149 10.6421 1.31033 10.809C1.29964 10.969 1.3 11.1598 1.3 11.3686H2.7C2.7 11.1412 2.70036 11.0049 2.70721 10.9024C2.7136 10.8069 2.72344 10.7886 2.72105 10.7946L1.41929 10.2794ZM2.22023 9.39437C1.85505 9.58287 1.57052 9.89728 1.41929 10.2794L2.72105 10.7946C2.74774 10.7272 2.79795 10.6717 2.86239 10.6384L2.22023 9.39437ZM3.29238 9.16727C3.08455 9.18805 2.89458 9.20669 2.73645 9.23324C2.57144 9.26096 2.39545 9.30393 2.22023 9.39437L2.86239 10.6384C2.85662 10.6414 2.87389 10.6298 2.96834 10.6139C3.06966 10.5969 3.20533 10.583 3.43168 10.5603L3.29238 9.16727ZM4.39468 9.01223C4.41897 8.99369 4.39697 9.02377 4.19026 9.06097C3.99026 9.09696 3.71482 9.12503 3.29238 9.16727L3.43168 10.5603C3.83062 10.5204 4.17122 10.4869 4.43822 10.4388C4.69851 10.392 4.99448 10.3156 5.24401 10.1252L4.39468 9.01223ZM4.51001 8.7338C4.52435 8.84059 4.48033 8.94687 4.39468 9.01223L5.24401 10.1252C5.72938 9.75477 5.97883 9.15252 5.89754 8.5474L4.51001 8.7338ZM3.84044 7.84503C4.1092 8.17351 4.28406 8.38804 4.39998 8.55486C4.51978 8.72725 4.51407 8.76406 4.51001 8.7338L5.89754 8.5474C5.85575 8.23633 5.70054 7.97307 5.54963 7.75591C5.39484 7.53318 5.17778 7.2687 4.92398 6.9585L3.84044 7.84503ZM3.8222 7.82176L3.82221 7.82176L4.94221 6.98176L4.9422 6.98176L3.8222 7.82176ZM3.88723 7.89673L3.88723 7.89673L4.87718 6.90678L4.87718 6.90678L3.88723 7.89673ZM3.2433 6.92702C3.30324 7.11474 3.39724 7.26945 3.49426 7.40563C3.58723 7.53613 3.70828 7.68351 3.84043 7.84502L4.92397 6.95849C4.78005 6.78258 4.69405 6.6769 4.63449 6.5933C4.57898 6.51539 4.57498 6.49497 4.57695 6.50114L3.2433 6.92702ZM3.30279 5.73417C3.13934 6.1115 3.1182 6.5353 3.2433 6.92702L4.57695 6.50114C4.55487 6.43201 4.5586 6.35723 4.58745 6.29064L3.30279 5.73417ZM3.98831 4.88014C3.84075 5.0277 3.70563 5.16231 3.60013 5.28291C3.49004 5.40876 3.38112 5.55335 3.30279 5.73417L4.58745 6.29064C4.58487 6.29658 4.59089 6.27667 4.65387 6.20467C4.72145 6.12741 4.81754 6.03081 4.97826 5.87009L3.98831 4.88014ZM4.88192 3.98652L3.98831 4.88014L4.97826 5.87009L5.87187 4.97647L4.88192 3.98652ZM5.73496 3.30164C5.55437 3.37995 5.40996 3.48878 5.28425 3.59876C5.16379 3.70415 5.02933 3.83912 4.88192 3.98652L5.87187 4.97647C6.03241 4.81593 6.12891 4.71995 6.20608 4.65243C6.278 4.58951 6.2979 4.58349 6.29196 4.58607L5.73496 3.30164ZM6.92911 3.24208C6.53698 3.11668 6.11267 3.13784 5.73496 3.30164L6.29196 4.58607C6.35861 4.55716 6.43349 4.55343 6.50269 4.57556L6.92911 3.24208ZM7.84607 3.83869C7.68473 3.70669 7.53751 3.58576 7.40716 3.49288C7.27113 3.39596 7.1166 3.30203 6.92911 3.24208L6.50269 4.57556C6.49652 4.57358 6.51691 4.57759 6.59474 4.63305C6.67825 4.69255 6.78382 4.77846 6.95954 4.92223L7.84607 3.83869ZM7.86376 3.85366L7.86376 3.85366L6.94185 4.90727L6.94186 4.90727L7.86376 3.85366ZM8.73386 4.50758C8.76409 4.51166 8.72731 4.51733 8.55511 4.39764C8.38849 4.28182 8.1742 4.10716 7.84608 3.8387L6.95954 4.92224C7.2694 5.17576 7.53359 5.39258 7.75607 5.54722C7.97297 5.69798 8.23592 5.85307 8.5466 5.895L8.73386 4.50758ZM9.01258 4.39213C8.94719 4.47793 8.84077 4.52201 8.73386 4.50758L8.5466 5.895C9.15242 5.97677 9.75549 5.72697 10.126 5.24077L9.01258 4.39213ZM9.16737 3.29141C9.12518 3.71325 9.09716 3.98828 9.06124 4.18799C9.02411 4.39439 8.99409 4.41639 9.01258 4.39213L10.126 5.24077C10.3161 4.99144 10.3924 4.69584 10.4391 4.43587C10.4871 4.1692 10.5206 3.82908 10.5604 3.43072L9.16737 3.29141ZM9.39388 2.22119C9.3037 2.39616 9.26085 2.57183 9.2332 2.73655C9.20671 2.8944 9.18811 3.084 9.16737 3.29141L10.5604 3.43072C10.583 3.20481 10.5969 3.06942 10.6139 2.96831C10.6297 2.87406 10.6413 2.85681 10.6383 2.86256L9.39388 2.22119ZM10.2804 1.41889C9.8975 1.57015 9.58249 1.85523 9.39388 2.22119L10.6383 2.86256C10.6716 2.79798 10.7272 2.74767 10.7948 2.72098L10.2804 1.41889ZM11.3679 1.3C11.1594 1.3 10.9689 1.29964 10.8092 1.3103C10.6425 1.32142 10.4635 1.34658 10.2804 1.41889L10.7948 2.72098C10.7887 2.72336 10.8071 2.71355 10.9024 2.70719C11.0047 2.70036 11.1408 2.7 11.3679 2.7V1.3ZM12.6319 1.3H11.3679V2.7H12.6319V1.3ZM13.7199 1.41902C13.5368 1.34663 13.3576 1.32144 13.1909 1.31031C13.0311 1.29964 12.8405 1.3 12.6319 1.3V2.7C12.8591 2.7 12.9952 2.70036 13.0976 2.7072C13.193 2.71357 13.2113 2.72338 13.2053 2.721L13.7199 1.41902ZM14.606 2.22089C14.4174 1.85518 14.1026 1.57027 13.7199 1.41902L13.2053 2.721C13.2728 2.74769 13.3284 2.79797 13.3617 2.86251L14.606 2.22089ZM14.8327 3.2917C14.8119 3.08416 14.7933 2.89445 14.7668 2.73651C14.7391 2.5717 14.6962 2.39593 14.606 2.22089L13.3617 2.86251C13.3587 2.85675 13.3703 2.87401 13.3861 2.96831C13.4031 3.06949 13.417 3.20497 13.4396 3.43101L14.8327 3.2917ZM15.3 12C15.3 13.8225 13.8225 15.3 12 15.3V16.7C14.5957 16.7 16.7 14.5957 16.7 12H15.3ZM12 8.7C13.8225 8.7 15.3 10.1775 15.3 12H16.7C16.7 9.40426 14.5957 7.3 12 7.3V8.7ZM8.7 12C8.7 10.1775 10.1775 8.7 12 8.7V7.3C9.40426 7.3 7.3 9.40426 7.3 12H8.7ZM12 15.3C10.1775 15.3 8.7 13.8225 8.7 12H7.3C7.3 14.5957 9.40426 16.7 12 16.7V15.3Z" fill="#188F82"/>
</svg>
