<svg width="17" height="16" viewBox="0 0 17 16" fill="none" xmlns="http://www.w3.org/2000/svg">
<path d="M6.27174 15.555C5.67838 16.1483 4.71376 16.1483 4.1204 15.555L1.1961 12.6294C0.601299 12.036 0.601299 11.0714 1.1961 10.4781L2.80643 8.86615L4.32982 10.3892C4.52655 10.5891 4.85021 10.5891 5.04694 10.3892C5.24684 10.1925 5.24684 9.86884 5.04694 9.67211L3.52418 8.14904L4.83751 6.83539L6.36059 8.35846C6.55732 8.55837 6.88097 8.55837 7.0777 8.35846C7.2776 8.16173 7.2776 7.83808 7.0777 7.64135L5.55463 6.11828L6.86828 4.80463L8.39135 6.3277C8.58808 6.5276 8.91173 6.5276 9.10846 6.3277C9.30836 6.13097 9.30836 5.80732 9.10846 5.61059L7.58539 4.08752L8.89904 2.77418L10.4221 4.29694C10.6188 4.49684 10.9425 4.49684 11.1392 4.29694C11.3391 4.10021 11.3391 3.77656 11.1392 3.57983L9.61615 2.05644L11.2281 0.446105C11.8214 -0.148702 12.786 -0.148702 13.3794 0.446105L16.305 3.3704C16.8983 3.96377 16.8983 4.92838 16.305 5.52174L6.27174 15.555Z" fill="#343434"/>
</svg>
