<svg width="33" height="33" viewBox="0 0 33 33" fill="none" xmlns="http://www.w3.org/2000/svg">
<path d="M3.26301 0.360924C2.60038 0.536053 2.09404 0.830019 1.59395 1.33039C1.08761 1.83701 0.800055 2.33737 0.625023 3.02538C0.5 3.49447 0.5 3.75717 0.5 14.2461C0.5 24.7351 0.5 24.9977 0.625023 25.4668C0.800055 26.1548 1.08761 26.6552 1.59395 27.1618C2.10029 27.6685 2.60038 27.9562 3.28801 28.1313C3.7506 28.2501 4.00064 28.2564 9.30161 28.2564C15.4402 28.2564 15.0839 28.2814 15.4215 27.8436C15.7528 27.4058 15.6528 26.7991 15.2027 26.4551L14.9839 26.2862L9.35162 26.2549C3.91313 26.2236 3.71309 26.2174 3.46929 26.0986C3.15674 25.9422 2.81292 25.5982 2.65665 25.2855C2.53162 25.0415 2.53162 24.8476 2.53162 14.2461C2.53162 3.64458 2.53162 3.45069 2.65665 3.20676C2.81292 2.89403 3.15674 2.55003 3.46929 2.39367C3.71309 2.26857 3.88812 2.26857 11.8458 2.26857H19.9723L20.2224 2.40618C20.5474 2.5813 20.9037 2.95658 21.0475 3.26931C21.1538 3.50073 21.16 3.84473 21.1913 7.52243C21.2225 11.2502 21.2288 11.5441 21.3351 11.7005C21.5101 11.9694 21.8039 12.1196 22.1665 12.1196C22.5728 12.1196 22.8603 11.9382 23.0541 11.5566L23.1979 11.2752L23.1729 7.27225C23.1542 2.86901 23.1729 3.06291 22.7541 2.23105C22.3415 1.4242 21.5101 0.704927 20.6412 0.410961L20.2224 0.267106L11.9709 0.254596C4.00689 0.242087 3.70059 0.248342 3.26301 0.360924Z" fill="black"/>
<path d="M5.16949 5.63979C4.86318 5.75237 4.76941 5.83994 4.61313 6.14016C4.38184 6.59674 4.53187 7.09711 5.00071 7.40984L5.20699 7.5537H8.50135H11.7957L12.002 7.40984C12.302 7.20969 12.4521 6.97827 12.4833 6.66554C12.5271 6.30278 12.3396 5.9275 12.0207 5.73361L11.7832 5.5835L8.59511 5.57099C6.0384 5.55848 5.36327 5.57099 5.16949 5.63979Z" fill="black"/>
<path d="M5.00082 11.0688C4.70076 11.2752 4.55074 11.5066 4.51948 11.8193C4.47572 12.1821 4.66326 12.5574 4.98206 12.7513L5.21961 12.9014L11.627 12.9201C15.1527 12.9326 18.1532 12.9201 18.3033 12.9014C18.6596 12.8513 19.0409 12.5136 19.1284 12.1758C19.2472 11.7443 19.0221 11.2314 18.6283 11.025C18.472 10.9437 17.5469 10.9312 11.8271 10.9312H5.20711L5.00082 11.0688Z" fill="black"/>
<path d="M23.4104 13.8959C19.5597 15.1906 17.053 16.0662 16.9155 16.1538C16.828 16.2101 16.6967 16.3789 16.6279 16.529C16.4967 16.798 16.4967 16.848 16.5217 20.1379C16.5467 23.7969 16.5529 23.8719 16.9718 25.0978C17.8594 27.6935 20.2911 30.2266 23.4729 31.859C24.4919 32.3844 24.5169 32.3844 25.5858 31.834C28.7677 30.1953 31.2056 27.6309 32.062 25.004C32.4621 23.7906 32.4621 23.7781 32.4871 20.1379C32.5121 16.848 32.5121 16.798 32.3808 16.529C32.3121 16.3789 32.1808 16.2101 32.0933 16.1538C31.912 16.0349 24.9482 13.6519 24.6232 13.5956C24.4669 13.5644 24.1543 13.6457 23.4104 13.8959ZM27.4737 16.6479L30.4742 17.6674V20.4757L30.468 23.284L30.3055 23.8969C29.8429 25.5919 28.7239 27.1618 27.0236 28.5191C26.4485 28.9757 25.5608 29.5761 24.9857 29.8826L24.5106 30.139L24.1481 29.9576C23.6042 29.6762 22.554 28.9694 21.8351 28.394C20.2536 27.1181 19.1534 25.5356 18.7033 23.8969L18.5408 23.284L18.5345 20.4757V17.6674L21.3476 16.7104C23.7355 15.9036 24.4731 15.6471 24.4731 15.6284C24.4731 15.6221 25.8234 16.085 27.4737 16.6479Z" fill="black"/>
<path d="M27.7113 19.0371C27.5675 19.1059 27.0299 19.7814 25.8422 21.3701C24.9233 22.596 24.1481 23.6217 24.1231 23.6593C24.0856 23.6905 23.6668 23.3215 23.0479 22.7086C22.204 21.8705 21.9915 21.6891 21.7727 21.6328C21.2976 21.5014 20.8475 21.7016 20.6287 22.1269C20.4912 22.4021 20.4724 22.6585 20.5662 22.9212C20.6537 23.1526 23.5418 26.0548 23.7981 26.1674C24.0669 26.2862 24.3294 26.2799 24.6045 26.1486C24.7982 26.0548 25.2358 25.5044 26.9736 23.1902C28.3989 21.2888 29.124 20.2693 29.149 20.1317C29.2303 19.7189 28.999 19.2185 28.6302 19.0309C28.3927 18.912 27.9613 18.912 27.7113 19.0371Z" fill="black"/>
<path d="M5.09471 16.3352C4.67588 16.5165 4.43834 16.9981 4.52585 17.4672C4.58211 17.7612 4.89467 18.1052 5.17597 18.1865C5.33225 18.2365 6.67625 18.2491 9.29548 18.2365C13.1274 18.2178 13.1837 18.2178 13.3587 18.0864C13.9713 17.6299 13.9713 16.8668 13.3587 16.4102C13.1837 16.2789 13.1274 16.2789 9.23296 16.2664C6.04488 16.2538 5.24473 16.2664 5.09471 16.3352Z" fill="black"/>
</svg>
