<svg width="60" height="60" viewBox="0 0 60 60" fill="none" xmlns="http://www.w3.org/2000/svg">
<g clip-path="url(#clip0_1804_5988)">
<rect width="60" height="60" rx="30" fill="#F9F8F8"/>
<path d="M41.4697 2.27539C37.9346 0.810547 34.0576 0 30 0C21.7188 0 14.2139 3.35938 8.78906 8.78906C6.02539 11.5479 3.79395 14.8535 2.27539 18.5303C0.810547 22.0654 0 25.9424 0 30C0 38.2812 3.35938 45.7861 8.78906 51.2109C11.5527 53.9746 14.8584 56.2012 18.5303 57.7246C22.0654 59.1895 25.9424 60 30 60C34.0576 60 37.9346 59.1895 41.4697 57.7246C45.1465 56.2012 48.4473 53.9746 51.2109 51.2109C53.9746 48.4473 56.2012 45.1416 57.7246 41.4697C59.1895 37.9346 60 34.0576 60 30C60 25.9424 59.1895 22.0654 57.7246 18.5303C56.2012 14.8535 53.9746 11.5527 51.2109 8.78906C48.4473 6.02539 45.1465 3.79395 41.4697 2.27539ZM35.5859 23.0127C36.7969 21.7822 36.7822 19.7998 35.5469 18.5938C34.3115 17.3877 32.334 17.3975 31.1279 18.6328L22.0117 27.8955C20.8154 29.1162 20.8154 31.0645 22.0117 32.2803L30.957 41.3721C32.168 42.6025 34.1455 42.6172 35.376 41.4111C36.6064 40.2002 36.6211 38.2227 35.415 36.9922L28.6279 30.0928L35.5859 23.0127ZM39.0723 8.08105C41.9678 9.28223 44.5801 11.0449 46.7676 13.2324C48.9551 15.4199 50.7178 18.0322 51.9189 20.9277C53.0762 23.7158 53.7109 26.7822 53.7109 30C53.7109 33.2178 53.0713 36.2793 51.9189 39.0723C50.7178 41.9678 48.9551 44.5801 46.7676 46.7676C44.5801 48.9551 41.9678 50.7178 39.0723 51.9189C36.2793 53.0713 33.2178 53.7109 30 53.7109C26.7822 53.7109 23.7207 53.0713 20.9277 51.9189C18.0322 50.7178 15.4199 48.9551 13.2324 46.7676C11.0449 44.5801 9.28223 41.9727 8.08105 39.0723C6.92383 36.2842 6.28906 33.2178 6.28906 30C6.28906 26.7822 6.92871 23.7207 8.08105 20.9277C9.28223 18.0322 11.0449 15.4199 13.2324 13.2324C15.4199 11.0449 18.0322 9.28223 20.9277 8.08105C23.7158 6.92383 26.7822 6.28906 30 6.28906C33.2178 6.28906 36.2793 6.92871 39.0723 8.08105Z" fill="#188F82"/>
</g>
<defs>
<clipPath id="clip0_1804_5988">
<rect width="60" height="60" rx="30" fill="white"/>
</clipPath>
</defs>
</svg>
