<svg width="82" height="82" viewBox="0 0 82 82" fill="none" xmlns="http://www.w3.org/2000/svg">
<path d="M12.8125 79.4375H58.9375C62.0714 79.4375 64.6762 77.1723 65.2259 74.1946C67.8243 73.7142 69.8704 71.668 70.3509 69.0696C73.3285 68.52 75.5938 65.9152 75.5938 62.7812V8.96875C75.5938 5.43634 72.7199 2.5625 69.1875 2.5625H23.0625C19.9286 2.5625 17.3238 4.82775 16.7741 7.80538C14.1758 8.28584 12.1296 10.332 11.6491 12.9304C8.6715 13.48 6.40625 16.0848 6.40625 19.2188V73.0312C6.40625 76.5637 9.28009 79.4375 12.8125 79.4375ZM56.375 17.1867L60.9696 21.7812H56.375V17.1867ZM23.0625 5.125H69.1875C71.3067 5.125 73.0312 6.84956 73.0312 8.96875V62.7812C73.0312 64.4494 71.9563 65.8588 70.4688 66.3893V14.0938C70.4688 10.5613 67.5949 7.6875 64.0625 7.6875H19.4545C19.9849 6.19997 21.3943 5.125 23.0625 5.125ZM17.9375 10.25H64.0625C66.1817 10.25 67.9062 11.9746 67.9062 14.0938V67.9062C67.9062 69.5744 66.8313 70.9838 65.3438 71.5143V23.0625C65.3438 22.7076 65.2003 22.3873 64.9671 22.1554L56.0009 13.1892C55.769 12.956 55.4487 12.8125 55.0938 12.8125H14.3295C14.8599 11.325 16.2693 10.25 17.9375 10.25ZM8.96875 19.2188C8.96875 17.0996 10.6933 15.375 12.8125 15.375H53.8125V23.0625C53.8125 23.771 54.3865 24.3438 55.0938 24.3438H62.7812V73.0312C62.7812 75.1504 61.0567 76.875 58.9375 76.875H12.8125C10.6933 76.875 8.96875 75.1504 8.96875 73.0312V19.2188Z" fill="black"/>
<path d="M15.375 73.0312H56.375C57.0822 73.0312 57.6562 72.4585 57.6562 71.75V30.75C57.6562 30.0415 57.0822 29.4688 56.375 29.4688H15.375C14.6678 29.4688 14.0938 30.0415 14.0938 30.75V71.75C14.0938 72.4585 14.6678 73.0312 15.375 73.0312ZM16.6562 66.625H24.3438V70.4688H16.6562V66.625ZM39.7188 47.4062V51.25H34.5938V47.4062H39.7188ZM34.5938 44.8438V41H39.7188V44.8438H34.5938ZM34.5938 57.6562V53.8125H39.7188V57.6562H34.5938ZM39.7188 60.2188V64.0625H34.5938V60.2188H39.7188ZM42.2812 53.8125H47.4062V57.6562H42.2812V53.8125ZM42.2812 51.25V47.4062H47.4062V51.25H42.2812ZM32.0312 51.25H26.9062V47.4062H32.0312V51.25ZM32.0312 53.8125V57.6562H26.9062V53.8125H32.0312ZM32.0312 60.2188V64.0625H26.9062V60.2188H32.0312ZM32.0312 66.625V70.4688H26.9062V66.625H32.0312ZM34.5938 66.625H39.7188V70.4688H34.5938V66.625ZM42.2812 66.625H47.4062V70.4688H42.2812V66.625ZM42.2812 64.0625V60.2188H47.4062V64.0625H42.2812ZM49.9688 60.2188H55.0938V64.0625H49.9688V60.2188ZM49.9688 57.6562V53.8125H55.0938V57.6562H49.9688ZM49.9688 51.25V47.4062H55.0938V51.25H49.9688ZM49.9688 44.8438V41H55.0938V44.8438H49.9688ZM47.4062 44.8438H42.2812V41H47.4062V44.8438ZM42.2812 38.4375V32.0312H47.4062V38.4375H42.2812ZM39.7188 38.4375H34.5938V32.0312H39.7188V38.4375ZM32.0312 38.4375H26.9062V32.0312H32.0312V38.4375ZM32.0312 41V44.8438H26.9062V41H32.0312ZM24.3438 44.8438H16.6562V41H24.3438V44.8438ZM24.3438 47.4062V51.25H16.6562V47.4062H24.3438ZM24.3438 53.8125V57.6562H16.6562V53.8125H24.3438ZM24.3438 60.2188V64.0625H16.6562V60.2188H24.3438ZM49.9688 70.4688V66.625H55.0938V70.4688H49.9688ZM55.0938 38.4375H49.9688V32.0312H55.0938V38.4375ZM24.3438 32.0312V38.4375H16.6562V32.0312H24.3438Z" fill="#188F82"/>
<path d="M49.9688 24.3438H21.7812V26.9062H49.9688V24.3438Z" fill="black"/>
<path d="M46.125 19.2188H25.625V21.7812H46.125V19.2188Z" fill="black"/>
</svg>
