<svg width="30" height="30" viewBox="0 0 30 30" fill="none" xmlns="http://www.w3.org/2000/svg">
<path d="M17.5 0V7.5C17.5 8.53711 18.6172 9.375 20 9.375H30V26.25C30 28.3184 27.7578 30 25 30H5C2.23828 30 0 28.3184 0 26.25V3.75C0 1.67871 2.23828 0 5 0H17.5ZM6.25 13.125C4.52422 13.125 3.125 14.1738 3.125 15.4688V20.1562C3.125 21.4512 4.52422 22.5 6.25 22.5H7.5C9.22656 22.5 10.625 21.4512 10.625 20.1562V19.6875C10.625 19.1719 10.0625 18.75 9.375 18.75C8.6875 18.75 8.125 19.1719 8.125 19.6875V20.1562C8.125 20.4141 7.84375 20.625 7.5 20.625H6.25C5.90469 20.625 5.625 20.4141 5.625 20.1562V15.4688C5.625 15.2109 5.90469 15 6.25 15H7.5C7.84375 15 8.125 15.2109 8.125 15.4688V15.9375C8.125 16.4531 8.6875 16.875 9.375 16.875C10.0625 16.875 10.625 16.4531 10.625 15.9375V15.4688C10.625 14.1738 9.22656 13.125 7.5 13.125H6.25ZM13.7031 18.1992L15.6875 19.0488C16.0312 19.2012 16.25 19.4824 16.25 19.7812C16.25 20.25 15.75 20.625 15.125 20.625H13.125C12.4375 20.625 11.875 21.0469 11.875 21.5625C11.875 22.0781 12.4375 22.5 13.125 22.5H15.125C17.125 22.5 18.75 21.2812 18.75 19.7812C18.75 18.7559 18.0547 17.9062 16.9219 17.4258L14.9375 16.5762C14.5938 16.4238 14.375 16.1426 14.375 15.8438C14.375 15.375 14.875 15 15.5 15H16.875C17.5625 15 18.125 14.5781 18.125 14.0625C18.125 13.5469 17.5625 13.125 16.875 13.125H15.5C13.5 13.125 11.875 14.3438 11.875 15.8438C11.875 16.8164 12.5703 17.7188 13.7031 18.1992ZM21.875 14.0625C21.875 13.5469 21.3125 13.125 20.625 13.125C19.9375 13.125 19.375 13.5469 19.375 14.0625V15.9141C19.375 17.9473 20.1797 19.9395 21.6875 21.6328L22.0859 22.084C22.3203 22.3418 22.7031 22.5 23.125 22.5C23.5469 22.5 23.9297 22.3418 24.1641 22.084L24.5625 21.6328C26.0703 19.9395 26.875 17.9473 26.875 15.9141V14.0625C26.875 13.5469 26.3125 13.125 25.625 13.125C24.9375 13.125 24.375 13.5469 24.375 14.0625V15.9141C24.375 17.2617 23.9453 18.5859 23.125 19.7754C22.3047 18.5859 21.875 17.2617 21.875 15.9141V14.0625ZM20 0L30 7.5H20V0Z" fill="black"/>
</svg>
