<svg width="30" height="30" viewBox="0 0 30 30" fill="none" xmlns="http://www.w3.org/2000/svg">
<path d="M17.5024 2.50122H7.50244C6.8394 2.50122 6.20352 2.76461 5.73467 3.23345C5.26583 3.70229 5.00244 4.33818 5.00244 5.00122V25.0012C5.00244 25.6643 5.26583 26.3001 5.73467 26.769C6.20352 27.2378 6.8394 27.5012 7.50244 27.5012H22.5024C23.1655 27.5012 23.8014 27.2378 24.2702 26.769C24.739 26.3001 25.0024 25.6643 25.0024 25.0012V10.0012L17.5024 2.50122Z" stroke="black" stroke-width="2.5" stroke-linecap="round" stroke-linejoin="round"/>
<path d="M17.4976 2.50122V10.0012H24.9976" stroke="black" stroke-width="2.5" stroke-linecap="round" stroke-linejoin="round"/>
<path d="M19.9976 16.2488H9.99756" stroke="black" stroke-width="2.5" stroke-linecap="round" stroke-linejoin="round"/>
<path d="M19.9976 21.2512H9.99756" stroke="black" stroke-width="2.5" stroke-linecap="round" stroke-linejoin="round"/>
<path d="M12.4976 11.25H11.2476H9.99756" stroke="black" stroke-width="2.5" stroke-linecap="round" stroke-linejoin="round"/>
</svg>
