<svg width="84" height="84" viewBox="0 0 84 84" fill="none" xmlns="http://www.w3.org/2000/svg">
<path d="M35.4681 48.5445V51.1859C35.4681 51.3891 35.3272 51.5487 35.1478 51.5487H31.3938V64.1317C31.3938 64.3349 31.2541 64.4946 31.0734 64.4946H28.2931C28.1266 64.4946 27.9728 64.3349 27.9728 64.1317V51.5487H24.2188C24.0381 51.5487 23.8984 51.3891 23.8984 51.1859V48.5445C23.8984 48.3413 24.0381 48.1816 24.2188 48.1816H35.1478C35.3272 48.1816 35.4681 48.3413 35.4681 48.5445Z" fill="#188F82"/>
<path d="M48.6134 64.3059C48.5622 64.422 48.4469 64.4946 48.3316 64.4946H44.9875C44.8722 64.4946 44.7697 64.4365 44.7056 64.3204L41.9253 59.4149L39.1437 64.3349C39.0797 64.4365 38.9772 64.4946 38.8747 64.4946H35.5447C35.4294 64.4946 35.3141 64.422 35.2628 64.3059C35.1988 64.1898 35.2116 64.0447 35.2756 63.9285L39.8625 56.0043L35.7113 48.7477C35.6472 48.6316 35.6472 48.4864 35.6984 48.3703C35.7625 48.2542 35.865 48.1816 35.9803 48.1816H39.2347C39.3372 48.1816 39.4397 48.2542 39.5038 48.3558L41.9894 52.8694L44.4225 48.3558C44.4737 48.2542 44.5762 48.1816 44.6915 48.1816H47.9088C48.0241 48.1816 48.1394 48.2542 48.1906 48.3703C48.2419 48.4864 48.2419 48.6316 48.1778 48.7477L44.0138 56.1204L48.6006 63.9285C48.6647 64.0447 48.6647 64.1898 48.6134 64.3059Z" fill="#188F82"/>
<path d="M60.0317 48.5445V51.1859C60.0317 51.3891 59.8908 51.5487 59.7114 51.5487H55.9573V64.1317C55.9573 64.3349 55.8177 64.4946 55.637 64.4946H52.8567C52.6773 64.4946 52.5364 64.3349 52.5364 64.1317V51.5487H48.7695C48.603 51.5487 48.4492 51.3891 48.4492 51.1859V48.5445C48.4492 48.3413 48.603 48.1816 48.7695 48.1816H59.7114C59.8908 48.1816 60.0317 48.3413 60.0317 48.5445Z" fill="#188F82"/>
<path d="M72.8569 39.0973H69.6537V2.98832C69.6537 1.88531 68.8722 1 67.8984 1H16.0078C15.0341 1 14.2525 1.88531 14.2525 2.98832V39.0973H11.0494C9.34531 39.0973 8 40.6212 8 42.5515V70.475C8 72.4053 9.34531 73.9292 11.0494 73.9292H14.2525V81.0117C14.2525 82.1147 15.0341 83 16.0078 83H67.8984C68.8722 83 69.6537 82.1147 69.6537 81.0117V73.9292H72.8569C74.5609 73.9292 75.9062 72.4053 75.9062 70.475V42.5515C75.9062 40.6212 74.5609 39.0973 72.8569 39.0973ZM17.7631 4.99115H66.1431V39.0973H17.7631V4.99115ZM66.1431 73.9292V79.0089H17.7631V73.9292H66.1431ZM72.3828 69.9381H11.5234V43.0885H72.3828V69.9381Z" fill="black"/>
<path d="M62.6063 33.8437C62.6063 34.9467 61.8248 35.832 60.851 35.832H23.0541C22.0804 35.832 21.2988 34.9467 21.2988 33.8437C21.2988 32.7406 22.0804 31.8408 23.0541 31.8408H60.851C61.8248 31.8408 62.6063 32.7406 62.6063 33.8437Z" fill="black"/>
<path d="M62.6063 13.5243C62.6063 14.6273 61.8248 15.5126 60.851 15.5126H23.0541C22.0804 15.5126 21.2988 14.6273 21.2988 13.5243C21.2988 12.4213 22.0804 11.5215 23.0541 11.5215H60.851C61.8248 11.5215 62.6063 12.4213 62.6063 13.5243Z" fill="black"/>
<path d="M62.6063 23.6845C62.6063 24.7875 61.8248 25.6728 60.851 25.6728H23.0541C22.0804 25.6728 21.2988 24.7875 21.2988 23.6845C21.2988 22.5815 22.0804 21.6816 23.0541 21.6816H60.851C61.8248 21.6816 62.6063 22.5815 62.6063 23.6845Z" fill="black"/>
</svg>
