<svg width="46" height="38" viewBox="0 0 46 38" fill="none" xmlns="http://www.w3.org/2000/svg">
<path fill-rule="evenodd" clip-rule="evenodd" d="M3.2093 3.25714V15.2H42.7907V9.77143H24.5447C23.8553 9.77143 23.1885 9.52125 22.665 9.0657L15.9878 3.25714H3.2093ZM42.7907 18.4571H3.2093V34.7429H42.7907V18.4571ZM0 2.93143C0 1.31245 1.29317 0 2.88837 0H16.1065C16.7961 0 17.4628 0.25037 17.9862 0.705707L24.6634 6.51429H43.1116C44.7069 6.51429 46 7.82679 46 9.44571V35.0686C46 36.6876 44.7069 38 43.1116 38H2.88837C1.29322 38 0 36.6877 0 35.0686V2.93143Z" fill="#188F82"/>
</svg>
